OHamburgC-Regular.ufo
<glyph name="exclam" format="2">
  <advance width="216"/>
  <unicode hex="0021"/>
  <outline>
    <contour>
      <point x="109" y="-8" type="curve" smooth="yes"/>
      <point x="132" y="-8"/>
      <point x="147" y="11"/>
      <point x="151" y="34" type="curve" smooth="yes"/>
      <point x="155" y="57"/>
      <point x="136" y="76"/>
      <point x="109" y="76" type="curve" smooth="yes"/>
      <point x="86" y="76"/>
      <point x="67" y="57"/>
      <point x="67" y="34" type="curve" smooth="yes"/>
      <point x="67" y="11"/>
      <point x="86" y="-8"/>
    </contour>
    <contour>
      <point x="79" y="176" type="curve"/>
      <point x="139" y="184" type="line"/>
      <point x="137" y="319"/>
      <point x="146" y="475"/>
      <point x="162" y="630" type="curve"/>
      <point x="54" y="618" type="line"/>
      <point x="72" y="467"/>
      <point x="83" y="307"/>
    </contour>
  </outline>
</glyph>
<glyph name="quotedbl" format="2">
  <advance width="378"/>
  <unicode hex="0022"/>
  <outline>
    <contour>
      <point x="81" y="428" type="line"/>
      <point x="102" y="428" type="line"/>
      <point x="152" y="606" type="line"/>
      <point x="161" y="640"/>
      <point x="146" y="664"/>
      <point x="118" y="664" type="curve" smooth="yes"/>
      <point x="89" y="664"/>
      <point x="71" y="640"/>
      <point x="72" y="606" type="curve"/>
    </contour>
    <contour>
      <point x="232" y="428" type="line"/>
      <point x="253" y="428" type="line"/>
      <point x="303" y="606" type="line"/>
      <point x="312" y="640"/>
      <point x="297" y="664"/>
      <point x="269" y="664" type="curve" smooth="yes"/>
      <point x="240" y="664"/>
      <point x="222" y="640"/>
      <point x="223" y="606" type="curve"/>
    </contour>
  </outline>
</glyph>
<glyph name="percent" format="2">
  <advance width="666"/>
  <unicode hex="0025"/>
  <outline>
    <contour>
      <point x="95" y="-2" type="line"/>
      <point x="144" y="-2" type="line"/>
      <point x="573" y="614" type="line"/>
      <point x="524" y="614" type="line"/>
    </contour>
    <contour>
      <point x="485" y="-16" type="curve" smooth="yes"/>
      <point x="559" y="-16"/>
      <point x="612" y="54"/>
      <point x="612" y="153" type="curve" smooth="yes"/>
      <point x="612" y="244"/>
      <point x="559" y="308"/>
      <point x="485" y="308" type="curve" smooth="yes"/>
      <point x="410" y="308"/>
      <point x="357" y="242"/>
      <point x="357" y="149" type="curve" smooth="yes"/>
      <point x="357" y="52"/>
      <point x="410" y="-16"/>
    </contour>
    <contour>
      <point x="492" y="10" type="curve" smooth="yes"/>
      <point x="449" y="10"/>
      <point x="419" y="73"/>
      <point x="419" y="161" type="curve" smooth="yes"/>
      <point x="419" y="232"/>
      <point x="444" y="282"/>
      <point x="479" y="282" type="curve" smooth="yes"/>
      <point x="521" y="282"/>
      <point x="550" y="223"/>
      <point x="550" y="139" type="curve" smooth="yes"/>
      <point x="550" y="63"/>
      <point x="526" y="10"/>
    </contour>
    <contour>
      <point x="182" y="304" type="curve" smooth="yes"/>
      <point x="256" y="304"/>
      <point x="309" y="374"/>
      <point x="309" y="473" type="curve" smooth="yes"/>
      <point x="309" y="563"/>
      <point x="256" y="627"/>
      <point x="182" y="627" type="curve" smooth="yes"/>
      <point x="107" y="627"/>
      <point x="54" y="562"/>
      <point x="54" y="469" type="curve" smooth="yes"/>
      <point x="54" y="372"/>
      <point x="107" y="304"/>
    </contour>
    <contour>
      <point x="188" y="330" type="curve" smooth="yes"/>
      <point x="146" y="330"/>
      <point x="116" y="393"/>
      <point x="116" y="481" type="curve" smooth="yes"/>
      <point x="116" y="551"/>
      <point x="141" y="601"/>
      <point x="176" y="601" type="curve" smooth="yes"/>
      <point x="218" y="601"/>
      <point x="247" y="542"/>
      <point x="247" y="459" type="curve" smooth="yes"/>
      <point x="247" y="383"/>
      <point x="223" y="330"/>
    </contour>
  </outline>
</glyph>
<glyph name="ampersand" format="2">
  <advance width="756"/>
  <unicode hex="0026"/>
  <outline>
    <contour>
      <point x="273" y="-11" type="curve" smooth="yes"/>
      <point x="440" y="-11"/>
      <point x="527" y="157"/>
      <point x="636" y="309" type="curve" smooth="yes"/>
      <point x="657" y="339"/>
      <point x="697" y="353"/>
      <point x="730" y="353" type="curve"/>
      <point x="730" y="384" type="line"/>
      <point x="530" y="384" type="line"/>
      <point x="530" y="354" type="line"/>
      <point x="572" y="347"/>
      <point x="583" y="340"/>
      <point x="583" y="326" type="curve" smooth="yes"/>
      <point x="583" y="312"/>
      <point x="571" y="290"/>
      <point x="550" y="254" type="curve" smooth="yes"/>
      <point x="515" y="193"/>
      <point x="413" y="43"/>
      <point x="314" y="43" type="curve" smooth="yes"/>
      <point x="222" y="43"/>
      <point x="152" y="106"/>
      <point x="152" y="199" type="curve" smooth="yes"/>
      <point x="152" y="359"/>
      <point x="424" y="380"/>
      <point x="424" y="532" type="curve" smooth="yes"/>
      <point x="424" y="584"/>
      <point x="371" y="627"/>
      <point x="294" y="627" type="curve" smooth="yes"/>
      <point x="216" y="627"/>
      <point x="160" y="568"/>
      <point x="160" y="484" type="curve" smooth="yes"/>
      <point x="160" y="417"/>
      <point x="220" y="305"/>
      <point x="305" y="213" type="curve" smooth="yes"/>
      <point x="428" y="80"/>
      <point x="552" y="-14"/>
      <point x="623" y="-14" type="curve" smooth="yes"/>
      <point x="670" y="-14"/>
      <point x="716" y="-5"/>
      <point x="738" y="8" type="curve"/>
      <point x="729" y="37" type="line"/>
      <point x="721" y="32"/>
      <point x="712" y="29"/>
      <point x="700" y="28" type="curve" smooth="yes"/>
      <point x="627" y="20"/>
      <point x="485" y="124"/>
      <point x="370" y="258" type="curve" smooth="yes"/>
      <point x="291" y="351"/>
      <point x="224" y="451"/>
      <point x="224" y="511" type="curve" smooth="yes"/>
      <point x="224" y="561"/>
      <point x="246" y="597"/>
      <point x="276" y="597" type="curve" smooth="yes"/>
      <point x="325" y="597"/>
      <point x="344" y="545"/>
      <point x="344" y="500" type="curve" smooth="yes"/>
      <point x="344" y="381"/>
      <point x="72" y="371"/>
      <point x="72" y="153" type="curve" smooth="yes"/>
      <point x="72" y="51"/>
      <point x="156" y="-11"/>
    </contour>
  </outline>
</glyph>
<glyph name="quotesingle" format="2">
  <advance width="234"/>
  <unicode hex="0027"/>
  <outline>
    <contour>
      <point x="72" y="428" type="line"/>
      <point x="93" y="428" type="line"/>
      <point x="159" y="606" type="line"/>
      <point x="168" y="640"/>
      <point x="153" y="664"/>
      <point x="125" y="664" type="curve" smooth="yes"/>
      <point x="96" y="664"/>
      <point x="78" y="640"/>
      <point x="79" y="606" type="curve"/>
    </contour>
  </outline>
</glyph>
<glyph name="parenleft" format="2">
  <advance width="270"/>
  <unicode hex="0028"/>
  <outline>
    <contour>
      <point x="134" y="281" type="curve" smooth="yes"/>
      <point x="134" y="437"/>
      <point x="188" y="607"/>
      <point x="252" y="692" type="curve"/>
      <point x="233" y="720" type="line"/>
      <point x="140" y="634"/>
      <point x="72" y="452"/>
      <point x="72" y="281" type="curve" smooth="yes"/>
      <point x="72" y="110"/>
      <point x="140" y="-72"/>
      <point x="233" y="-158" type="curve"/>
      <point x="252" y="-130" type="line"/>
      <point x="188" y="-45"/>
      <point x="134" y="125"/>
    </contour>
  </outline>
</glyph>
<glyph name="parenright" format="2">
  <advance width="270"/>
  <unicode hex="0029"/>
  <outline>
    <contour>
      <point x="136" y="281" type="curve" smooth="yes"/>
      <point x="136" y="125"/>
      <point x="82" y="-45"/>
      <point x="18" y="-130" type="curve"/>
      <point x="37" y="-158" type="line"/>
      <point x="130" y="-72"/>
      <point x="198" y="110"/>
      <point x="198" y="281" type="curve" smooth="yes"/>
      <point x="198" y="452"/>
      <point x="130" y="634"/>
      <point x="37" y="720" type="curve"/>
      <point x="18" y="692" type="line"/>
      <point x="82" y="607"/>
      <point x="136" y="437"/>
    </contour>
  </outline>
</glyph>
<glyph name="asterisk" format="2">
  <advance width="324"/>
  <unicode hex="002A"/>
  <outline>
    <contour>
      <point x="159" y="530" type="curve" smooth="yes"/>
      <point x="165" y="530" type="line"/>
      <point x="165" y="537"/>
      <point x="186" y="581"/>
      <point x="186" y="596" type="curve" smooth="yes"/>
      <point x="186" y="613"/>
      <point x="175" y="624"/>
      <point x="160" y="624" type="curve" smooth="yes"/>
      <point x="144" y="624"/>
      <point x="133" y="614"/>
      <point x="133" y="597" type="curve" smooth="yes"/>
      <point x="133" y="585"/>
      <point x="159" y="538"/>
    </contour>
    <contour>
      <point x="183" y="524" type="curve" smooth="yes"/>
      <point x="188" y="519" type="line"/>
      <point x="193" y="524"/>
      <point x="237" y="539"/>
      <point x="249" y="552" type="curve"/>
      <point x="260" y="563"/>
      <point x="261" y="579"/>
      <point x="250" y="590" type="curve" smooth="yes"/>
      <point x="239" y="600"/>
      <point x="223" y="600"/>
      <point x="212" y="589" type="curve" smooth="yes"/>
      <point x="203" y="581"/>
      <point x="188" y="529"/>
    </contour>
    <contour>
      <point x="194" y="501" type="curve" smooth="yes"/>
      <point x="194" y="494" type="line"/>
      <point x="201" y="494"/>
      <point x="243" y="473"/>
      <point x="260" y="473" type="curve" smooth="yes"/>
      <point x="276" y="473"/>
      <point x="288" y="485"/>
      <point x="288" y="500" type="curve" smooth="yes"/>
      <point x="288" y="515"/>
      <point x="276" y="526"/>
      <point x="261" y="526" type="curve" smooth="yes"/>
      <point x="248" y="526"/>
      <point x="202" y="501"/>
    </contour>
    <contour>
      <point x="188" y="479" type="curve" smooth="yes"/>
      <point x="183" y="473" type="line"/>
      <point x="188" y="468"/>
      <point x="203" y="424"/>
      <point x="214" y="411" type="curve" smooth="yes"/>
      <point x="227" y="400"/>
      <point x="242" y="399"/>
      <point x="254" y="410" type="curve" smooth="yes"/>
      <point x="264" y="422"/>
      <point x="264" y="437"/>
      <point x="253" y="449" type="curve" smooth="yes"/>
      <point x="243" y="458"/>
      <point x="193" y="472"/>
    </contour>
    <contour>
      <point x="166" y="467" type="curve" smooth="yes"/>
      <point x="159" y="467" type="line"/>
      <point x="159" y="459"/>
      <point x="138" y="417"/>
      <point x="138" y="400" type="curve" smooth="yes"/>
      <point x="138" y="384"/>
      <point x="149" y="372"/>
      <point x="165" y="372" type="curve" smooth="yes"/>
      <point x="180" y="372"/>
      <point x="191" y="383"/>
      <point x="191" y="399" type="curve" smooth="yes"/>
      <point x="191" y="411"/>
      <point x="166" y="458"/>
    </contour>
    <contour>
      <point x="142" y="472" type="curve" smooth="yes"/>
      <point x="137" y="477" type="line"/>
      <point x="132" y="472"/>
      <point x="88" y="457"/>
      <point x="76" y="446" type="curve"/>
      <point x="64" y="433"/>
      <point x="64" y="418"/>
      <point x="74" y="406" type="curve" smooth="yes"/>
      <point x="86" y="396"/>
      <point x="101" y="396"/>
      <point x="112" y="407" type="curve" smooth="yes"/>
      <point x="122" y="417"/>
      <point x="136" y="467"/>
    </contour>
    <contour>
      <point x="131" y="496" type="curve" smooth="yes"/>
      <point x="131" y="502" type="line"/>
      <point x="124" y="502"/>
      <point x="80" y="523"/>
      <point x="65" y="523" type="curve" smooth="yes"/>
      <point x="47" y="523"/>
      <point x="36" y="512"/>
      <point x="36" y="496" type="curve" smooth="yes"/>
      <point x="36" y="482"/>
      <point x="47" y="470"/>
      <point x="64" y="470" type="curve" smooth="yes"/>
      <point x="76" y="470"/>
      <point x="123" y="496"/>
    </contour>
    <contour>
      <point x="137" y="519" type="curve" smooth="yes"/>
      <point x="142" y="523" type="line"/>
      <point x="136" y="529"/>
      <point x="122" y="572"/>
      <point x="109" y="585" type="curve" smooth="yes"/>
      <point x="98" y="596"/>
      <point x="81" y="597"/>
      <point x="71" y="586" type="curve" smooth="yes"/>
      <point x="60" y="576"/>
      <point x="60" y="559"/>
      <point x="72" y="548" type="curve" smooth="yes"/>
      <point x="80" y="539"/>
      <point x="131" y="524"/>
    </contour>
  </outline>
</glyph>
<glyph name="plus" format="2">
  <advance width="594"/>
  <unicode hex="002B"/>
  <outline>
    <contour>
      <point x="271" y="28" type="line"/>
      <point x="321" y="28" type="line"/>
      <point x="321" y="256" type="line"/>
      <point x="540" y="256" type="line"/>
      <point x="540" y="306" type="line"/>
      <point x="321" y="306" type="line"/>
      <point x="321" y="528" type="line"/>
      <point x="271" y="528" type="line"/>
      <point x="271" y="306" type="line"/>
      <point x="54" y="306" type="line"/>
      <point x="54" y="256" type="line"/>
      <point x="271" y="256" type="line"/>
    </contour>
  </outline>
</glyph>
<glyph name="comma" format="2">
  <advance width="252"/>
  <unicode hex="002C"/>
  <outline>
    <contour>
      <point x="63" y="-138" type="curve"/>
      <point x="73" y="-165" type="line"/>
      <point x="148" y="-135"/>
      <point x="198" y="-63"/>
      <point x="198" y="8" type="curve" smooth="yes"/>
      <point x="198" y="54"/>
      <point x="166" y="91"/>
      <point x="116" y="91" type="curve" smooth="yes"/>
      <point x="80" y="91"/>
      <point x="54" y="67"/>
      <point x="54" y="38" type="curve" smooth="yes"/>
      <point x="54" y="16"/>
      <point x="68" y="-5"/>
      <point x="88" y="-5" type="curve" smooth="yes"/>
      <point x="106" y="-5"/>
      <point x="109" y="2"/>
      <point x="124" y="2" type="curve" smooth="yes"/>
      <point x="138" y="2"/>
      <point x="146" y="-14"/>
      <point x="146" y="-37" type="curve" smooth="yes"/>
      <point x="146" y="-86"/>
      <point x="111" y="-125"/>
    </contour>
  </outline>
</glyph>
<glyph name="period" format="2">
  <advance width="234"/>
  <unicode hex="002E"/>
  <outline>
    <contour>
      <point x="117" y="-6" type="curve" smooth="yes"/>
      <point x="154" y="-6"/>
      <point x="180" y="20"/>
      <point x="180" y="56" type="curve" smooth="yes"/>
      <point x="180" y="92"/>
      <point x="154" y="118"/>
      <point x="117" y="118" type="curve" smooth="yes"/>
      <point x="80" y="118"/>
      <point x="54" y="92"/>
      <point x="54" y="56" type="curve" smooth="yes"/>
      <point x="54" y="20"/>
      <point x="80" y="-6"/>
    </contour>
  </outline>
</glyph>
<glyph name="slash" format="2">
  <advance width="396"/>
  <unicode hex="002F"/>
  <outline>
    <contour>
      <point x="36" y="-162" type="line"/>
      <point x="89" y="-162" type="line"/>
      <point x="360" y="694" type="line"/>
      <point x="307" y="694" type="line"/>
    </contour>
  </outline>
</glyph>
<glyph name="zero" format="2">
  <advance width="539"/>
  <unicode hex="0030"/>
  <outline>
    <contour>
      <point x="267" y="-11" type="curve" smooth="yes"/>
      <point x="405" y="-11"/>
      <point x="503" y="127"/>
      <point x="503" y="321" type="curve" smooth="yes"/>
      <point x="503" y="500"/>
      <point x="405" y="626"/>
      <point x="267" y="626" type="curve" smooth="yes"/>
      <point x="132" y="626"/>
      <point x="36" y="500"/>
      <point x="36" y="321" type="curve" smooth="yes"/>
      <point x="36" y="127"/>
      <point x="132" y="-11"/>
    </contour>
    <contour>
      <point x="295" y="28" type="curve" smooth="yes"/>
      <point x="209" y="21"/>
      <point x="132" y="137"/>
      <point x="118" y="308" type="curve" smooth="yes"/>
      <point x="108" y="462"/>
      <point x="161" y="577"/>
      <point x="237" y="585" type="curve" smooth="yes"/>
      <point x="330" y="592"/>
      <point x="412" y="487"/>
      <point x="421" y="332" type="curve" smooth="yes"/>
      <point x="433" y="162"/>
      <point x="375" y="37"/>
    </contour>
  </outline>
</glyph>
<glyph name="one" format="2">
  <advance width="490"/>
  <unicode hex="0031"/>
  <outline>
    <contour>
      <point x="103" y="0" type="line"/>
      <point x="183" y="3"/>
      <point x="322" y="3"/>
      <point x="421" y="0" type="curve"/>
      <point x="421" y="29" type="line"/>
      <point x="369" y="33"/>
      <point x="334" y="37"/>
      <point x="324" y="44" type="curve" smooth="yes"/>
      <point x="306" y="56"/>
      <point x="293" y="63"/>
      <point x="292" y="105" type="curve" smooth="yes"/>
      <point x="291" y="138"/>
      <point x="292" y="392"/>
      <point x="292" y="465" type="curve" smooth="yes"/>
      <point x="292" y="516"/>
      <point x="294" y="588"/>
      <point x="298" y="628" type="curve"/>
      <point x="80" y="557" type="line"/>
      <point x="80" y="524" type="line"/>
      <point x="136" y="540"/>
      <point x="216" y="554"/>
      <point x="216" y="494" type="curve" smooth="yes"/>
      <point x="216" y="434"/>
      <point x="217" y="124"/>
      <point x="216" y="101" type="curve" smooth="yes"/>
      <point x="215" y="68"/>
      <point x="199" y="58"/>
      <point x="182" y="47" type="curve" smooth="yes"/>
      <point x="171" y="40"/>
      <point x="154" y="34"/>
      <point x="103" y="29" type="curve"/>
    </contour>
  </outline>
</glyph>
<glyph name="two" format="2">
  <advance width="490"/>
  <unicode hex="0032"/>
  <outline>
    <contour>
      <point x="29" y="-4" type="line"/>
      <point x="161" y="4"/>
      <point x="354" y="4"/>
      <point x="425" y="-4" type="curve"/>
      <point x="454" y="91" type="line"/>
      <point x="444" y="90" type="line"/>
      <point x="382" y="60"/>
      <point x="180" y="60"/>
      <point x="87" y="60" type="curve"/>
      <point x="86" y="43" type="line"/>
      <point x="321" y="251"/>
      <point x="427" y="339"/>
      <point x="427" y="480" type="curve" smooth="yes"/>
      <point x="427" y="567"/>
      <point x="359" y="628"/>
      <point x="264" y="628" type="curve" smooth="yes"/>
      <point x="188" y="628"/>
      <point x="100" y="579"/>
      <point x="51" y="509" type="curve"/>
      <point x="76" y="487" type="line"/>
      <point x="118" y="532"/>
      <point x="171" y="571"/>
      <point x="208" y="571" type="curve" smooth="yes"/>
      <point x="293" y="571"/>
      <point x="350" y="522"/>
      <point x="350" y="453" type="curve" smooth="yes"/>
      <point x="350" y="322"/>
      <point x="266" y="256"/>
      <point x="18" y="26" type="curve"/>
    </contour>
  </outline>
</glyph>
<glyph name="three" format="2">
  <advance width="476"/>
  <unicode hex="0033"/>
  <outline>
    <contour>
      <point x="48" y="-32" type="line"/>
      <point x="267" y="4"/>
      <point x="422" y="124"/>
      <point x="422" y="258" type="curve" smooth="yes"/>
      <point x="422" y="326"/>
      <point x="367" y="374"/>
      <point x="289" y="374" type="curve" smooth="yes"/>
      <point x="249" y="374"/>
      <point x="201" y="367"/>
      <point x="172" y="356" type="curve" smooth="yes"/>
      <point x="193" y="365"/>
      <point x="165" y="362"/>
      <point x="104" y="347" type="curve"/>
      <point x="123" y="316" type="line"/>
      <point x="152" y="325"/>
      <point x="189" y="334"/>
      <point x="208" y="334" type="curve" smooth="yes"/>
      <point x="290" y="334"/>
      <point x="341" y="290"/>
      <point x="341" y="228" type="curve" smooth="yes"/>
      <point x="341" y="125"/>
      <point x="219" y="37"/>
      <point x="36" y="7" type="curve"/>
    </contour>
    <contour>
      <point x="123" y="316" type="line"/>
      <point x="138" y="322"/>
      <point x="165" y="348"/>
      <point x="194" y="359" type="curve" smooth="yes"/>
      <point x="312" y="402"/>
      <point x="396" y="476"/>
      <point x="396" y="537" type="curve" smooth="yes"/>
      <point x="396" y="589"/>
      <point x="342" y="625"/>
      <point x="265" y="625" type="curve" smooth="yes"/>
      <point x="204" y="625"/>
      <point x="121" y="591"/>
      <point x="66" y="544" type="curve"/>
      <point x="87" y="514" type="line"/>
      <point x="129" y="542"/>
      <point x="185" y="569"/>
      <point x="223" y="569" type="curve" smooth="yes"/>
      <point x="274" y="569"/>
      <point x="307" y="544"/>
      <point x="307" y="508" type="curve" smooth="yes"/>
      <point x="307" y="448"/>
      <point x="225" y="382"/>
      <point x="104" y="347" type="curve"/>
    </contour>
  </outline>
</glyph>
<glyph name="four" format="2">
  <advance width="506"/>
  <unicode hex="0034"/>
  <outline>
    <contour>
      <point x="307" y="1" type="curve"/>
      <point x="384" y="1" type="line"/>
      <point x="384" y="167"/>
      <point x="384" y="411"/>
      <point x="389" y="616" type="curve"/>
      <point x="340" y="616" type="line"/>
      <point x="18" y="210" type="line"/>
      <point x="18" y="173" type="line"/>
      <point x="180" y="173"/>
      <point x="308" y="167"/>
      <point x="470" y="164" type="curve"/>
      <point x="470" y="219" type="line"/>
      <point x="319" y="216"/>
      <point x="201" y="213"/>
      <point x="50" y="213" type="curve"/>
      <point x="56" y="196" type="line"/>
      <point x="340" y="557" type="line"/>
      <point x="318" y="554" type="line"/>
      <point x="307" y="376"/>
      <point x="307" y="155"/>
    </contour>
  </outline>
</glyph>
<glyph name="five" format="2">
  <advance width="550"/>
  <unicode hex="0035"/>
  <outline>
    <contour>
      <point x="88" y="-35" type="line"/>
      <point x="267" y="4"/>
      <point x="398" y="115"/>
      <point x="398" y="247" type="curve" smooth="yes"/>
      <point x="398" y="343"/>
      <point x="297" y="418"/>
      <point x="149" y="458" type="curve"/>
      <point x="151" y="434" type="line"/>
      <point x="213" y="595" type="line"/>
      <point x="176" y="558" type="line"/>
      <point x="226" y="565"/>
      <point x="381" y="555"/>
      <point x="434" y="538" type="curve"/>
      <point x="444" y="532" type="line"/>
      <point x="478" y="625" type="line"/>
      <point x="381" y="621"/>
      <point x="231" y="619"/>
      <point x="187" y="625" type="curve"/>
      <point x="99" y="401" type="line"/>
      <point x="242" y="357"/>
      <point x="324" y="281"/>
      <point x="324" y="215" type="curve" smooth="yes"/>
      <point x="324" y="120"/>
      <point x="217" y="40"/>
      <point x="72" y="-2" type="curve"/>
    </contour>
  </outline>
</glyph>
<glyph name="six" format="2">
  <advance width="494"/>
  <unicode hex="0036"/>
  <outline>
    <contour>
      <point x="261" y="-11" type="curve" smooth="yes"/>
      <point x="376" y="-11"/>
      <point x="458" y="75"/>
      <point x="458" y="197" type="curve" smooth="yes"/>
      <point x="458" y="302"/>
      <point x="378" y="377"/>
      <point x="264" y="377" type="curve" smooth="yes"/>
      <point x="224" y="377"/>
      <point x="179" y="362"/>
      <point x="155" y="340" type="curve"/>
      <point x="170" y="321" type="line"/>
      <point x="186" y="330"/>
      <point x="209" y="337"/>
      <point x="227" y="337" type="curve" smooth="yes"/>
      <point x="311" y="337"/>
      <point x="372" y="268"/>
      <point x="372" y="173" type="curve" smooth="yes"/>
      <point x="372" y="89"/>
      <point x="324" y="30"/>
      <point x="260" y="30" type="curve" smooth="yes"/>
      <point x="183" y="30"/>
      <point x="122" y="133"/>
      <point x="122" y="279" type="curve" smooth="yes"/>
      <point x="122" y="413"/>
      <point x="231" y="541"/>
      <point x="380" y="588" type="curve"/>
      <point x="367" y="627" type="line"/>
      <point x="173" y="566"/>
      <point x="36" y="409"/>
      <point x="36" y="247" type="curve" smooth="yes"/>
      <point x="36" y="96"/>
      <point x="129" y="-11"/>
    </contour>
  </outline>
</glyph>
<glyph name="seven" format="2">
  <advance width="488"/>
  <unicode hex="0037"/>
  <outline>
    <contour>
      <point x="92" y="-44" type="line"/>
      <point x="143" y="-75" type="line"/>
      <point x="470" y="608" type="line"/>
      <point x="463" y="623" type="line"/>
      <point x="341" y="613"/>
      <point x="145" y="613"/>
      <point x="74" y="621" type="curve"/>
      <point x="36" y="516" type="line"/>
      <point x="45" y="512" type="line"/>
      <point x="111" y="539"/>
      <point x="207" y="553"/>
      <point x="407" y="539" type="curve"/>
      <point x="421" y="579" type="line"/>
    </contour>
  </outline>
</glyph>
<glyph name="eight" format="2">
  <advance width="516"/>
  <unicode hex="0038"/>
  <outline>
    <contour>
      <point x="251" y="-11" type="line"/>
      <point x="375" y="-11"/>
      <point x="462" y="67"/>
      <point x="462" y="177" type="curve"/>
      <point x="462" y="324"/>
      <point x="125" y="367"/>
      <point x="125" y="482" type="curve" smooth="yes"/>
      <point x="125" y="546"/>
      <point x="191" y="591"/>
      <point x="258" y="591" type="curve"/>
      <point x="258" y="625" type="line"/>
      <point x="155" y="625"/>
      <point x="64" y="552"/>
      <point x="64" y="450" type="curve" smooth="yes"/>
      <point x="64" y="295"/>
      <point x="403" y="243"/>
      <point x="403" y="146" type="curve"/>
      <point x="403" y="75"/>
      <point x="340" y="24"/>
      <point x="251" y="24" type="curve"/>
    </contour>
    <contour>
      <point x="251" y="-11" type="curve"/>
      <point x="251" y="24" type="line"/>
      <point x="177" y="24"/>
      <point x="125" y="80"/>
      <point x="125" y="160" type="curve" smooth="yes"/>
      <point x="125" y="207"/>
      <point x="176" y="269"/>
      <point x="249" y="309" type="curve"/>
      <point x="213" y="323" type="line"/>
      <point x="120" y="276"/>
      <point x="54" y="205"/>
      <point x="54" y="152" type="curve" smooth="yes"/>
      <point x="54" y="57"/>
      <point x="136" y="-11"/>
    </contour>
    <contour>
      <point x="258" y="625" type="curve"/>
      <point x="258" y="591" type="line"/>
      <point x="321" y="591"/>
      <point x="365" y="545"/>
      <point x="365" y="481" type="curve" smooth="yes"/>
      <point x="365" y="434"/>
      <point x="320" y="376"/>
      <point x="256" y="341" type="curve"/>
      <point x="293" y="327" type="line"/>
      <point x="377" y="369"/>
      <point x="437" y="436"/>
      <point x="437" y="489" type="curve" smooth="yes"/>
      <point x="437" y="569"/>
      <point x="363" y="625"/>
    </contour>
  </outline>
</glyph>
<glyph name="nine" format="2">
  <advance width="530"/>
  <unicode hex="0039"/>
  <outline>
    <contour>
      <point x="251" y="627" type="curve" smooth="yes"/>
      <point x="136" y="627"/>
      <point x="54" y="541"/>
      <point x="54" y="419" type="curve" smooth="yes"/>
      <point x="54" y="314"/>
      <point x="134" y="239"/>
      <point x="248" y="239" type="curve" smooth="yes"/>
      <point x="288" y="239"/>
      <point x="333" y="254"/>
      <point x="357" y="276" type="curve"/>
      <point x="342" y="295" type="line"/>
      <point x="326" y="286"/>
      <point x="303" y="279"/>
      <point x="285" y="279" type="curve" smooth="yes"/>
      <point x="201" y="279"/>
      <point x="140" y="348"/>
      <point x="140" y="443" type="curve" smooth="yes"/>
      <point x="140" y="527"/>
      <point x="188" y="586"/>
      <point x="252" y="586" type="curve" smooth="yes"/>
      <point x="329" y="586"/>
      <point x="389" y="483"/>
      <point x="389" y="337" type="curve" smooth="yes"/>
      <point x="389" y="203"/>
      <point x="281" y="71"/>
      <point x="132" y="24" type="curve"/>
      <point x="145" y="-11" type="line"/>
      <point x="339" y="50"/>
      <point x="476" y="207"/>
      <point x="476" y="369" type="curve" smooth="yes"/>
      <point x="476" y="520"/>
      <point x="383" y="627"/>
    </contour>
  </outline>
</glyph>
<glyph name="colon" format="2">
  <advance width="234"/>
  <unicode hex="003A"/>
  <outline>
    <contour>
      <point x="123" y="213" type="curve" smooth="yes"/>
      <point x="154" y="213"/>
      <point x="180" y="234"/>
      <point x="180" y="259" type="curve" smooth="yes"/>
      <point x="180" y="284"/>
      <point x="154" y="305"/>
      <point x="123" y="305" type="curve" smooth="yes"/>
      <point x="92" y="305"/>
      <point x="68" y="284"/>
      <point x="68" y="259" type="curve" smooth="yes"/>
      <point x="68" y="234"/>
      <point x="92" y="213"/>
    </contour>
    <contour>
      <point x="111" y="-5" type="curve" smooth="yes"/>
      <point x="143" y="-5"/>
      <point x="166" y="16"/>
      <point x="166" y="41" type="curve" smooth="yes"/>
      <point x="166" y="66"/>
      <point x="143" y="87"/>
      <point x="111" y="87" type="curve" smooth="yes"/>
      <point x="80" y="87"/>
      <point x="54" y="66"/>
      <point x="54" y="41" type="curve" smooth="yes"/>
      <point x="54" y="16"/>
      <point x="80" y="-5"/>
    </contour>
  </outline>
</glyph>
<glyph name="semicolon" format="2">
  <advance width="252"/>
  <unicode hex="003B"/>
  <outline>
    <contour>
      <point x="63" y="-147" type="curve"/>
      <point x="72" y="-176" type="line"/>
      <point x="138" y="-146"/>
      <point x="185" y="-68"/>
      <point x="185" y="12" type="curve" smooth="yes"/>
      <point x="185" y="59"/>
      <point x="155" y="92"/>
      <point x="113" y="92" type="curve" smooth="yes"/>
      <point x="79" y="92"/>
      <point x="54" y="73"/>
      <point x="54" y="44" type="curve" smooth="yes"/>
      <point x="54" y="17"/>
      <point x="67" y="-3"/>
      <point x="86" y="-3" type="curve" smooth="yes"/>
      <point x="103" y="-3"/>
      <point x="106" y="5"/>
      <point x="121" y="5" type="curve" smooth="yes"/>
      <point x="134" y="5"/>
      <point x="142" y="-12"/>
      <point x="142" y="-37" type="curve" smooth="yes"/>
      <point x="142" y="-88"/>
      <point x="109" y="-134"/>
    </contour>
    <contour>
      <point x="145" y="213" type="curve" smooth="yes"/>
      <point x="176" y="213"/>
      <point x="198" y="233"/>
      <point x="198" y="258" type="curve" smooth="yes"/>
      <point x="198" y="281"/>
      <point x="176" y="300"/>
      <point x="145" y="300" type="curve" smooth="yes"/>
      <point x="116" y="300"/>
      <point x="91" y="281"/>
      <point x="91" y="258" type="curve" smooth="yes"/>
      <point x="91" y="233"/>
      <point x="116" y="213"/>
    </contour>
  </outline>
</glyph>
<glyph name="less" format="2">
  <advance width="594"/>
  <unicode hex="003C"/>
  <outline>
    <contour>
      <point x="517" y="65" type="line"/>
      <point x="540" y="110" type="line"/>
      <point x="100" y="278" type="line"/>
      <point x="539" y="448" type="line"/>
      <point x="518" y="494" type="line"/>
      <point x="54" y="310" type="line"/>
      <point x="54" y="247" type="line"/>
    </contour>
  </outline>
</glyph>
<glyph name="equal" format="2">
  <advance width="594"/>
  <unicode hex="003D"/>
  <outline>
    <contour>
      <point x="54" y="323" type="line"/>
      <point x="540" y="323" type="line"/>
      <point x="540" y="373" type="line"/>
      <point x="54" y="373" type="line"/>
    </contour>
    <contour>
      <point x="54" y="193" type="line"/>
      <point x="540" y="193" type="line"/>
      <point x="540" y="243" type="line"/>
      <point x="54" y="243" type="line"/>
    </contour>
  </outline>
</glyph>
<glyph name="greater" format="2">
  <advance width="594"/>
  <unicode hex="003E"/>
  <outline>
    <contour>
      <point x="77" y="65" type="line"/>
      <point x="540" y="247" type="line"/>
      <point x="540" y="310" type="line"/>
      <point x="76" y="494" type="line"/>
      <point x="55" y="448" type="line"/>
      <point x="494" y="278" type="line"/>
      <point x="54" y="110" type="line"/>
    </contour>
  </outline>
</glyph>
<glyph name="question" format="2">
  <advance width="396"/>
  <unicode hex="003F"/>
  <outline>
    <contour>
      <point x="194" y="170" type="curve" smooth="yes"/>
      <point x="203" y="170"/>
      <point x="236" y="184"/>
      <point x="275" y="203" type="curve"/>
      <point x="273" y="216" type="line"/>
      <point x="241" y="217" type="line" smooth="yes"/>
      <point x="216" y="218"/>
      <point x="198" y="236"/>
      <point x="198" y="260" type="curve" smooth="yes"/>
      <point x="198" y="347"/>
      <point x="340" y="346"/>
      <point x="342" y="466" type="curve"/>
      <point x="342" y="527"/>
      <point x="299" y="571"/>
      <point x="238" y="571" type="curve" smooth="yes"/>
      <point x="209" y="571"/>
      <point x="165" y="554"/>
      <point x="126" y="530" type="curve" smooth="yes"/>
      <point x="94" y="508"/>
      <point x="72" y="471"/>
      <point x="72" y="440" type="curve" smooth="yes"/>
      <point x="72" y="409"/>
      <point x="144" y="423"/>
      <point x="144" y="454" type="curve" smooth="yes"/>
      <point x="144" y="470"/>
      <point x="137" y="466"/>
      <point x="137" y="481" type="curve" smooth="yes"/>
      <point x="137" y="508"/>
      <point x="160" y="527"/>
      <point x="188" y="527" type="curve" smooth="yes"/>
      <point x="238" y="527"/>
      <point x="267" y="500"/>
      <point x="266" y="460" type="curve" smooth="yes"/>
      <point x="261" y="317"/>
      <point x="126" y="317"/>
      <point x="126" y="233" type="curve" smooth="yes"/>
      <point x="126" y="196"/>
      <point x="158" y="170"/>
    </contour>
    <contour>
      <point x="203" y="-6" type="curve" smooth="yes"/>
      <point x="225" y="-6"/>
      <point x="243" y="12"/>
      <point x="243" y="34" type="curve" smooth="yes"/>
      <point x="243" y="56"/>
      <point x="225" y="74"/>
      <point x="203" y="74" type="curve" smooth="yes"/>
      <point x="181" y="74"/>
      <point x="163" y="56"/>
      <point x="163" y="34" type="curve" smooth="yes"/>
      <point x="163" y="12"/>
      <point x="181" y="-6"/>
    </contour>
  </outline>
</glyph>
<glyph name="at" format="2">
  <advance width="774"/>
  <unicode hex="0040"/>
  <outline>
    <contour>
      <point x="408" y="-118" type="curve" smooth="yes"/>
      <point x="504" y="-118"/>
      <point x="613" y="-72"/>
      <point x="670" y="-7" type="curve"/>
      <point x="653" y="14" type="line"/>
      <point x="601" y="-46"/>
      <point x="500" y="-88"/>
      <point x="408" y="-88" type="curve" smooth="yes"/>
      <point x="218" y="-88"/>
      <point x="84" y="47"/>
      <point x="84" y="238" type="curve" smooth="yes"/>
      <point x="84" y="437"/>
      <point x="218" y="578"/>
      <point x="408" y="578" type="curve" smooth="yes"/>
      <point x="574" y="578"/>
      <point x="690" y="466"/>
      <point x="690" y="308" type="curve" smooth="yes"/>
      <point x="690" y="183"/>
      <point x="635" y="95"/>
      <point x="556" y="95" type="curve" smooth="yes"/>
      <point x="518" y="95"/>
      <point x="494" y="110"/>
      <point x="498" y="130" type="curve" smooth="yes"/>
      <point x="553" y="393" type="line"/>
      <point x="539" y="416"/>
      <point x="485" y="432"/>
      <point x="423" y="432" type="curve" smooth="yes"/>
      <point x="295" y="432"/>
      <point x="205" y="333"/>
      <point x="205" y="193" type="curve" smooth="yes"/>
      <point x="205" y="114"/>
      <point x="262" y="58"/>
      <point x="343" y="58" type="curve" smooth="yes"/>
      <point x="372" y="58"/>
      <point x="412" y="79"/>
      <point x="440" y="109" type="curve"/>
      <point x="447" y="82"/>
      <point x="488" y="63"/>
      <point x="540" y="63" type="curve" smooth="yes"/>
      <point x="646" y="63"/>
      <point x="720" y="165"/>
      <point x="720" y="308" type="curve" smooth="yes"/>
      <point x="720" y="484"/>
      <point x="591" y="608"/>
      <point x="408" y="608" type="curve" smooth="yes"/>
      <point x="201" y="608"/>
      <point x="54" y="455"/>
      <point x="54" y="238" type="curve" smooth="yes"/>
      <point x="54" y="29"/>
      <point x="201" y="-118"/>
    </contour>
    <contour>
      <point x="276" y="211" type="curve" smooth="yes"/>
      <point x="276" y="319"/>
      <point x="329" y="396"/>
      <point x="403" y="396" type="curve" smooth="yes"/>
      <point x="433" y="396"/>
      <point x="466" y="387"/>
      <point x="483" y="374" type="curve"/>
      <point x="434" y="140" type="line"/>
      <point x="405" y="117"/>
      <point x="375" y="100"/>
      <point x="361" y="100" type="curve" smooth="yes"/>
      <point x="311" y="100"/>
      <point x="276" y="146"/>
    </contour>
  </outline>
</glyph>
<glyph name="A" format="2">
  <advance width="702"/>
  <unicode hex="0041"/>
  <anchor x="351" y="0" name="bottom"/>
  <anchor x="632" y="10" name="ogonek"/>
  <anchor x="360" y="616" name="top"/>
  <outline>
    <contour>
      <point x="414" y="0" type="line"/>
      <point x="684" y="0" type="line"/>
      <point x="684" y="25" type="line"/>
      <point x="614" y="39"/>
      <point x="593" y="64"/>
      <point x="563" y="135" type="curve" smooth="yes"/>
      <point x="495" y="306"/>
      <point x="428" y="477"/>
      <point x="360" y="648" type="curve"/>
      <point x="320" y="576" type="line"/>
      <point x="313" y="550" type="line"/>
      <point x="470" y="139" type="line" smooth="yes"/>
      <point x="507" y="42"/>
      <point x="496" y="43"/>
      <point x="414" y="25" type="curve"/>
    </contour>
    <contour>
      <point x="18" y="0" type="line"/>
      <point x="270" y="0" type="line"/>
      <point x="270" y="25" type="line"/>
      <point x="195" y="31"/>
      <point x="167" y="57"/>
      <point x="194" y="130" type="curve" smooth="yes"/>
      <point x="353" y="564" type="line"/>
      <point x="320" y="576" type="line"/>
      <point x="255" y="404"/>
      <point x="187" y="198"/>
      <point x="125" y="83" type="curve" smooth="yes"/>
      <point x="106" y="49"/>
      <point x="62" y="25"/>
      <point x="18" y="25" type="curve"/>
    </contour>
    <contour>
      <point x="214" y="258" type="line"/>
      <point x="468" y="258" type="line"/>
      <point x="454" y="298" type="line"/>
      <point x="231" y="298" type="line"/>
    </contour>
  </outline>
</glyph>
<glyph name="C" format="2">
  <advance width="720"/>
  <unicode hex="0043"/>
  <anchor x="404" y="0" name="bottom"/>
  <anchor x="404" y="616" name="top"/>
  <outline>
    <contour>
      <point x="404" y="-11" type="curve" smooth="yes"/>
      <point x="479" y="-11"/>
      <point x="572" y="9"/>
      <point x="628" y="38" type="curve"/>
      <point x="646" y="106"/>
      <point x="662" y="174"/>
      <point x="666" y="201" type="curve"/>
      <point x="630" y="200" type="line"/>
      <point x="606" y="102"/>
      <point x="520" y="33"/>
      <point x="422" y="33" type="curve" smooth="yes"/>
      <point x="268" y="33"/>
      <point x="149" y="158"/>
      <point x="149" y="335" type="curve" smooth="yes"/>
      <point x="149" y="482"/>
      <point x="267" y="588"/>
      <point x="416" y="588" type="curve" smooth="yes"/>
      <point x="514" y="588"/>
      <point x="585" y="528"/>
      <point x="589" y="444" type="curve"/>
      <point x="620" y="444" type="line"/>
      <point x="622" y="489"/>
      <point x="629" y="551"/>
      <point x="636" y="595" type="curve"/>
      <point x="586" y="614"/>
      <point x="490" y="627"/>
      <point x="404" y="627" type="curve" smooth="yes"/>
      <point x="197" y="627"/>
      <point x="54" y="496"/>
      <point x="54" y="312" type="curve" smooth="yes"/>
      <point x="54" y="123"/>
      <point x="197" y="-11"/>
    </contour>
  </outline>
</glyph>
<glyph name="D" format="2">
  <advance width="702"/>
  <unicode hex="0044"/>
  <anchor x="284" y="0" name="bottom"/>
  <anchor x="176" y="308" name="center"/>
  <anchor x="283" y="616" name="top"/>
  <outline>
    <contour>
      <point x="18" y="25" type="curve"/>
      <point x="18" y="0" type="line"/>
      <point x="41" y="0"/>
      <point x="103" y="0"/>
      <point x="145" y="0" type="curve" smooth="yes"/>
      <point x="145" y="0"/>
      <point x="186" y="1"/>
      <point x="304" y="-3" type="curve"/>
      <point x="318" y="38" type="line"/>
      <point x="266" y="38"/>
      <point x="227" y="33"/>
      <point x="204" y="55" type="curve" smooth="yes"/>
      <point x="195" y="63"/>
      <point x="190" y="74"/>
      <point x="190" y="91" type="curve" smooth="yes"/>
      <point x="190" y="189"/>
      <point x="190" y="476"/>
      <point x="191" y="574" type="curve"/>
      <point x="237" y="577"/>
      <point x="269" y="578"/>
      <point x="315" y="578" type="curve"/>
      <point x="331" y="619" type="line"/>
      <point x="250" y="618"/>
      <point x="188" y="616"/>
      <point x="148" y="616" type="curve"/>
      <point x="102" y="616"/>
      <point x="49" y="616"/>
      <point x="18" y="616" type="curve"/>
      <point x="18" y="590" type="line"/>
      <point x="56" y="583"/>
      <point x="79" y="582"/>
      <point x="92" y="572" type="curve" smooth="yes"/>
      <point x="103" y="565"/>
      <point x="107" y="552"/>
      <point x="107" y="525" type="curve" smooth="yes"/>
      <point x="108" y="411"/>
      <point x="109" y="323"/>
      <point x="109" y="312" type="curve" smooth="yes"/>
      <point x="109" y="302"/>
      <point x="108" y="210"/>
      <point x="107" y="91" type="curve" smooth="yes"/>
      <point x="107" y="66"/>
      <point x="102" y="52"/>
      <point x="92" y="43" type="curve" smooth="yes"/>
      <point x="78" y="31"/>
      <point x="53" y="30"/>
    </contour>
    <contour>
      <point x="318" y="38" type="curve"/>
      <point x="304" y="-3" type="line"/>
      <point x="505" y="-2"/>
      <point x="648" y="135"/>
      <point x="648" y="327" type="curve" smooth="yes"/>
      <point x="648" y="498"/>
      <point x="517" y="619"/>
      <point x="331" y="619" type="curve"/>
      <point x="315" y="578" type="line"/>
      <point x="456" y="578"/>
      <point x="555" y="462"/>
      <point x="555" y="298" type="curve" smooth="yes"/>
      <point x="555" y="146"/>
      <point x="457" y="38"/>
    </contour>
  </outline>
</glyph>
<glyph name="G" format="2">
  <advance width="720"/>
  <unicode hex="0047"/>
  <anchor x="404" y="0" name="bottom"/>
  <anchor x="410" y="616" name="top"/>
  <outline>
    <contour>
      <point x="404" y="-11" type="curve" smooth="yes"/>
      <point x="488" y="-11"/>
      <point x="589" y="11"/>
      <point x="644" y="43" type="curve"/>
      <point x="640" y="56" type="line"/>
      <point x="622" y="57"/>
      <point x="612" y="67"/>
      <point x="612" y="79" type="curve"/>
      <point x="612" y="200" type="line"/>
      <point x="612" y="225"/>
      <point x="625" y="247"/>
      <point x="648" y="252" type="curve"/>
      <point x="684" y="258" type="line"/>
      <point x="684" y="287" type="line"/>
      <point x="432" y="287" type="line"/>
      <point x="432" y="253" type="line"/>
      <point x="485" y="244"/>
      <point x="529" y="225"/>
      <point x="529" y="188" type="curve"/>
      <point x="529" y="76" type="line"/>
      <point x="529" y="55"/>
      <point x="494" y="33"/>
      <point x="449" y="33" type="curve" smooth="yes"/>
      <point x="267" y="33"/>
      <point x="149" y="141"/>
      <point x="149" y="333" type="curve" smooth="yes"/>
      <point x="149" y="482"/>
      <point x="263" y="588"/>
      <point x="418" y="588" type="curve" smooth="yes"/>
      <point x="514" y="588"/>
      <point x="584" y="528"/>
      <point x="589" y="444" type="curve"/>
      <point x="620" y="444" type="line"/>
      <point x="622" y="495"/>
      <point x="629" y="558"/>
      <point x="636" y="595" type="curve"/>
      <point x="586" y="614"/>
      <point x="492" y="627"/>
      <point x="410" y="627" type="curve" smooth="yes"/>
      <point x="205" y="627"/>
      <point x="54" y="495"/>
      <point x="54" y="308" type="curve" smooth="yes"/>
      <point x="54" y="121"/>
      <point x="203" y="-11"/>
    </contour>
  </outline>
</glyph>
<glyph name="J" format="2">
  <advance width="271"/>
  <unicode hex="004A"/>
  <anchor x="135" y="0" name="bottom"/>
  <anchor x="142" y="616" name="top"/>
  <outline>
    <contour>
      <point x="-4" y="-232" type="curve" smooth="yes"/>
      <point x="30" y="-232"/>
      <point x="85" y="-190"/>
      <point x="103" y="-164" type="curve" smooth="yes"/>
      <point x="150" y="-96"/>
      <point x="183" y="29"/>
      <point x="181" y="148" type="curve" smooth="yes"/>
      <point x="179" y="341"/>
      <point x="179" y="332"/>
      <point x="181" y="525" type="curve" smooth="yes"/>
      <point x="181" y="555"/>
      <point x="186" y="569"/>
      <point x="199" y="577" type="curve" smooth="yes"/>
      <point x="213" y="584"/>
      <point x="236" y="585"/>
      <point x="270" y="591" type="curve"/>
      <point x="270" y="616" type="line"/>
      <point x="18" y="616" type="line"/>
      <point x="18" y="591" type="line"/>
      <point x="53" y="587"/>
      <point x="77" y="586"/>
      <point x="92" y="574" type="curve" smooth="yes"/>
      <point x="103" y="565"/>
      <point x="108" y="551"/>
      <point x="108" y="525" type="curve" smooth="yes"/>
      <point x="108" y="81" type="line" smooth="yes"/>
      <point x="108" y="33"/>
      <point x="108" y="-90"/>
      <point x="77" y="-138" type="curve" smooth="yes"/>
      <point x="70" y="-150"/>
      <point x="60" y="-157"/>
      <point x="48" y="-157" type="curve" smooth="yes"/>
      <point x="29" y="-158"/>
      <point x="27" y="-135"/>
      <point x="8" y="-134" type="curve" smooth="yes"/>
      <point x="-25" y="-134"/>
      <point x="-48" y="-163"/>
      <point x="-48" y="-205" type="curve" smooth="yes"/>
      <point x="-48" y="-220"/>
      <point x="-30" y="-232"/>
    </contour>
  </outline>
</glyph>
<glyph name="K" format="2">
  <advance width="630"/>
  <unicode hex="004B"/>
  <anchor x="333" y="0" name="bottom"/>
  <anchor x="311" y="616" name="top"/>
  <outline>
    <contour>
      <point x="18" y="25" type="curve"/>
      <point x="18" y="0" type="line"/>
      <point x="270" y="0" type="line"/>
      <point x="270" y="18" type="line"/>
      <point x="235" y="27"/>
      <point x="215" y="29"/>
      <point x="204" y="36" type="curve" smooth="yes"/>
      <point x="192" y="44"/>
      <point x="184" y="58"/>
      <point x="184" y="91" type="curve" smooth="yes"/>
      <point x="183" y="156"/>
      <point x="184" y="424"/>
      <point x="185" y="525" type="curve" smooth="yes"/>
      <point x="185" y="556"/>
      <point x="191" y="572"/>
      <point x="204" y="581" type="curve" smooth="yes"/>
      <point x="217" y="590"/>
      <point x="238" y="594"/>
      <point x="270" y="598" type="curve"/>
      <point x="270" y="616" type="line"/>
      <point x="18" y="616" type="line"/>
      <point x="18" y="592" type="line"/>
      <point x="69" y="585"/>
      <point x="92" y="583"/>
      <point x="101" y="565" type="curve" smooth="yes"/>
      <point x="105" y="556"/>
      <point x="107" y="543"/>
      <point x="107" y="525" type="curve" smooth="yes"/>
      <point x="109" y="382"/>
      <point x="109" y="234"/>
      <point x="107" y="91" type="curve" smooth="yes"/>
      <point x="107" y="66"/>
      <point x="102" y="52"/>
      <point x="92" y="44" type="curve" smooth="yes"/>
      <point x="78" y="33"/>
      <point x="54" y="33"/>
    </contour>
    <contour>
      <point x="161" y="240" type="line"/>
      <point x="417" y="503" type="line"/>
      <point x="453" y="540"/>
      <point x="498" y="574"/>
      <point x="526" y="586" type="curve" smooth="yes"/>
      <point x="540" y="592"/>
      <point x="570" y="597"/>
      <point x="576" y="598" type="curve"/>
      <point x="576" y="616" type="line"/>
      <point x="342" y="616" type="line"/>
      <point x="342" y="598" type="line"/>
      <point x="366" y="593"/>
      <point x="390" y="580"/>
      <point x="390" y="557" type="curve" smooth="yes"/>
      <point x="390" y="543"/>
      <point x="381" y="526"/>
      <point x="363" y="505" type="curve"/>
      <point x="138" y="267" type="line"/>
    </contour>
    <contour>
      <point x="630" y="0" type="line"/>
      <point x="630" y="18" type="line"/>
      <point x="567" y="34"/>
      <point x="535" y="48"/>
      <point x="485" y="99" type="curve"/>
      <point x="250" y="362" type="line"/>
      <point x="193" y="301" type="line"/>
      <point x="265" y="217"/>
      <point x="393" y="72"/>
      <point x="422" y="40" type="curve" smooth="yes"/>
      <point x="451" y="8"/>
      <point x="477" y="-4"/>
      <point x="520" y="-3" type="curve" smooth="yes"/>
    </contour>
  </outline>
</glyph>
<glyph name="L" format="2">
  <advance width="612"/>
  <unicode hex="004C"/>
  <anchor x="301" y="0" name="bottom"/>
  <anchor x="306" y="308" name="center"/>
  <anchor x="152" y="616" name="top"/>
  <anchor x="269" y="616" name="topright"/>
  <outline>
    <contour>
      <point x="18" y="23" type="curve"/>
      <point x="18" y="-3" type="line"/>
      <point x="108" y="-1"/>
      <point x="188" y="0"/>
      <point x="268" y="0" type="curve"/>
      <point x="268" y="41" type="line"/>
      <point x="206" y="43"/>
      <point x="189" y="43"/>
      <point x="189" y="105" type="curve" smooth="yes"/>
      <point x="187" y="234"/>
      <point x="186" y="318"/>
      <point x="189" y="517" type="curve" smooth="yes"/>
      <point x="189" y="553"/>
      <point x="191" y="567"/>
      <point x="212" y="577" type="curve" smooth="yes"/>
      <point x="223" y="582"/>
      <point x="241" y="585"/>
      <point x="270" y="588" type="curve"/>
      <point x="270" y="616" type="line"/>
      <point x="20" y="616" type="line"/>
      <point x="20" y="592" type="line"/>
      <point x="55" y="587"/>
      <point x="78" y="585"/>
      <point x="91" y="576" type="curve" smooth="yes"/>
      <point x="102" y="568"/>
      <point x="106" y="554"/>
      <point x="107" y="525" type="curve" smooth="yes"/>
      <point x="110" y="382"/>
      <point x="109" y="234"/>
      <point x="106" y="91" type="curve" smooth="yes"/>
      <point x="105" y="63"/>
      <point x="102" y="49"/>
      <point x="92" y="40" type="curve" smooth="yes"/>
      <point x="79" y="30"/>
      <point x="57" y="29"/>
    </contour>
    <contour>
      <point x="268" y="0" type="line"/>
      <point x="330" y="2"/>
      <point x="441" y="1"/>
      <point x="510" y="-3" type="curve"/>
      <point x="546" y="102"/>
      <point x="576" y="177"/>
      <point x="576" y="177" type="curve"/>
      <point x="549" y="189" type="line"/>
      <point x="508" y="98"/>
      <point x="428" y="47"/>
      <point x="356" y="45" type="curve"/>
      <point x="312" y="44"/>
      <point x="289" y="41"/>
      <point x="268" y="41" type="curve"/>
    </contour>
  </outline>
</glyph>
<glyph name="M" format="2">
  <advance width="867"/>
  <unicode hex="004D"/>
  <anchor x="414" y="46" name="bottom"/>
  <anchor x="427" y="616" name="top"/>
  <outline>
    <contour>
      <point x="406" y="-16" type="line"/>
      <point x="703" y="586" type="line"/>
      <point x="673" y="616" type="line"/>
      <point x="420" y="107" type="line"/>
      <point x="438" y="117" type="line"/>
      <point x="214" y="616" type="line"/>
      <point x="37" y="616" type="line"/>
      <point x="37" y="591" type="line"/>
      <point x="85" y="587" type="line" smooth="yes"/>
      <point x="114" y="584"/>
      <point x="144" y="565"/>
      <point x="155" y="540" type="curve" smooth="yes"/>
    </contour>
    <contour>
      <point x="19" y="0" type="line"/>
      <point x="253" y="0" type="line"/>
      <point x="253" y="25" type="line"/>
      <point x="217" y="33"/>
      <point x="169" y="40"/>
      <point x="158" y="52" type="curve" smooth="yes"/>
      <point x="149" y="63"/>
      <point x="144" y="79"/>
      <point x="145" y="105" type="curve" smooth="yes"/>
      <point x="165" y="561" type="line"/>
      <point x="125" y="591" type="line"/>
      <point x="105" y="105" type="line" smooth="yes"/>
      <point x="104" y="78"/>
      <point x="99" y="60"/>
      <point x="90" y="51" type="curve" smooth="yes"/>
      <point x="79" y="39"/>
      <point x="42" y="33"/>
      <point x="19" y="25" type="curve"/>
    </contour>
    <contour>
      <point x="595" y="0" type="line"/>
      <point x="847" y="0" type="line"/>
      <point x="847" y="25" type="line"/>
      <point x="807" y="33"/>
      <point x="783" y="41"/>
      <point x="773" y="51" type="curve" smooth="yes"/>
      <point x="759" y="65"/>
      <point x="760" y="82"/>
      <point x="760" y="104" type="curve" smooth="yes"/>
      <point x="758" y="216"/>
      <point x="756" y="401"/>
      <point x="756" y="529" type="curve" smooth="yes"/>
      <point x="756" y="544"/>
      <point x="760" y="556"/>
      <point x="769" y="566" type="curve" smooth="yes"/>
      <point x="781" y="578"/>
      <point x="799" y="586"/>
      <point x="829" y="591" type="curve"/>
      <point x="829" y="616" type="line"/>
      <point x="673" y="616" type="line"/>
      <point x="680" y="104" type="line" smooth="yes"/>
      <point x="680" y="80"/>
      <point x="680" y="63"/>
      <point x="667" y="50" type="curve" smooth="yes"/>
      <point x="651" y="34"/>
      <point x="614" y="27"/>
      <point x="595" y="25" type="curve"/>
    </contour>
  </outline>
</glyph>
<glyph name="N" format="2">
  <advance width="738"/>
  <unicode hex="004E"/>
  <anchor x="369" y="0" name="bottom"/>
  <anchor x="357" y="616" name="top"/>
  <outline>
    <contour>
      <point x="622" y="-11" type="line"/>
      <point x="648" y="-11" type="line"/>
      <point x="648" y="157"/>
      <point x="648" y="443"/>
      <point x="648" y="512" type="curve"/>
      <point x="608" y="512" type="line"/>
      <point x="608" y="97" type="line"/>
      <point x="629" y="106" type="line"/>
      <point x="150" y="616" type="line"/>
      <point x="18" y="616" type="line"/>
      <point x="18" y="591" type="line"/>
      <point x="41" y="587"/>
      <point x="62" y="579"/>
      <point x="76" y="566" type="curve" smooth="yes"/>
      <point x="95" y="548"/>
      <point x="129" y="514"/>
      <point x="129" y="514" type="curve"/>
    </contour>
    <contour>
      <point x="18" y="0" type="line"/>
      <point x="252" y="0" type="line"/>
      <point x="252" y="25" type="line"/>
      <point x="216" y="28"/>
      <point x="175" y="35"/>
      <point x="161" y="52" type="curve" smooth="yes"/>
      <point x="148" y="68"/>
      <point x="148" y="78"/>
      <point x="148" y="104" type="curve"/>
      <point x="108" y="104" type="line"/>
      <point x="108" y="77"/>
      <point x="107" y="65"/>
      <point x="93" y="51" type="curve" smooth="yes"/>
      <point x="76" y="34"/>
      <point x="39" y="33"/>
      <point x="18" y="25" type="curve"/>
    </contour>
    <contour>
      <point x="108" y="104" type="line"/>
      <point x="148" y="104" type="line"/>
      <point x="148" y="561" type="line"/>
      <point x="108" y="591" type="line"/>
    </contour>
    <contour>
      <point x="608" y="512" type="curve"/>
      <point x="648" y="512" type="line"/>
      <point x="648" y="542"/>
      <point x="653" y="558"/>
      <point x="665" y="567" type="curve" smooth="yes"/>
      <point x="677" y="577"/>
      <point x="697" y="581"/>
      <point x="720" y="588" type="curve"/>
      <point x="720" y="616" type="line"/>
      <point x="504" y="616" type="line"/>
      <point x="504" y="591" type="line"/>
      <point x="550" y="584"/>
      <point x="577" y="582"/>
      <point x="592" y="568" type="curve" smooth="yes"/>
      <point x="603" y="557"/>
      <point x="608" y="541"/>
    </contour>
  </outline>
</glyph>
<glyph name="O" format="2">
  <advance width="756"/>
  <unicode hex="004F"/>
  <anchor x="378" y="0" name="bottom"/>
  <anchor x="378" y="308" name="center"/>
  <anchor x="528" y="10" name="ogonek"/>
  <anchor x="369" y="616" name="top"/>
  <anchor x="20" y="616" name="topleft"/>
  <anchor x="574" y="485" name="topright"/>
  <outline>
    <contour>
      <point x="375" y="-11" type="curve" smooth="yes"/>
      <point x="570" y="-11"/>
      <point x="702" y="121"/>
      <point x="702" y="308" type="curve" smooth="yes"/>
      <point x="702" y="494"/>
      <point x="570" y="626"/>
      <point x="375" y="626" type="curve" smooth="yes"/>
      <point x="192" y="626"/>
      <point x="54" y="494"/>
      <point x="54" y="308" type="curve" smooth="yes"/>
      <point x="54" y="121"/>
      <point x="192" y="-11"/>
    </contour>
    <contour>
      <point x="150" y="318" type="curve" smooth="yes"/>
      <point x="150" y="474"/>
      <point x="241" y="585"/>
      <point x="358" y="585" type="curve" smooth="yes"/>
      <point x="507" y="585"/>
      <point x="606" y="466"/>
      <point x="606" y="298" type="curve" smooth="yes"/>
      <point x="606" y="141"/>
      <point x="521" y="30"/>
      <point x="392" y="30" type="curve" smooth="yes"/>
      <point x="256" y="30"/>
      <point x="150" y="149"/>
    </contour>
  </outline>
</glyph>
<glyph name="P" format="2">
  <advance width="504"/>
  <unicode hex="0050"/>
  <anchor x="252" y="0" name="bottom"/>
  <anchor x="214" y="616" name="top"/>
  <outline>
    <contour>
      <point x="220" y="272" type="line"/>
      <point x="231" y="271"/>
      <point x="241" y="271"/>
      <point x="251" y="271" type="curve" smooth="yes"/>
      <point x="380" y="271"/>
      <point x="468" y="337"/>
      <point x="468" y="448" type="curve" smooth="yes"/>
      <point x="468" y="552"/>
      <point x="391" y="620"/>
      <point x="279" y="618" type="curve"/>
      <point x="260" y="584" type="line"/>
      <point x="334" y="584"/>
      <point x="382" y="528"/>
      <point x="382" y="436" type="curve" smooth="yes"/>
      <point x="382" y="346"/>
      <point x="319" y="295"/>
      <point x="220" y="295" type="curve"/>
    </contour>
    <contour>
      <point x="18" y="0" type="line"/>
      <point x="288" y="0" type="line"/>
      <point x="288" y="25" type="line"/>
      <point x="237" y="36"/>
      <point x="216" y="39"/>
      <point x="204" y="51" type="curve" smooth="yes"/>
      <point x="194" y="61"/>
      <point x="191" y="78"/>
      <point x="190" y="111" type="curve" smooth="yes"/>
      <point x="188" y="188"/>
      <point x="188" y="379"/>
      <point x="191" y="583" type="curve"/>
      <point x="260" y="584" type="line"/>
      <point x="279" y="618" type="line"/>
      <point x="240" y="617"/>
      <point x="179" y="616"/>
      <point x="147" y="616" type="curve"/>
      <point x="108" y="616"/>
      <point x="43" y="617"/>
      <point x="0" y="618" type="curve"/>
      <point x="0" y="587" type="line"/>
      <point x="45" y="580"/>
      <point x="75" y="576"/>
      <point x="92" y="556" type="curve" smooth="yes"/>
      <point x="102" y="545"/>
      <point x="107" y="531"/>
      <point x="107" y="507" type="curve" smooth="yes"/>
      <point x="109" y="369"/>
      <point x="109" y="235"/>
      <point x="107" y="101" type="curve" smooth="yes"/>
      <point x="107" y="75"/>
      <point x="103" y="60"/>
      <point x="94" y="49" type="curve" smooth="yes"/>
      <point x="83" y="35"/>
      <point x="41" y="30"/>
      <point x="18" y="25" type="curve"/>
    </contour>
  </outline>
</glyph>
<glyph name="Q" format="2">
  <advance width="756"/>
  <unicode hex="0051"/>
  <anchor x="378" y="0" name="bottom"/>
  <anchor x="378" y="616" name="top"/>
  <outline>
    <contour>
      <point x="381" y="-11" type="curve" smooth="yes"/>
      <point x="569" y="-11"/>
      <point x="702" y="121"/>
      <point x="702" y="308" type="curve" smooth="yes"/>
      <point x="702" y="494"/>
      <point x="569" y="626"/>
      <point x="381" y="626" type="curve" smooth="yes"/>
      <point x="189" y="626"/>
      <point x="54" y="494"/>
      <point x="54" y="308" type="curve" smooth="yes"/>
      <point x="54" y="121"/>
      <point x="189" y="-11"/>
    </contour>
    <contour>
      <point x="150" y="318" type="curve" smooth="yes"/>
      <point x="150" y="474"/>
      <point x="236" y="584"/>
      <point x="358" y="584" type="curve" smooth="yes"/>
      <point x="503" y="584"/>
      <point x="606" y="466"/>
      <point x="606" y="298" type="curve" smooth="yes"/>
      <point x="606" y="141"/>
      <point x="520" y="30"/>
      <point x="398" y="30" type="curve" smooth="yes"/>
      <point x="253" y="30"/>
      <point x="150" y="149"/>
    </contour>
    <contour>
      <point x="813" y="-232" type="curve" smooth="yes"/>
      <point x="939" y="-232"/>
      <point x="1057" y="-202"/>
      <point x="1131" y="-153" type="curve"/>
      <point x="1120" y="-133" type="line"/>
      <point x="1046" y="-163"/>
      <point x="957" y="-179"/>
      <point x="869" y="-179" type="curve" smooth="yes"/>
      <point x="703" y="-179"/>
      <point x="537" y="-98"/>
      <point x="458" y="29" type="curve"/>
      <point x="331" y="11" type="line"/>
      <point x="430" y="-144"/>
      <point x="630" y="-232"/>
    </contour>
  </outline>
</glyph>
<glyph name="R" format="2">
  <advance width="630"/>
  <unicode hex="0052"/>
  <anchor x="371" y="0" name="bottom"/>
  <anchor x="214" y="616" name="top"/>
  <outline>
    <contour>
      <point x="180" y="282" type="line"/>
      <point x="345" y="282"/>
      <point x="462" y="354"/>
      <point x="462" y="458" type="curve" smooth="yes"/>
      <point x="462" y="550"/>
      <point x="379" y="620"/>
      <point x="271" y="618" type="curve"/>
      <point x="252" y="576" type="line"/>
      <point x="322" y="576"/>
      <point x="376" y="526"/>
      <point x="376" y="446" type="curve" smooth="yes"/>
      <point x="376" y="362"/>
      <point x="296" y="322"/>
      <point x="180" y="322" type="curve"/>
    </contour>
    <contour>
      <point x="18" y="0" type="line"/>
      <point x="288" y="0" type="line"/>
      <point x="288" y="27" type="line"/>
      <point x="249" y="31"/>
      <point x="211" y="41"/>
      <point x="200" y="53" type="curve" smooth="yes"/>
      <point x="190" y="63"/>
      <point x="188" y="79"/>
      <point x="188" y="106" type="curve" smooth="yes"/>
      <point x="188" y="374"/>
      <point x="187" y="454"/>
      <point x="191" y="574" type="curve"/>
      <point x="252" y="576" type="line"/>
      <point x="271" y="618" type="line"/>
      <point x="222" y="617"/>
      <point x="194" y="616"/>
      <point x="145" y="616" type="curve"/>
      <point x="106" y="615"/>
      <point x="65" y="617"/>
      <point x="19" y="618" type="curve"/>
      <point x="19" y="592" type="line"/>
      <point x="54" y="585"/>
      <point x="85" y="579"/>
      <point x="96" y="567" type="curve" smooth="yes"/>
      <point x="105" y="556"/>
      <point x="107" y="538"/>
      <point x="107" y="512" type="curve" smooth="yes"/>
      <point x="109" y="376"/>
      <point x="109" y="238"/>
      <point x="107" y="104" type="curve" smooth="yes"/>
      <point x="107" y="69"/>
      <point x="103" y="53"/>
      <point x="92" y="44" type="curve" smooth="yes"/>
      <point x="80" y="34"/>
      <point x="60" y="32"/>
      <point x="18" y="25" type="curve"/>
    </contour>
    <contour>
      <point x="630" y="0" type="line"/>
      <point x="630" y="18" type="line"/>
      <point x="558" y="26"/>
      <point x="436" y="156"/>
      <point x="340" y="337" type="curve"/>
      <point x="264" y="305" type="line"/>
      <point x="349" y="123"/>
      <point x="456" y="-5"/>
      <point x="528" y="-3" type="curve" smooth="yes"/>
    </contour>
  </outline>
</glyph>
<glyph name="S" format="2">
  <advance width="487"/>
  <unicode hex="0053"/>
  <anchor x="216" y="0" name="bottom"/>
  <anchor x="241" y="616" name="top"/>
  <outline>
    <contour>
      <point x="217" y="-9" type="curve" smooth="yes"/>
      <point x="344" y="-9"/>
      <point x="433" y="69"/>
      <point x="433" y="176" type="curve" smooth="yes"/>
      <point x="433" y="341"/>
      <point x="123" y="354"/>
      <point x="126" y="492" type="curve" smooth="yes"/>
      <point x="127" y="545"/>
      <point x="173" y="581"/>
      <point x="241" y="581" type="curve" smooth="yes"/>
      <point x="316" y="581"/>
      <point x="363" y="517"/>
      <point x="357" y="453" type="curve"/>
      <point x="396" y="453" type="line"/>
      <point x="395" y="508"/>
      <point x="396" y="576"/>
      <point x="400" y="593" type="curve"/>
      <point x="350" y="611"/>
      <point x="282" y="624"/>
      <point x="241" y="624" type="curve" smooth="yes"/>
      <point x="128" y="624"/>
      <point x="55" y="550"/>
      <point x="55" y="446" type="curve" smooth="yes"/>
      <point x="55" y="272"/>
      <point x="359" y="279"/>
      <point x="359" y="136" type="curve" smooth="yes"/>
      <point x="359" y="75"/>
      <point x="298" y="33"/>
      <point x="217" y="35" type="curve" smooth="yes"/>
      <point x="142" y="37"/>
      <point x="93" y="104"/>
      <point x="95" y="197" type="curve"/>
      <point x="54" y="197" type="line"/>
      <point x="57" y="171"/>
      <point x="58" y="104"/>
      <point x="57" y="36" type="curve"/>
      <point x="122" y="10"/>
      <point x="188" y="-9"/>
    </contour>
  </outline>
</glyph>
<glyph name="U" format="2">
  <advance width="683"/>
  <unicode hex="0055"/>
  <anchor x="342" y="0" name="bottom"/>
  <anchor x="482" y="10" name="ogonek"/>
  <anchor x="360" y="616" name="top"/>
  <anchor x="610" y="544" name="topright"/>
  <outline>
    <contour>
      <point x="339" y="-11" type="curve" smooth="yes"/>
      <point x="486" y="-11"/>
      <point x="592" y="78"/>
      <point x="594" y="204" type="curve" smooth="yes"/>
      <point x="596" y="339"/>
      <point x="593" y="431"/>
      <point x="594" y="514" type="curve" smooth="yes"/>
      <point x="595" y="578"/>
      <point x="618" y="588"/>
      <point x="666" y="588" type="curve"/>
      <point x="666" y="616" type="line"/>
      <point x="468" y="616" type="line"/>
      <point x="468" y="592" type="line"/>
      <point x="519" y="582"/>
      <point x="551" y="553"/>
      <point x="552" y="481" type="curve" smooth="yes"/>
      <point x="553" y="387"/>
      <point x="554" y="303"/>
      <point x="552" y="208" type="curve" smooth="yes"/>
      <point x="550" y="111"/>
      <point x="474" y="42"/>
      <point x="368" y="42" type="curve" smooth="yes"/>
      <point x="270" y="42"/>
      <point x="189" y="102"/>
      <point x="173" y="188" type="curve" smooth="yes"/>
      <point x="171" y="197"/>
      <point x="170" y="327"/>
      <point x="170" y="503" type="curve" smooth="yes"/>
      <point x="170" y="570"/>
      <point x="203" y="588"/>
      <point x="252" y="592" type="curve"/>
      <point x="252" y="616" type="line"/>
      <point x="18" y="616" type="line"/>
      <point x="18" y="585" type="line"/>
      <point x="48" y="579"/>
      <point x="90" y="567"/>
      <point x="90" y="511" type="curve" smooth="yes"/>
      <point x="90" y="486"/>
      <point x="90" y="367"/>
      <point x="90" y="202" type="curve" smooth="yes"/>
      <point x="90" y="77"/>
      <point x="193" y="-11"/>
    </contour>
  </outline>
</glyph>
<glyph name="X" format="2">
  <advance width="630"/>
  <unicode hex="0058"/>
  <anchor x="315" y="0" name="bottom"/>
  <anchor x="340" y="616" name="top"/>
  <outline>
    <contour>
      <point x="354" y="0" type="line"/>
      <point x="612" y="0" type="line"/>
      <point x="612" y="28" type="line"/>
      <point x="571" y="33"/>
      <point x="567" y="26"/>
      <point x="505" y="114" type="curve" smooth="yes"/>
      <point x="338" y="351"/>
      <point x="342" y="351"/>
      <point x="222" y="512" type="curve" smooth="yes"/>
      <point x="201" y="541"/>
      <point x="194" y="555"/>
      <point x="194" y="566" type="curve" smooth="yes"/>
      <point x="194" y="581"/>
      <point x="209" y="586"/>
      <point x="260" y="591" type="curve"/>
      <point x="260" y="616" type="line"/>
      <point x="18" y="616" type="line"/>
      <point x="18" y="588" type="line"/>
      <point x="52" y="588"/>
      <point x="68" y="587"/>
      <point x="133" y="494" type="curve" smooth="yes"/>
      <point x="279" y="286"/>
      <point x="285" y="286"/>
      <point x="410" y="105" type="curve" smooth="yes"/>
      <point x="430" y="76"/>
      <point x="441" y="58"/>
      <point x="441" y="47" type="curve" smooth="yes"/>
      <point x="441" y="30"/>
      <point x="417" y="29"/>
      <point x="354" y="25" type="curve"/>
    </contour>
    <contour>
      <point x="18" y="0" type="line"/>
      <point x="216" y="0" type="line"/>
      <point x="216" y="25" type="line"/>
      <point x="184" y="28"/>
      <point x="162" y="32"/>
      <point x="162" y="54" type="curve" smooth="yes"/>
      <point x="162" y="67"/>
      <point x="168" y="80"/>
      <point x="191" y="112" type="curve" smooth="yes"/>
      <point x="329" y="308" type="line"/>
      <point x="295" y="333" type="line"/>
      <point x="125" y="101" type="line" smooth="yes"/>
      <point x="63" y="17"/>
      <point x="49" y="30"/>
      <point x="18" y="28" type="curve"/>
    </contour>
    <contour>
      <point x="340" y="315" type="line"/>
      <point x="488" y="504" type="line" smooth="yes"/>
      <point x="549" y="582"/>
      <point x="574" y="585"/>
      <point x="612" y="588" type="curve"/>
      <point x="612" y="616" type="line"/>
      <point x="414" y="616" type="line"/>
      <point x="414" y="591" type="line"/>
      <point x="441" y="588"/>
      <point x="459" y="586"/>
      <point x="459" y="567" type="curve" smooth="yes"/>
      <point x="459" y="550"/>
      <point x="442" y="517"/>
      <point x="400" y="463" type="curve" smooth="yes"/>
      <point x="305" y="340" type="line"/>
    </contour>
  </outline>
</glyph>
<glyph name="Y" format="2">
  <advance width="540"/>
  <unicode hex="0059"/>
  <anchor x="270" y="0" name="bottom"/>
  <anchor x="281" y="616" name="top"/>
  <anchor x="20" y="616" name="topleft"/>
  <outline>
    <contour>
      <point x="123" y="0" type="line"/>
      <point x="429" y="0" type="line"/>
      <point x="429" y="28" type="line"/>
      <point x="358" y="33"/>
      <point x="313" y="30"/>
      <point x="313" y="93" type="curve" smooth="yes"/>
      <point x="313" y="318" type="line"/>
      <point x="299" y="257" type="line"/>
      <point x="445" y="509" type="line" smooth="yes"/>
      <point x="491" y="588"/>
      <point x="527" y="588"/>
      <point x="540" y="588" type="curve"/>
      <point x="540" y="616" type="line"/>
      <point x="342" y="616" type="line"/>
      <point x="342" y="591" type="line"/>
      <point x="414" y="581"/>
      <point x="429" y="565"/>
      <point x="397" y="505" type="curve"/>
      <point x="281" y="306" type="line"/>
      <point x="295" y="307" type="line"/>
      <point x="176" y="525" type="line"/>
      <point x="147" y="586"/>
      <point x="148" y="585"/>
      <point x="216" y="591" type="curve"/>
      <point x="216" y="616" type="line"/>
      <point x="0" y="616" type="line"/>
      <point x="0" y="588" type="line"/>
      <point x="35" y="588"/>
      <point x="56" y="581"/>
      <point x="69" y="556" type="curve" smooth="yes"/>
      <point x="238" y="243" type="line"/>
      <point x="232" y="293" type="line"/>
      <point x="232" y="93" type="line" smooth="yes"/>
      <point x="232" y="38"/>
      <point x="169" y="33"/>
      <point x="123" y="28" type="curve"/>
    </contour>
  </outline>
</glyph>
<glyph name="bracketleft" format="2">
  <advance width="306"/>
  <unicode hex="005B"/>
  <outline>
    <contour>
      <point x="169" y="656" type="line"/>
      <point x="288" y="656" type="line"/>
      <point x="288" y="692" type="line"/>
      <point x="97" y="692" type="line"/>
      <point x="112" y="416"/>
      <point x="112" y="140"/>
      <point x="97" y="-136" type="curve"/>
      <point x="288" y="-136" type="line"/>
      <point x="288" y="-100" type="line"/>
      <point x="169" y="-100" type="line"/>
    </contour>
  </outline>
</glyph>
<glyph name="backslash" format="2">
  <advance width="378"/>
  <unicode hex="005C"/>
  <outline>
    <contour>
      <point x="295" y="-102" type="line"/>
      <point x="342" y="-85" type="line"/>
      <point x="84" y="751" type="line"/>
      <point x="36" y="736" type="line"/>
    </contour>
  </outline>
</glyph>
<glyph name="bracketright" format="2">
  <advance width="306"/>
  <unicode hex="005D"/>
  <outline>
    <contour>
      <point x="137" y="656" type="line"/>
      <point x="137" y="-100" type="line"/>
      <point x="18" y="-100" type="line"/>
      <point x="18" y="-136" type="line"/>
      <point x="209" y="-136" type="line"/>
      <point x="194" y="140"/>
      <point x="194" y="416"/>
      <point x="209" y="692" type="curve"/>
      <point x="18" y="692" type="line"/>
      <point x="18" y="656" type="line"/>
    </contour>
  </outline>
</glyph>
<glyph name="asciicircum" format="2">
  <advance width="432"/>
  <unicode hex="005E"/>
  <outline>
    <contour>
      <point x="101" y="327" type="line"/>
      <point x="216" y="538" type="line"/>
      <point x="331" y="327" type="line"/>
      <point x="378" y="345" type="line"/>
      <point x="232" y="616" type="line"/>
      <point x="200" y="616" type="line"/>
      <point x="54" y="345" type="line"/>
    </contour>
  </outline>
</glyph>
<glyph name="a" format="2">
  <advance width="396"/>
  <unicode hex="0061"/>
  <anchor x="198" y="0" name="bottom"/>
  <anchor x="356" y="10" name="ogonek"/>
  <anchor x="215" y="385" name="top"/>
  <outline>
    <contour>
      <point x="317" y="-6" type="curve" smooth="yes"/>
      <point x="326" y="-6"/>
      <point x="359" y="8"/>
      <point x="398" y="27" type="curve"/>
      <point x="396" y="40" type="line"/>
      <point x="364" y="41" type="line" smooth="yes"/>
      <point x="339" y="42"/>
      <point x="321" y="60"/>
      <point x="321" y="84" type="curve" smooth="yes"/>
      <point x="321" y="51"/>
      <point x="323" y="133"/>
      <point x="325" y="290" type="curve"/>
      <point x="325" y="351"/>
      <point x="282" y="395"/>
      <point x="215" y="395" type="curve" smooth="yes"/>
      <point x="186" y="395"/>
      <point x="143" y="378"/>
      <point x="104" y="354" type="curve" smooth="yes"/>
      <point x="72" y="332"/>
      <point x="50" y="295"/>
      <point x="50" y="264" type="curve" smooth="yes"/>
      <point x="50" y="233"/>
      <point x="122" y="247"/>
      <point x="122" y="278" type="curve" smooth="yes"/>
      <point x="122" y="294"/>
      <point x="115" y="290"/>
      <point x="115" y="305" type="curve" smooth="yes"/>
      <point x="115" y="332"/>
      <point x="141" y="351"/>
      <point x="169" y="351" type="curve" smooth="yes"/>
      <point x="219" y="351"/>
      <point x="255" y="324"/>
      <point x="253" y="284" type="curve" smooth="yes"/>
      <point x="250" y="218" type="line"/>
      <point x="249" y="205"/>
      <point x="249" y="138"/>
      <point x="249" y="57" type="curve" smooth="yes"/>
      <point x="253" y="20"/>
      <point x="281" y="-6"/>
    </contour>
    <contour>
      <point x="119" y="-6" type="curve" smooth="yes"/>
      <point x="165" y="-6"/>
      <point x="230" y="24"/>
      <point x="270" y="66" type="curve"/>
      <point x="270" y="85" type="line"/>
      <point x="239" y="61"/>
      <point x="191" y="44"/>
      <point x="163" y="44" type="curve" smooth="yes"/>
      <point x="134" y="44"/>
      <point x="115" y="71"/>
      <point x="115" y="110" type="curve"/>
      <point x="36" y="94" type="line"/>
      <point x="36" y="35"/>
      <point x="67" y="-6"/>
    </contour>
    <contour>
      <point x="36" y="94" type="curve"/>
      <point x="115" y="110" type="line"/>
      <point x="115" y="131"/>
      <point x="186" y="158"/>
      <point x="281" y="175" type="curve"/>
      <point x="282" y="206" type="line"/>
      <point x="140" y="183"/>
      <point x="36" y="137"/>
    </contour>
  </outline>
</glyph>
<glyph name="b" format="2">
  <advance width="486"/>
  <unicode hex="0062"/>
  <anchor x="236" y="0" name="bottom"/>
  <anchor x="116" y="555" name="center"/>
  <anchor x="275" y="384" name="top"/>
  <outline>
    <contour>
      <point x="144" y="24" type="line"/>
      <point x="146" y="551" type="line"/>
      <point x="149" y="658" type="line"/>
      <point x="134" y="668" type="line"/>
      <point x="2" y="637" type="line"/>
      <point x="2" y="616" type="line"/>
      <point x="43" y="601"/>
      <point x="72" y="578"/>
      <point x="72" y="560" type="curve" smooth="yes"/>
      <point x="72" y="255"/>
      <point x="72" y="40"/>
      <point x="72" y="40" type="curve"/>
    </contour>
    <contour>
      <point x="450" y="221" type="curve"/>
      <point x="376" y="188" type="line"/>
      <point x="375" y="96"/>
      <point x="318" y="26"/>
      <point x="239" y="26" type="curve" smooth="yes"/>
      <point x="189" y="26"/>
      <point x="142" y="67"/>
      <point x="118" y="125" type="curve"/>
      <point x="72" y="40" type="line"/>
      <point x="109" y="10"/>
      <point x="166" y="-11"/>
      <point x="218" y="-11" type="curve" smooth="yes"/>
      <point x="354" y="-11"/>
      <point x="450" y="88"/>
    </contour>
    <contour>
      <point x="376" y="188" type="curve"/>
      <point x="450" y="221" type="line"/>
      <point x="450" y="326"/>
      <point x="377" y="395"/>
      <point x="275" y="395" type="curve" smooth="yes"/>
      <point x="222" y="395"/>
      <point x="157" y="360"/>
      <point x="108" y="310" type="curve"/>
      <point x="108" y="291" type="line"/>
      <point x="138" y="317"/>
      <point x="185" y="335"/>
      <point x="230" y="335" type="curve" smooth="yes"/>
      <point x="316" y="335"/>
      <point x="376" y="277"/>
    </contour>
  </outline>
</glyph>
<glyph name="c" format="2">
  <advance width="396"/>
  <unicode hex="0063"/>
  <anchor x="216" y="0" name="bottom"/>
  <anchor x="219" y="384" name="top"/>
  <outline>
    <contour>
      <point x="111" y="210" type="curve" smooth="yes"/>
      <point x="111" y="302"/>
      <point x="153" y="367"/>
      <point x="213" y="367" type="curve"/>
      <point x="227" y="395" type="line"/>
      <point x="115" y="395"/>
      <point x="36" y="309"/>
      <point x="36" y="188" type="curve" smooth="yes"/>
      <point x="36" y="71"/>
      <point x="111" y="-11"/>
      <point x="216" y="-11" type="curve" smooth="yes"/>
      <point x="287" y="-11"/>
      <point x="344" y="36"/>
      <point x="378" y="103" type="curve"/>
      <point x="360" y="116" type="line"/>
      <point x="332" y="79"/>
      <point x="291" y="52"/>
      <point x="237" y="52" type="curve" smooth="yes"/>
      <point x="163" y="52"/>
      <point x="111" y="117"/>
    </contour>
    <contour>
      <point x="227" y="395" type="curve"/>
      <point x="213" y="367" type="line"/>
      <point x="276" y="367"/>
      <point x="321" y="315"/>
      <point x="323" y="247" type="curve"/>
      <point x="357" y="247" type="line"/>
      <point x="355" y="296"/>
      <point x="356" y="349"/>
      <point x="360" y="371" type="curve"/>
      <point x="307" y="382"/>
      <point x="279" y="395"/>
    </contour>
  </outline>
</glyph>
<glyph name="d" format="2">
  <advance width="486"/>
  <unicode hex="0064"/>
  <anchor x="227" y="0" name="bottom"/>
  <anchor x="365" y="555" name="center"/>
  <anchor x="153" y="384" name="top"/>
  <anchor x="430" y="694" name="topright"/>
  <outline>
    <contour>
      <point x="113" y="220" type="curve"/>
      <point x="36" y="189" type="line"/>
      <point x="36" y="72"/>
      <point x="104" y="-11"/>
      <point x="199" y="-11" type="curve" smooth="yes"/>
      <point x="246" y="-11"/>
      <point x="317" y="22"/>
      <point x="374" y="69" type="curve"/>
      <point x="374" y="88" type="line"/>
      <point x="336" y="65"/>
      <point x="283" y="49"/>
      <point x="246" y="49" type="curve" smooth="yes"/>
      <point x="169" y="49"/>
      <point x="113" y="120"/>
    </contour>
    <contour>
      <point x="414" y="85" type="curve"/>
      <point x="342" y="58" type="line"/>
      <point x="343" y="58" type="line"/>
      <point x="342" y="-6" type="line"/>
      <point x="355" y="-12" type="line"/>
      <point x="486" y="21" type="line"/>
      <point x="486" y="42" type="line"/>
      <point x="432" y="57"/>
      <point x="414" y="75"/>
    </contour>
    <contour>
      <point x="36" y="189" type="curve"/>
      <point x="113" y="220" type="line"/>
      <point x="113" y="301"/>
      <point x="166" y="358"/>
      <point x="237" y="358" type="curve" smooth="yes"/>
      <point x="286" y="358"/>
      <point x="339" y="320"/>
      <point x="364" y="267" type="curve"/>
      <point x="390" y="356" type="line"/>
      <point x="358" y="379"/>
      <point x="304" y="395"/>
      <point x="258" y="395" type="curve" smooth="yes"/>
      <point x="129" y="395"/>
      <point x="36" y="310"/>
    </contour>
    <contour>
      <point x="342" y="58" type="line"/>
      <point x="414" y="85" type="line"/>
      <point x="414" y="557" type="line"/>
      <point x="416" y="658" type="line"/>
      <point x="401" y="668" type="line"/>
      <point x="272" y="637" type="line"/>
      <point x="272" y="616" type="line"/>
      <point x="313" y="599"/>
      <point x="342" y="577"/>
      <point x="342" y="563" type="curve" smooth="yes"/>
    </contour>
  </outline>
</glyph>
<glyph name="e" format="2">
  <advance width="396"/>
  <unicode hex="0065"/>
  <anchor x="215" y="0" name="bottom"/>
  <anchor x="289" y="10" name="ogonek"/>
  <anchor x="222" y="384" name="top"/>
  <outline>
    <contour>
      <point x="111" y="210" type="curve" smooth="yes"/>
      <point x="111" y="302"/>
      <point x="155" y="362"/>
      <point x="215" y="362" type="curve" smooth="yes"/>
      <point x="260" y="362"/>
      <point x="294" y="325"/>
      <point x="297" y="266" type="curve"/>
      <point x="88" y="260" type="line"/>
      <point x="84" y="231" type="line"/>
      <point x="366" y="225" type="line"/>
      <point x="378" y="239" type="line"/>
      <point x="378" y="330"/>
      <point x="316" y="395"/>
      <point x="229" y="395" type="curve" smooth="yes"/>
      <point x="117" y="395"/>
      <point x="36" y="309"/>
      <point x="36" y="188" type="curve" smooth="yes"/>
      <point x="36" y="71"/>
      <point x="109" y="-11"/>
      <point x="210" y="-11" type="curve" smooth="yes"/>
      <point x="272" y="-11"/>
      <point x="341" y="33"/>
      <point x="376" y="95" type="curve"/>
      <point x="358" y="108" type="line"/>
      <point x="335" y="75"/>
      <point x="283" y="52"/>
      <point x="231" y="52" type="curve" smooth="yes"/>
      <point x="162" y="52"/>
      <point x="111" y="117"/>
    </contour>
  </outline>
</glyph>
<glyph name="f" format="2">
  <advance width="306"/>
  <unicode hex="0066"/>
  <anchor x="153" y="0" name="bottom"/>
  <anchor x="153" y="694" name="top"/>
  <outline>
    <contour>
      <point x="18" y="18" type="curve"/>
      <point x="18" y="0" type="line"/>
      <point x="270" y="0" type="line"/>
      <point x="270" y="18" type="line"/>
      <point x="205" y="31"/>
      <point x="169" y="31"/>
      <point x="167" y="69" type="curve" smooth="yes"/>
      <point x="162" y="163"/>
      <point x="162" y="304"/>
      <point x="167" y="449" type="curve" smooth="yes"/>
      <point x="168" y="471"/>
      <point x="168" y="500"/>
      <point x="170" y="528" type="curve" smooth="yes"/>
      <point x="175" y="577"/>
      <point x="189" y="624"/>
      <point x="233" y="624" type="curve" smooth="yes"/>
      <point x="256" y="624"/>
      <point x="265" y="617"/>
      <point x="274" y="606" type="curve" smooth="yes"/>
      <point x="283" y="593"/>
      <point x="287" y="576"/>
      <point x="298" y="567" type="curve" smooth="yes"/>
      <point x="321" y="546"/>
      <point x="383" y="615"/>
      <point x="361" y="638" type="curve" smooth="yes"/>
      <point x="343" y="656"/>
      <point x="310" y="665"/>
      <point x="269" y="665" type="curve" smooth="yes"/>
      <point x="211" y="665"/>
      <point x="163" y="631"/>
      <point x="135" y="590" type="curve" smooth="yes"/>
      <point x="101" y="540"/>
      <point x="95" y="492"/>
      <point x="91" y="387" type="curve" smooth="yes"/>
      <point x="90" y="355"/>
      <point x="90" y="221"/>
      <point x="91" y="69" type="curve" smooth="yes"/>
      <point x="91" y="30"/>
      <point x="57" y="32"/>
    </contour>
    <contour>
      <point x="18" y="349" type="line"/>
      <point x="306" y="334" type="line"/>
      <point x="306" y="389" type="line"/>
      <point x="97" y="384" type="line"/>
      <point x="18" y="359" type="line"/>
    </contour>
  </outline>
</glyph>
<glyph name="g" format="2">
  <advance width="414"/>
  <unicode hex="0067"/>
  <anchor x="207" y="-196" name="bottom"/>
  <anchor x="206" y="384" name="top"/>
  <outline>
    <contour>
      <point x="235" y="374" type="line"/>
      <point x="267" y="342" type="line"/>
      <point x="414" y="332" type="line"/>
      <point x="414" y="389" type="line"/>
    </contour>
    <contour>
      <point x="36" y="43" type="curve" smooth="yes"/>
      <point x="36" y="5"/>
      <point x="75" y="-22"/>
      <point x="129" y="-22" type="curve" smooth="yes"/>
      <point x="162" y="-22"/>
      <point x="231" y="-22"/>
      <point x="280" y="-22" type="curve" smooth="yes"/>
      <point x="325" y="-22"/>
      <point x="357" y="-40"/>
      <point x="357" y="-66" type="curve" smooth="yes"/>
      <point x="357" y="-136"/>
      <point x="293" y="-183"/>
      <point x="203" y="-183" type="curve" smooth="yes"/>
      <point x="136" y="-183"/>
      <point x="84" y="-139"/>
      <point x="84" y="-86" type="curve" smooth="yes"/>
      <point x="84" y="-48"/>
      <point x="101" y="0"/>
      <point x="132" y="9" type="curve"/>
      <point x="104" y="15" type="line"/>
      <point x="51" y="-7"/>
      <point x="18" y="-72"/>
      <point x="18" y="-119" type="curve" smooth="yes"/>
      <point x="18" y="-175"/>
      <point x="69" y="-221"/>
      <point x="147" y="-221" type="curve" smooth="yes"/>
      <point x="302" y="-221"/>
      <point x="405" y="-143"/>
      <point x="405" y="-29" type="curve" smooth="yes"/>
      <point x="405" y="14"/>
      <point x="367" y="44"/>
      <point x="314" y="44" type="curve" smooth="yes"/>
      <point x="168" y="44" type="line" smooth="yes"/>
      <point x="130" y="44"/>
      <point x="103" y="58"/>
      <point x="103" y="77" type="curve" smooth="yes"/>
      <point x="103" y="90"/>
      <point x="122" y="122"/>
      <point x="148" y="142" type="curve"/>
      <point x="124" y="151" type="line"/>
      <point x="72" y="125"/>
      <point x="36" y="76"/>
    </contour>
    <contour>
      <point x="123" y="276" type="curve" smooth="yes"/>
      <point x="123" y="330"/>
      <point x="161" y="368"/>
      <point x="201" y="368" type="curve" smooth="yes"/>
      <point x="249" y="368"/>
      <point x="283" y="315"/>
      <point x="283" y="239" type="curve" smooth="yes"/>
      <point x="283" y="184"/>
      <point x="254" y="145"/>
      <point x="214" y="145" type="curve" smooth="yes"/>
      <point x="166" y="145"/>
      <point x="123" y="199"/>
    </contour>
    <contour>
      <point x="45" y="253" type="curve" smooth="yes"/>
      <point x="45" y="175"/>
      <point x="117" y="120"/>
      <point x="206" y="120" type="curve" smooth="yes"/>
      <point x="296" y="120"/>
      <point x="359" y="178"/>
      <point x="359" y="261" type="curve" smooth="yes"/>
      <point x="359" y="338"/>
      <point x="297" y="393"/>
      <point x="210" y="393" type="curve" smooth="yes"/>
      <point x="119" y="393"/>
      <point x="45" y="335"/>
    </contour>
  </outline>
</glyph>
<glyph name="h" format="2">
  <advance width="486"/>
  <unicode hex="0068"/>
  <anchor x="243" y="0" name="bottom"/>
  <anchor x="122" y="555" name="center"/>
  <anchor x="117" y="640" name="top"/>
  <outline>
    <contour>
      <point x="18" y="18" type="curve"/>
      <point x="18" y="0" type="line"/>
      <point x="216" y="0" type="line"/>
      <point x="216" y="18" type="line"/>
      <point x="169" y="32"/>
      <point x="144" y="39"/>
      <point x="144" y="68" type="curve" smooth="yes"/>
      <point x="144" y="557" type="line"/>
      <point x="146" y="658" type="line"/>
      <point x="131" y="668" type="line"/>
      <point x="0" y="637" type="line"/>
      <point x="0" y="616" type="line"/>
      <point x="21" y="608"/>
      <point x="72" y="595"/>
      <point x="72" y="563" type="curve" smooth="yes"/>
      <point x="72" y="68" type="line" smooth="yes"/>
      <point x="72" y="39"/>
      <point x="48" y="32"/>
    </contour>
    <contour>
      <point x="288" y="0" type="line"/>
      <point x="468" y="0" type="line"/>
      <point x="468" y="18" type="line"/>
      <point x="430" y="32"/>
      <point x="414" y="37"/>
      <point x="414" y="68" type="curve" smooth="yes"/>
      <point x="414" y="273" type="line" smooth="yes"/>
      <point x="414" y="355"/>
      <point x="380" y="395"/>
      <point x="310" y="395" type="curve" smooth="yes"/>
      <point x="260" y="395"/>
      <point x="189" y="365"/>
      <point x="123" y="305" type="curve"/>
      <point x="123" y="286" type="line"/>
      <point x="183" y="329"/>
      <point x="230" y="335"/>
      <point x="265" y="335" type="curve" smooth="yes"/>
      <point x="317" y="335"/>
      <point x="338" y="306"/>
      <point x="342" y="246" type="curve" smooth="yes"/>
      <point x="346" y="187"/>
      <point x="346" y="127"/>
      <point x="342" y="68" type="curve" smooth="yes"/>
      <point x="340" y="38"/>
      <point x="315" y="32"/>
      <point x="288" y="18" type="curve"/>
    </contour>
  </outline>
</glyph>
<glyph name="k" format="2">
  <advance width="468"/>
  <unicode hex="006B"/>
  <anchor x="234" y="0" name="bottom"/>
  <anchor x="270" y="568" name="top"/>
  <outline>
    <contour>
      <point x="18" y="18" type="curve"/>
      <point x="18" y="0" type="line"/>
      <point x="198" y="0" type="line"/>
      <point x="198" y="18" type="line"/>
      <point x="163" y="32"/>
      <point x="144" y="39"/>
      <point x="144" y="68" type="curve" smooth="yes"/>
      <point x="144" y="557" type="line"/>
      <point x="146" y="658" type="line"/>
      <point x="131" y="665" type="line"/>
      <point x="0" y="637" type="line"/>
      <point x="0" y="616" type="line"/>
      <point x="21" y="608"/>
      <point x="72" y="595"/>
      <point x="72" y="563" type="curve" smooth="yes"/>
      <point x="72" y="68" type="line" smooth="yes"/>
      <point x="72" y="39"/>
      <point x="55" y="32"/>
    </contour>
    <contour>
      <point x="111" y="178" type="curve"/>
      <point x="123" y="145" type="line"/>
      <point x="200" y="195"/>
      <point x="268" y="256"/>
      <point x="325" y="326" type="curve" smooth="yes"/>
      <point x="339" y="343"/>
      <point x="364" y="351"/>
      <point x="414" y="361" type="curve"/>
      <point x="414" y="384" type="line"/>
      <point x="234" y="384" type="line"/>
      <point x="234" y="361" type="line"/>
      <point x="283" y="356"/>
      <point x="290" y="354"/>
      <point x="254" y="304" type="curve" smooth="yes"/>
      <point x="216" y="252"/>
      <point x="169" y="210"/>
    </contour>
    <contour>
      <point x="242" y="264" type="line"/>
      <point x="182" y="213" type="line"/>
      <point x="305" y="54" type="line" smooth="yes"/>
      <point x="316" y="40"/>
      <point x="309" y="23"/>
      <point x="270" y="20" type="curve"/>
      <point x="270" y="0" type="line"/>
      <point x="468" y="0" type="line"/>
      <point x="468" y="23" type="line"/>
      <point x="438" y="26"/>
      <point x="412" y="38"/>
      <point x="399" y="55" type="curve" smooth="yes"/>
    </contour>
  </outline>
</glyph>
<glyph name="l" format="2">
  <advance width="217"/>
  <unicode hex="006C"/>
  <anchor x="109" y="0" name="bottom"/>
  <anchor x="109" y="192" name="center"/>
  <anchor x="109" y="640" name="top"/>
  <anchor x="161" y="694" name="topright"/>
  <outline>
    <contour>
      <point x="0" y="18" type="curve"/>
      <point x="0" y="0" type="line"/>
      <point x="216" y="0" type="line"/>
      <point x="216" y="18" type="line"/>
      <point x="169" y="32"/>
      <point x="145" y="39"/>
      <point x="145" y="68" type="curve" smooth="yes"/>
      <point x="145" y="557" type="line"/>
      <point x="148" y="658" type="line"/>
      <point x="131" y="668" type="line"/>
      <point x="0" y="637" type="line"/>
      <point x="0" y="616" type="line"/>
      <point x="21" y="608"/>
      <point x="72" y="595"/>
      <point x="72" y="563" type="curve" smooth="yes"/>
      <point x="72" y="68" type="line" smooth="yes"/>
      <point x="72" y="39"/>
      <point x="48" y="32"/>
    </contour>
  </outline>
</glyph>
<glyph name="m" format="2">
  <advance width="738"/>
  <unicode hex="006D"/>
  <anchor x="369" y="0" name="bottom"/>
  <anchor x="369" y="384" name="top"/>
  <outline>
    <contour>
      <point x="288" y="0" type="line"/>
      <point x="468" y="0" type="line"/>
      <point x="468" y="18" type="line"/>
      <point x="432" y="32"/>
      <point x="414" y="37"/>
      <point x="414" y="68" type="curve" smooth="yes"/>
      <point x="414" y="273" type="line" smooth="yes"/>
      <point x="414" y="355"/>
      <point x="380" y="395"/>
      <point x="310" y="395" type="curve" smooth="yes"/>
      <point x="260" y="395"/>
      <point x="198" y="365"/>
      <point x="132" y="305" type="curve"/>
      <point x="132" y="286" type="line"/>
      <point x="192" y="329"/>
      <point x="229" y="335"/>
      <point x="264" y="335" type="curve" smooth="yes"/>
      <point x="317" y="335"/>
      <point x="339" y="306"/>
      <point x="342" y="246" type="curve" smooth="yes"/>
      <point x="345" y="187"/>
      <point x="345" y="127"/>
      <point x="342" y="68" type="curve" smooth="yes"/>
      <point x="340" y="38"/>
      <point x="315" y="24"/>
      <point x="288" y="18" type="curve"/>
    </contour>
    <contour>
      <point x="18" y="0" type="line"/>
      <point x="234" y="0" type="line"/>
      <point x="234" y="18" type="line"/>
      <point x="187" y="32"/>
      <point x="160" y="38"/>
      <point x="160" y="68" type="curve" smooth="yes"/>
      <point x="160" y="315" type="line"/>
      <point x="159" y="315" type="line"/>
      <point x="160" y="394" type="line"/>
      <point x="149" y="403" type="line"/>
      <point x="18" y="362" type="line"/>
      <point x="18" y="341" type="line"/>
      <point x="47" y="333"/>
      <point x="87" y="319"/>
      <point x="88" y="298" type="curve" smooth="yes"/>
      <point x="91" y="223"/>
      <point x="91" y="143"/>
      <point x="88" y="68" type="curve" smooth="yes"/>
      <point x="87" y="37"/>
      <point x="62" y="32"/>
      <point x="18" y="18" type="curve"/>
    </contour>
    <contour>
      <point x="522" y="0" type="line"/>
      <point x="738" y="0" type="line"/>
      <point x="738" y="18" type="line"/>
      <point x="692" y="32"/>
      <point x="666" y="37"/>
      <point x="666" y="68" type="curve" smooth="yes"/>
      <point x="666" y="273" type="line" smooth="yes"/>
      <point x="666" y="355"/>
      <point x="632" y="395"/>
      <point x="562" y="395" type="curve" smooth="yes"/>
      <point x="512" y="395"/>
      <point x="452" y="365"/>
      <point x="386" y="305" type="curve"/>
      <point x="386" y="286" type="line"/>
      <point x="446" y="329"/>
      <point x="486" y="335"/>
      <point x="517" y="335" type="curve" smooth="yes"/>
      <point x="569" y="335"/>
      <point x="589" y="306"/>
      <point x="593" y="246" type="curve" smooth="yes"/>
      <point x="597" y="187"/>
      <point x="597" y="127"/>
      <point x="593" y="68" type="curve" smooth="yes"/>
      <point x="591" y="38"/>
      <point x="576" y="24"/>
      <point x="522" y="18" type="curve"/>
    </contour>
  </outline>
</glyph>
<glyph name="n" format="2">
  <advance width="486"/>
  <unicode hex="006E"/>
  <anchor x="248" y="0" name="bottom"/>
  <anchor x="245" y="384" name="top"/>
  <outline>
    <contour>
      <point x="288" y="0" type="line"/>
      <point x="486" y="0" type="line"/>
      <point x="486" y="18" type="line"/>
      <point x="438" y="32"/>
      <point x="414" y="37"/>
      <point x="414" y="68" type="curve" smooth="yes"/>
      <point x="414" y="273" type="line" smooth="yes"/>
      <point x="414" y="355"/>
      <point x="382" y="395"/>
      <point x="312" y="395" type="curve" smooth="yes"/>
      <point x="262" y="395"/>
      <point x="205" y="365"/>
      <point x="139" y="305" type="curve"/>
      <point x="139" y="286" type="line"/>
      <point x="199" y="329"/>
      <point x="232" y="335"/>
      <point x="267" y="335" type="curve" smooth="yes"/>
      <point x="319" y="335"/>
      <point x="338" y="306"/>
      <point x="342" y="246" type="curve" smooth="yes"/>
      <point x="346" y="189"/>
      <point x="346" y="125"/>
      <point x="342" y="68" type="curve" smooth="yes"/>
      <point x="340" y="38"/>
      <point x="316" y="24"/>
      <point x="288" y="18" type="curve"/>
    </contour>
    <contour>
      <point x="18" y="0" type="line"/>
      <point x="216" y="0" type="line"/>
      <point x="216" y="18" type="line"/>
      <point x="182" y="32"/>
      <point x="162" y="38"/>
      <point x="162" y="68" type="curve" smooth="yes"/>
      <point x="162" y="315" type="line"/>
      <point x="164" y="315" type="line"/>
      <point x="165" y="397" type="line"/>
      <point x="150" y="403" type="line"/>
      <point x="18" y="362" type="line"/>
      <point x="18" y="341" type="line"/>
      <point x="46" y="333"/>
      <point x="86" y="319"/>
      <point x="89" y="298" type="curve" smooth="yes"/>
      <point x="91" y="284"/>
      <point x="89" y="129"/>
      <point x="89" y="68" type="curve" smooth="yes"/>
      <point x="89" y="36"/>
      <point x="66" y="32"/>
      <point x="18" y="18" type="curve"/>
    </contour>
  </outline>
</glyph>
<glyph name="o" format="2">
  <advance width="486"/>
  <unicode hex="006F"/>
  <anchor x="243" y="0" name="bottom"/>
  <anchor x="243" y="192" name="center"/>
  <anchor x="330" y="10" name="ogonek"/>
  <anchor x="238" y="384" name="top"/>
  <anchor x="343" y="291" name="topright"/>
  <outline>
    <contour>
      <point x="239" y="-8" type="curve" smooth="yes"/>
      <point x="363" y="-8"/>
      <point x="450" y="75"/>
      <point x="450" y="196" type="curve" smooth="yes"/>
      <point x="450" y="313"/>
      <point x="363" y="392"/>
      <point x="239" y="392" type="curve" smooth="yes"/>
      <point x="120" y="392"/>
      <point x="36" y="308"/>
      <point x="36" y="185" type="curve" smooth="yes"/>
      <point x="36" y="70"/>
      <point x="120" y="-8"/>
    </contour>
    <contour>
      <point x="118" y="208" type="curve" smooth="yes"/>
      <point x="118" y="296"/>
      <point x="166" y="356"/>
      <point x="231" y="356" type="curve" smooth="yes"/>
      <point x="310" y="356"/>
      <point x="368" y="282"/>
      <point x="368" y="174" type="curve" smooth="yes"/>
      <point x="368" y="87"/>
      <point x="317" y="28"/>
      <point x="247" y="28" type="curve" smooth="yes"/>
      <point x="173" y="28"/>
      <point x="118" y="101"/>
    </contour>
  </outline>
</glyph>
<glyph name="p" format="2">
  <advance width="486"/>
  <unicode hex="0070"/>
  <anchor x="243" y="0" name="bottom"/>
  <anchor x="260" y="384" name="top"/>
  <outline>
    <contour>
      <point x="371" y="174" type="curve"/>
      <point x="450" y="205" type="line"/>
      <point x="450" y="316"/>
      <point x="379" y="395"/>
      <point x="281" y="395" type="curve" smooth="yes"/>
      <point x="236" y="395"/>
      <point x="165" y="362"/>
      <point x="108" y="315" type="curve"/>
      <point x="108" y="296" type="line"/>
      <point x="146" y="319"/>
      <point x="199" y="335"/>
      <point x="236" y="335" type="curve" smooth="yes"/>
      <point x="314" y="335"/>
      <point x="371" y="268"/>
    </contour>
    <contour>
      <point x="18" y="-232" type="line"/>
      <point x="234" y="-232" type="line"/>
      <point x="234" y="-214" type="line"/>
      <point x="180" y="-204"/>
      <point x="144" y="-201"/>
      <point x="144" y="-164" type="curve" smooth="yes"/>
      <point x="144" y="316" type="line"/>
      <point x="143" y="316" type="line"/>
      <point x="144" y="395" type="line"/>
      <point x="131" y="403" type="line"/>
      <point x="0" y="363" type="line"/>
      <point x="0" y="342" type="line"/>
      <point x="47" y="327"/>
      <point x="72" y="310"/>
      <point x="72" y="299" type="curve" smooth="yes"/>
      <point x="72" y="-164" type="line" smooth="yes"/>
      <point x="72" y="-197"/>
      <point x="54" y="-204"/>
      <point x="18" y="-214" type="curve"/>
    </contour>
    <contour>
      <point x="450" y="205" type="curve"/>
      <point x="371" y="174" type="line"/>
      <point x="371" y="87"/>
      <point x="315" y="26"/>
      <point x="237" y="26" type="curve" smooth="yes"/>
      <point x="194" y="26"/>
      <point x="143" y="64"/>
      <point x="118" y="117" type="curve"/>
      <point x="92" y="28" type="line"/>
      <point x="124" y="5"/>
      <point x="176" y="-11"/>
      <point x="216" y="-11" type="curve" smooth="yes"/>
      <point x="353" y="-11"/>
      <point x="450" y="78"/>
    </contour>
  </outline>
</glyph>
<glyph name="q" format="2">
  <advance width="486"/>
  <unicode hex="0071"/>
  <anchor x="243" y="0" name="bottom"/>
  <anchor x="243" y="384" name="top"/>
  <outline>
    <contour>
      <point x="343" y="377" type="curve"/>
      <point x="341" y="-164" type="line"/>
      <point x="415" y="-164" type="line"/>
      <point x="414" y="-39"/>
      <point x="414" y="269"/>
      <point x="415" y="394" type="curve"/>
      <point x="391" y="383"/>
      <point x="367" y="371"/>
    </contour>
    <contour>
      <point x="36" y="168" type="curve"/>
      <point x="110" y="201" type="line"/>
      <point x="111" y="288"/>
      <point x="160" y="358"/>
      <point x="229" y="358" type="curve" smooth="yes"/>
      <point x="279" y="358"/>
      <point x="337" y="314"/>
      <point x="360" y="259" type="curve"/>
      <point x="406" y="344" type="line"/>
      <point x="371" y="372"/>
      <point x="302" y="395"/>
      <point x="250" y="395" type="curve" smooth="yes"/>
      <point x="127" y="395"/>
      <point x="36" y="294"/>
    </contour>
    <contour>
      <point x="110" y="201" type="curve"/>
      <point x="36" y="168" type="line"/>
      <point x="36" y="68"/>
      <point x="102" y="-11"/>
      <point x="193" y="-11" type="curve" smooth="yes"/>
      <point x="243" y="-11"/>
      <point x="320" y="27"/>
      <point x="366" y="74" type="curve"/>
      <point x="366" y="93" type="line"/>
      <point x="338" y="68"/>
      <point x="281" y="49"/>
      <point x="238" y="49" type="curve" smooth="yes"/>
      <point x="163" y="49"/>
      <point x="110" y="116"/>
    </contour>
    <contour>
      <point x="341" y="-164" type="line"/>
      <point x="341" y="-201"/>
      <point x="316" y="-202"/>
      <point x="252" y="-214" type="curve"/>
      <point x="252" y="-232" type="line"/>
      <point x="468" y="-232" type="line"/>
      <point x="468" y="-214" type="line"/>
      <point x="438" y="-202"/>
      <point x="415" y="-201"/>
      <point x="415" y="-164" type="curve"/>
    </contour>
  </outline>
</glyph>
<glyph name="r" format="2">
  <advance width="328"/>
  <unicode hex="0072"/>
  <anchor x="126" y="0" name="bottom"/>
  <anchor x="162" y="384" name="top"/>
  <outline>
    <contour>
      <point x="133" y="267" type="curve"/>
      <point x="135" y="228" type="line"/>
      <point x="179" y="285"/>
      <point x="194" y="320"/>
      <point x="226" y="320" type="curve" smooth="yes"/>
      <point x="238" y="320"/>
      <point x="247" y="307"/>
      <point x="260" y="294" type="curve" smooth="yes"/>
      <point x="282" y="272"/>
      <point x="345" y="351"/>
      <point x="323" y="373" type="curve" smooth="yes"/>
      <point x="311" y="384"/>
      <point x="292" y="393"/>
      <point x="270" y="393" type="curve" smooth="yes"/>
      <point x="231" y="393"/>
      <point x="206" y="363"/>
    </contour>
    <contour>
      <point x="18" y="0" type="line"/>
      <point x="252" y="0" type="line"/>
      <point x="252" y="18" type="line"/>
      <point x="190" y="32"/>
      <point x="161" y="38"/>
      <point x="161" y="68" type="curve" smooth="yes"/>
      <point x="161" y="295" type="line"/>
      <point x="162" y="295" type="line"/>
      <point x="165" y="394" type="line"/>
      <point x="150" y="403" type="line"/>
      <point x="18" y="362" type="line"/>
      <point x="18" y="341" type="line"/>
      <point x="47" y="333"/>
      <point x="86" y="319"/>
      <point x="87" y="298" type="curve" smooth="yes"/>
      <point x="91" y="223"/>
      <point x="91" y="143"/>
      <point x="89" y="68" type="curve" smooth="yes"/>
      <point x="88" y="37"/>
      <point x="62" y="32"/>
      <point x="18" y="18" type="curve"/>
    </contour>
  </outline>
</glyph>
<glyph name="s" format="2">
  <advance width="342"/>
  <unicode hex="0073"/>
  <anchor x="161" y="0" name="bottom"/>
  <anchor x="176" y="384" name="top"/>
  <outline>
    <contour>
      <point x="158" y="-9" type="curve" smooth="yes"/>
      <point x="245" y="-9"/>
      <point x="306" y="39"/>
      <point x="306" y="108" type="curve" smooth="yes"/>
      <point x="306" y="226"/>
      <point x="108" y="222"/>
      <point x="110" y="310" type="curve" smooth="yes"/>
      <point x="111" y="343"/>
      <point x="141" y="368"/>
      <point x="176" y="368" type="curve" smooth="yes"/>
      <point x="224" y="368"/>
      <point x="258" y="334"/>
      <point x="260" y="285" type="curve"/>
      <point x="286" y="285" type="line"/>
      <point x="285" y="325"/>
      <point x="286" y="362"/>
      <point x="289" y="376" type="curve"/>
      <point x="256" y="388"/>
      <point x="209" y="396"/>
      <point x="176" y="396" type="curve" smooth="yes"/>
      <point x="102" y="396"/>
      <point x="44" y="347"/>
      <point x="44" y="278" type="curve" smooth="yes"/>
      <point x="44" y="154"/>
      <point x="238" y="171"/>
      <point x="238" y="80" type="curve" smooth="yes"/>
      <point x="238" y="41"/>
      <point x="206" y="16"/>
      <point x="161" y="19" type="curve" smooth="yes"/>
      <point x="117" y="22"/>
      <point x="68" y="79"/>
      <point x="63" y="128" type="curve"/>
      <point x="36" y="128" type="line"/>
      <point x="39" y="114"/>
      <point x="41" y="55"/>
      <point x="39" y="12" type="curve"/>
      <point x="81" y="0"/>
      <point x="139" y="-9"/>
    </contour>
  </outline>
</glyph>
<glyph name="t" format="2">
  <advance width="288"/>
  <unicode hex="0074"/>
  <anchor x="162" y="0" name="bottom"/>
  <anchor x="144" y="192" name="center"/>
  <anchor x="144" y="405" name="top"/>
  <anchor x="230" y="703" name="topright"/>
  <outline>
    <contour>
      <point x="158" y="-11" type="curve" smooth="yes"/>
      <point x="199" y="-11"/>
      <point x="253" y="5"/>
      <point x="288" y="27" type="curve"/>
      <point x="278" y="48" type="line"/>
      <point x="259" y="40"/>
      <point x="230" y="34"/>
      <point x="210" y="34" type="curve" smooth="yes"/>
      <point x="177" y="34"/>
      <point x="151" y="52"/>
      <point x="149" y="78" type="curve" smooth="yes"/>
      <point x="147" y="108"/>
      <point x="146" y="153"/>
      <point x="146" y="186" type="curve" smooth="yes"/>
      <point x="146" y="316"/>
      <point x="154" y="433"/>
      <point x="159" y="468" type="curve"/>
      <point x="140" y="474" type="line"/>
      <point x="78" y="381" type="line"/>
      <point x="72" y="237"/>
      <point x="68" y="98"/>
      <point x="74" y="46" type="curve" smooth="yes"/>
      <point x="78" y="13"/>
      <point x="113" y="-11"/>
    </contour>
    <contour>
      <point x="0" y="349" type="line"/>
      <point x="282" y="334" type="line"/>
      <point x="282" y="389" type="line"/>
      <point x="82" y="384" type="line"/>
      <point x="0" y="359" type="line"/>
    </contour>
    <contour>
      <point x="0" y="359" type="curve"/>
      <point x="114" y="361" type="line"/>
      <point x="140" y="474" type="line"/>
      <point x="104" y="423"/>
      <point x="48" y="375"/>
    </contour>
  </outline>
</glyph>
<glyph name="v" format="2">
  <advance width="432"/>
  <unicode hex="0076"/>
  <anchor x="224" y="0" name="bottom"/>
  <anchor x="238" y="384" name="top"/>
  <outline>
    <contour>
      <point x="68" y="308" type="curve" smooth="yes"/>
      <point x="212" y="0" type="line"/>
      <point x="240" y="0" type="line"/>
      <point x="366" y="302" type="line" smooth="yes"/>
      <point x="374" y="322"/>
      <point x="384" y="335"/>
      <point x="395" y="345" type="curve" smooth="yes"/>
      <point x="405" y="353"/>
      <point x="417" y="358"/>
      <point x="432" y="361" type="curve"/>
      <point x="432" y="384" type="line"/>
      <point x="288" y="384" type="line"/>
      <point x="288" y="361" type="line"/>
      <point x="299" y="359"/>
      <point x="318" y="358"/>
      <point x="329" y="351" type="curve" smooth="yes"/>
      <point x="335" y="348"/>
      <point x="339" y="343"/>
      <point x="339" y="336" type="curve" smooth="yes"/>
      <point x="339" y="330"/>
      <point x="336" y="319"/>
      <point x="330" y="304" type="curve" smooth="yes"/>
      <point x="241" y="72" type="line"/>
      <point x="261" y="72" type="line"/>
      <point x="146" y="318" type="line" smooth="yes"/>
      <point x="142" y="327"/>
      <point x="141" y="333"/>
      <point x="141" y="337" type="curve" smooth="yes"/>
      <point x="141" y="344"/>
      <point x="145" y="349"/>
      <point x="152" y="353" type="curve" smooth="yes"/>
      <point x="165" y="359"/>
      <point x="187" y="360"/>
      <point x="198" y="361" type="curve"/>
      <point x="198" y="384" type="line"/>
      <point x="0" y="384" type="line"/>
      <point x="0" y="361" type="line"/>
      <point x="25" y="359"/>
      <point x="36" y="356"/>
      <point x="45" y="348" type="curve" smooth="yes"/>
      <point x="53" y="340"/>
      <point x="59" y="328"/>
    </contour>
  </outline>
</glyph>
<glyph name="z" format="2">
  <advance width="416"/>
  <unicode hex="007A"/>
  <anchor x="207" y="0" name="bottom"/>
  <anchor x="207" y="192" name="center"/>
  <anchor x="234" y="384" name="top"/>
  <outline>
    <contour>
      <point x="41" y="-5" type="line"/>
      <point x="152" y="1"/>
      <point x="269" y="0"/>
      <point x="380" y="0" type="curve"/>
      <point x="380" y="121" type="line"/>
      <point x="352" y="121" type="line"/>
      <point x="343" y="66"/>
      <point x="335" y="35"/>
      <point x="310" y="35" type="curve" smooth="yes"/>
      <point x="85" y="35" type="line"/>
      <point x="139" y="16" type="line"/>
      <point x="372" y="354" type="line"/>
      <point x="372" y="391" type="line"/>
      <point x="281" y="386"/>
      <point x="247" y="383"/>
      <point x="137" y="383" type="curve" smooth="yes"/>
      <point x="125" y="383"/>
      <point x="112" y="387"/>
      <point x="116" y="420" type="curve"/>
      <point x="86" y="429" type="line"/>
      <point x="36" y="263" type="line"/>
      <point x="66" y="254" type="line"/>
      <point x="79" y="306"/>
      <point x="117" y="348"/>
      <point x="138" y="348" type="curve" smooth="yes"/>
      <point x="322" y="349" type="line"/>
      <point x="285" y="366" type="line"/>
      <point x="41" y="13" type="line"/>
    </contour>
  </outline>
</glyph>
<glyph name="braceleft" format="2">
  <advance width="360"/>
  <unicode hex="007B"/>
  <outline>
    <contour>
      <point x="324" y="-144" type="curve"/>
      <point x="324" y="-108" type="line"/>
      <point x="268" y="-108"/>
      <point x="228" y="-70"/>
      <point x="228" y="-16" type="curve" smooth="yes"/>
      <point x="228" y="157" type="line" smooth="yes"/>
      <point x="228" y="201"/>
      <point x="193" y="252"/>
      <point x="144" y="279" type="curve"/>
      <point x="193" y="306"/>
      <point x="228" y="357"/>
      <point x="228" y="401" type="curve" smooth="yes"/>
      <point x="228" y="574" type="line" smooth="yes"/>
      <point x="228" y="628"/>
      <point x="268" y="666"/>
      <point x="324" y="666" type="curve"/>
      <point x="324" y="702" type="line"/>
      <point x="233" y="702"/>
      <point x="169" y="649"/>
      <point x="169" y="574" type="curve" smooth="yes"/>
      <point x="169" y="385" type="line" smooth="yes"/>
      <point x="169" y="329"/>
      <point x="128" y="289"/>
      <point x="54" y="289" type="curve"/>
      <point x="54" y="269" type="line"/>
      <point x="128" y="269"/>
      <point x="169" y="229"/>
      <point x="169" y="173" type="curve" smooth="yes"/>
      <point x="169" y="-16" type="line" smooth="yes"/>
      <point x="169" y="-91"/>
      <point x="233" y="-144"/>
    </contour>
  </outline>
</glyph>
<glyph name="bar" format="2">
  <advance width="216"/>
  <unicode hex="007C"/>
  <outline>
    <contour>
      <point x="90" y="-232" type="line"/>
      <point x="126" y="-232" type="line"/>
      <point x="126" y="693" type="line"/>
      <point x="90" y="694" type="line"/>
    </contour>
  </outline>
</glyph>
<glyph name="asciitilde" format="2">
  <advance width="594"/>
  <unicode hex="007E"/>
  <outline>
    <contour>
      <point x="388" y="212" type="curve" smooth="yes"/>
      <point x="450" y="212"/>
      <point x="507" y="265"/>
      <point x="522" y="341" type="curve"/>
      <point x="474" y="347" type="line"/>
      <point x="462" y="296"/>
      <point x="427" y="258"/>
      <point x="394" y="258" type="curve" smooth="yes"/>
      <point x="321" y="258"/>
      <point x="295" y="368"/>
      <point x="206" y="368" type="curve" smooth="yes"/>
      <point x="144" y="368"/>
      <point x="87" y="315"/>
      <point x="72" y="239" type="curve"/>
      <point x="120" y="233" type="line"/>
      <point x="132" y="284"/>
      <point x="167" y="322"/>
      <point x="200" y="322" type="curve" smooth="yes"/>
      <point x="273" y="322"/>
      <point x="299" y="212"/>
    </contour>
  </outline>
</glyph>
<glyph name="exclamdown" format="2">
  <advance width="216"/>
  <unicode hex="00A1"/>
  <outline>
    <contour>
      <point x="107" y="468" type="curve" smooth="yes"/>
      <point x="84" y="468"/>
      <point x="69" y="449"/>
      <point x="65" y="426" type="curve" smooth="yes"/>
      <point x="61" y="403"/>
      <point x="80" y="384"/>
      <point x="107" y="384" type="curve" smooth="yes"/>
      <point x="130" y="384"/>
      <point x="149" y="403"/>
      <point x="149" y="426" type="curve" smooth="yes"/>
      <point x="149" y="449"/>
      <point x="130" y="468"/>
    </contour>
    <contour>
      <point x="137" y="284" type="curve"/>
      <point x="77" y="276" type="line"/>
      <point x="79" y="142"/>
      <point x="70" y="-14"/>
      <point x="54" y="-170" type="curve"/>
      <point x="162" y="-158" type="line"/>
      <point x="145" y="-6"/>
      <point x="140" y="154"/>
    </contour>
  </outline>
</glyph>
<glyph name="cent" format="2">
  <advance width="582"/>
  <unicode hex="00A2"/>
  <anchor x="331" y="75" name="bottom"/>
  <anchor x="331" y="575" name="top"/>
  <outline>
    <contour>
      <point x="331" y="58" type="curve" smooth="yes"/>
      <point x="386" y="58"/>
      <point x="457" y="75"/>
      <point x="498" y="101" type="curve"/>
      <point x="514" y="168"/>
      <point x="529" y="239"/>
      <point x="528" y="246" type="curve"/>
      <point x="486" y="245" type="line"/>
      <point x="472" y="167"/>
      <point x="412" y="110"/>
      <point x="344" y="110" type="curve" smooth="yes"/>
      <point x="238" y="110"/>
      <point x="156" y="207"/>
      <point x="156" y="347" type="curve" smooth="yes"/>
      <point x="156" y="462"/>
      <point x="236" y="544"/>
      <point x="339" y="544" type="curve" smooth="yes"/>
      <point x="408" y="544"/>
      <point x="456" y="497"/>
      <point x="455" y="427" type="curve"/>
      <point x="494" y="427" type="line"/>
      <point x="494" y="465"/>
      <point x="500" y="523"/>
      <point x="506" y="563" type="curve"/>
      <point x="470" y="580"/>
      <point x="396" y="592"/>
      <point x="331" y="592" type="curve" smooth="yes"/>
      <point x="178" y="592"/>
      <point x="72" y="482"/>
      <point x="72" y="328" type="curve" smooth="yes"/>
      <point x="72" y="171"/>
      <point x="178" y="58"/>
    </contour>
    <contour>
      <point x="293" y="-134" type="line"/>
      <point x="333" y="-134" type="line"/>
      <point x="333" y="766" type="line"/>
      <point x="293" y="766" type="line"/>
    </contour>
  </outline>
</glyph>
<glyph name="sterling" format="2">
  <advance width="489"/>
  <unicode hex="00A3"/>
  <outline>
    <contour>
      <point x="44" y="-2" type="line"/>
      <point x="176" y="6"/>
      <point x="362" y="8"/>
      <point x="433" y="0" type="curve"/>
      <point x="471" y="105" type="line"/>
      <point x="462" y="109" type="line"/>
      <point x="404" y="81"/>
      <point x="317" y="50"/>
      <point x="117" y="82" type="curve"/>
      <point x="298" y="310"/>
      <point x="107" y="436"/>
      <point x="157" y="521" type="curve" smooth="yes"/>
      <point x="223" y="634"/>
      <point x="340" y="584"/>
      <point x="375" y="489" type="curve"/>
      <point x="461" y="534" type="line"/>
      <point x="407" y="603"/>
      <point x="375" y="628"/>
      <point x="306" y="628" type="curve" smooth="yes"/>
      <point x="226" y="628"/>
      <point x="144" y="605"/>
      <point x="100" y="527" type="curve" smooth="yes"/>
      <point x="28" y="401"/>
      <point x="204" y="260"/>
      <point x="37" y="13" type="curve"/>
    </contour>
    <contour>
      <point x="18" y="275" type="line"/>
      <point x="345" y="275" type="line"/>
      <point x="345" y="348" type="line"/>
      <point x="18" y="330" type="line"/>
    </contour>
  </outline>
</glyph>
<glyph name="currency" format="2">
  <advance width="486"/>
  <unicode hex="00A4"/>
  <outline>
    <contour>
      <point x="71" y="97" type="line"/>
      <point x="134" y="159" type="line"/>
      <point x="197" y="110"/>
      <point x="288" y="110"/>
      <point x="353" y="160" type="curve"/>
      <point x="415" y="98" type="line"/>
      <point x="450" y="133" type="line"/>
      <point x="388" y="195" type="line"/>
      <point x="440" y="262"/>
      <point x="440" y="357"/>
      <point x="388" y="426" type="curve"/>
      <point x="450" y="488" type="line"/>
      <point x="415" y="523" type="line"/>
      <point x="353" y="461" type="line"/>
      <point x="288" y="511"/>
      <point x="197" y="511"/>
      <point x="132" y="461" type="curve"/>
      <point x="71" y="522" type="line"/>
      <point x="36" y="487" type="line"/>
      <point x="98" y="426" type="line"/>
      <point x="45" y="358"/>
      <point x="45" y="261"/>
      <point x="98" y="194" type="curve"/>
      <point x="36" y="132" type="line"/>
    </contour>
    <contour>
      <point x="149" y="211" type="curve" smooth="yes"/>
      <point x="92" y="269"/>
      <point x="93" y="351"/>
      <point x="150" y="409" type="curve" smooth="yes"/>
      <point x="205" y="464"/>
      <point x="282" y="464"/>
      <point x="336" y="409" type="curve" smooth="yes"/>
      <point x="394" y="351"/>
      <point x="394" y="269"/>
      <point x="336" y="211" type="curve" smooth="yes"/>
      <point x="281" y="156"/>
      <point x="204" y="156"/>
    </contour>
  </outline>
</glyph>
<glyph name="yen" format="2">
  <advance width="576"/>
  <unicode hex="00A5"/>
  <outline>
    <contour>
      <point x="166" y="0" type="line"/>
      <point x="412" y="0" type="line"/>
      <point x="412" y="17" type="line"/>
      <point x="330" y="44" type="line"/>
      <point x="330" y="159" type="line"/>
      <point x="506" y="159" type="line"/>
      <point x="506" y="216" type="line"/>
      <point x="330" y="216" type="line"/>
      <point x="330" y="267" type="line"/>
      <point x="506" y="267" type="line"/>
      <point x="506" y="324" type="line"/>
      <point x="341" y="324" type="line"/>
      <point x="492" y="571" type="line"/>
      <point x="576" y="599" type="line"/>
      <point x="576" y="616" type="line"/>
      <point x="357" y="616" type="line"/>
      <point x="357" y="598" type="line"/>
      <point x="437" y="571" type="line"/>
      <point x="307" y="343" type="line"/>
      <point x="181" y="571" type="line"/>
      <point x="263" y="599" type="line"/>
      <point x="263" y="616" type="line"/>
      <point x="0" y="616" type="line"/>
      <point x="0" y="598" type="line"/>
      <point x="80" y="571" type="line"/>
      <point x="217" y="324" type="line"/>
      <point x="68" y="324" type="line"/>
      <point x="68" y="267" type="line"/>
      <point x="246" y="267" type="line"/>
      <point x="246" y="216" type="line"/>
      <point x="68" y="216" type="line"/>
      <point x="68" y="159" type="line"/>
      <point x="246" y="159" type="line"/>
      <point x="246" y="44" type="line"/>
      <point x="166" y="18" type="line"/>
    </contour>
  </outline>
</glyph>
<glyph name="brokenbar" format="2">
  <advance width="234"/>
  <unicode hex="00A6"/>
  <outline>
    <contour>
      <point x="90" y="310" type="line"/>
      <point x="144" y="310" type="line"/>
      <point x="144" y="693" type="line"/>
      <point x="90" y="693" type="line"/>
    </contour>
    <contour>
      <point x="90" y="-165" type="line"/>
      <point x="144" y="-165" type="line"/>
      <point x="144" y="218" type="line"/>
      <point x="90" y="218" type="line"/>
    </contour>
  </outline>
</glyph>
<glyph name="section" format="2">
  <advance width="522"/>
  <unicode hex="00A7"/>
  <outline>
    <contour>
      <point x="262" y="89" type="line"/>
      <point x="384" y="89"/>
      <point x="468" y="165"/>
      <point x="468" y="273" type="curve" smooth="yes"/>
      <point x="468" y="424"/>
      <point x="169" y="429"/>
      <point x="171" y="555" type="curve" smooth="yes"/>
      <point x="172" y="602"/>
      <point x="222" y="636"/>
      <point x="288" y="636" type="curve" smooth="yes"/>
      <point x="345" y="636"/>
      <point x="380" y="558"/>
      <point x="375" y="499" type="curve"/>
      <point x="414" y="499" type="line"/>
      <point x="413" y="536"/>
      <point x="415" y="618"/>
      <point x="418" y="646" type="curve"/>
      <point x="376" y="663"/>
      <point x="316" y="675"/>
      <point x="288" y="675" type="curve" smooth="yes"/>
      <point x="182" y="675"/>
      <point x="104" y="607"/>
      <point x="104" y="510" type="curve" smooth="yes"/>
      <point x="104" y="351"/>
      <point x="399" y="366"/>
      <point x="399" y="235" type="curve" smooth="yes"/>
      <point x="399" y="166"/>
      <point x="339" y="122"/>
      <point x="252" y="129" type="curve"/>
    </contour>
    <contour>
      <point x="261" y="404" type="line"/>
      <point x="142" y="404"/>
      <point x="54" y="327"/>
      <point x="54" y="219" type="curve" smooth="yes"/>
      <point x="54" y="68"/>
      <point x="354" y="63"/>
      <point x="351" y="-63" type="curve" smooth="yes"/>
      <point x="350" y="-111"/>
      <point x="300" y="-145"/>
      <point x="235" y="-145" type="curve" smooth="yes"/>
      <point x="180" y="-145"/>
      <point x="142" y="-67"/>
      <point x="148" y="-8" type="curve"/>
      <point x="107" y="-8" type="line"/>
      <point x="108" y="-67"/>
      <point x="107" y="-149"/>
      <point x="104" y="-155" type="curve"/>
      <point x="146" y="-172"/>
      <point x="208" y="-184"/>
      <point x="235" y="-184" type="curve" smooth="yes"/>
      <point x="342" y="-184"/>
      <point x="420" y="-116"/>
      <point x="420" y="-19" type="curve" smooth="yes"/>
      <point x="420" y="140"/>
      <point x="125" y="125"/>
      <point x="125" y="257" type="curve" smooth="yes"/>
      <point x="125" y="326"/>
      <point x="188" y="369"/>
      <point x="272" y="362" type="curve"/>
    </contour>
  </outline>
</glyph>
<glyph name="guillemetleft" format="2">
  <advance width="522"/>
  <unicode hex="00AB"/>
  <outline>
    <contour>
      <point x="425" y="354" type="line"/>
      <point x="250" y="204" type="line"/>
      <point x="420" y="50" type="line"/>
      <point x="460" y="80" type="line"/>
      <point x="351" y="204" type="line"/>
      <point x="453" y="333" type="line"/>
    </contour>
    <contour>
      <point x="234" y="354" type="line"/>
      <point x="58" y="204" type="line"/>
      <point x="229" y="50" type="line"/>
      <point x="269" y="80" type="line"/>
      <point x="159" y="204" type="line"/>
      <point x="262" y="333" type="line"/>
    </contour>
  </outline>
</glyph>
<glyph name="logicalnot" format="2">
  <advance width="594"/>
  <unicode hex="00AC"/>
  <outline>
    <contour>
      <point x="490" y="39" type="line"/>
      <point x="540" y="39" type="line"/>
      <point x="540" y="310" type="line"/>
      <point x="54" y="310" type="line"/>
      <point x="54" y="260" type="line"/>
      <point x="490" y="260" type="line"/>
    </contour>
  </outline>
</glyph>
<glyph name="registered" format="2">
  <advance width="593"/>
  <unicode hex="00AE"/>
  <anchor x="336.2417" y="364.0" name="bottom"/>
  <anchor x="266.7378" y="636.7031999999999" name="top"/>
  <outline>
    <contour>
      <point x="297" y="228" type="curve" smooth="yes"/>
      <point x="440" y="228"/>
      <point x="557" y="345"/>
      <point x="557" y="489" type="curve" smooth="yes"/>
      <point x="557" y="632"/>
      <point x="440" y="749"/>
      <point x="297" y="749" type="curve" smooth="yes"/>
      <point x="153" y="749"/>
      <point x="36" y="632"/>
      <point x="36" y="489" type="curve" smooth="yes"/>
      <point x="36" y="345"/>
      <point x="153" y="228"/>
    </contour>
    <contour>
      <point x="297" y="264" type="curve" smooth="yes"/>
      <point x="173" y="264"/>
      <point x="71" y="365"/>
      <point x="71" y="489" type="curve" smooth="yes"/>
      <point x="71" y="612"/>
      <point x="173" y="714"/>
      <point x="297" y="714" type="curve" smooth="yes"/>
      <point x="420" y="714"/>
      <point x="521" y="612"/>
      <point x="521" y="489" type="curve" smooth="yes"/>
      <point x="521" y="365"/>
      <point x="420" y="264"/>
    </contour>
    <component base="R" xScale="0.4427" yScale="0.4427" xOffset="172" yOffset="364"/>
  </outline>
</glyph>
<glyph name="degree" format="2">
  <advance width="342"/>
  <unicode hex="00B0"/>
  <outline>
    <contour>
      <point x="171" y="421" type="curve" smooth="yes"/>
      <point x="251" y="421"/>
      <point x="306" y="478"/>
      <point x="306" y="558" type="curve" smooth="yes"/>
      <point x="306" y="638"/>
      <point x="251" y="694"/>
      <point x="171" y="694" type="curve" smooth="yes"/>
      <point x="91" y="694"/>
      <point x="36" y="638"/>
      <point x="36" y="558" type="curve" smooth="yes"/>
      <point x="36" y="478"/>
      <point x="91" y="421"/>
    </contour>
    <contour>
      <point x="171" y="461" type="curve" smooth="yes"/>
      <point x="115" y="461"/>
      <point x="76" y="501"/>
      <point x="76" y="558" type="curve" smooth="yes"/>
      <point x="76" y="614"/>
      <point x="115" y="654"/>
      <point x="171" y="654" type="curve" smooth="yes"/>
      <point x="227" y="654"/>
      <point x="266" y="614"/>
      <point x="266" y="558" type="curve" smooth="yes"/>
      <point x="266" y="501"/>
      <point x="227" y="461"/>
    </contour>
  </outline>
</glyph>
<glyph name="plusminus" format="2">
  <advance width="594"/>
  <unicode hex="00B1"/>
  <outline>
    <contour>
      <point x="271" y="172" type="line"/>
      <point x="321" y="172" type="line"/>
      <point x="321" y="327" type="line"/>
      <point x="540" y="327" type="line"/>
      <point x="540" y="377" type="line"/>
      <point x="321" y="377" type="line"/>
      <point x="321" y="528" type="line"/>
      <point x="271" y="528" type="line"/>
      <point x="271" y="377" type="line"/>
      <point x="54" y="377" type="line"/>
      <point x="54" y="327" type="line"/>
      <point x="271" y="327" type="line"/>
    </contour>
    <contour>
      <point x="59" y="41" type="line"/>
      <point x="535" y="41" type="line"/>
      <point x="535" y="91" type="line"/>
      <point x="59" y="91" type="line"/>
    </contour>
  </outline>
</glyph>
<glyph name="paragraph" format="2">
  <advance width="522"/>
  <unicode hex="00B6"/>
  <outline>
    <contour>
      <point x="206" y="-232" type="curve" smooth="yes"/>
      <point x="228" y="-232"/>
      <point x="264" y="-213"/>
      <point x="292" y="-187" type="curve" smooth="yes"/>
      <point x="355" y="-127"/>
      <point x="398" y="15"/>
      <point x="396" y="148" type="curve" smooth="yes"/>
      <point x="394" y="310" type="line"/>
      <point x="396" y="519" type="line" smooth="yes"/>
      <point x="396" y="547"/>
      <point x="407" y="569"/>
      <point x="423" y="577" type="curve" smooth="yes"/>
      <point x="430" y="581"/>
      <point x="448" y="585"/>
      <point x="486" y="590" type="curve"/>
      <point x="486" y="616" type="line"/>
      <point x="447" y="620"/>
      <point x="394" y="623"/>
      <point x="358" y="623" type="curve" smooth="yes"/>
      <point x="175" y="623"/>
      <point x="54" y="533"/>
      <point x="54" y="383" type="curve" smooth="yes"/>
      <point x="54" y="255"/>
      <point x="157" y="148"/>
      <point x="318" y="141" type="curve"/>
      <point x="318" y="81" type="line" smooth="yes"/>
      <point x="318" y="4"/>
      <point x="312" y="-74"/>
      <point x="304" y="-101" type="curve"/>
      <point x="304" y="-100" type="line"/>
      <point x="294" y="-133"/>
      <point x="275" y="-157"/>
      <point x="258" y="-157" type="curve" smooth="yes"/>
      <point x="239" y="-158"/>
      <point x="237" y="-135"/>
      <point x="218" y="-134" type="curve" smooth="yes"/>
      <point x="185" y="-134"/>
      <point x="162" y="-163"/>
      <point x="162" y="-203" type="curve" smooth="yes"/>
      <point x="162" y="-220"/>
      <point x="180" y="-232"/>
    </contour>
    <contour>
      <point x="318" y="177" type="curve"/>
      <point x="302" y="178"/>
      <point x="274" y="180"/>
      <point x="269" y="182" type="curve"/>
      <point x="269" y="582" type="line"/>
      <point x="280" y="585"/>
      <point x="308" y="585"/>
      <point x="319" y="585" type="curve"/>
      <point x="319" y="570"/>
      <point x="318" y="291"/>
    </contour>
  </outline>
</glyph>
<glyph name="periodcentered" format="2">
  <advance width="234"/>
  <unicode hex="00B7"/>
  <outline>
    <contour>
      <point x="117" y="199" type="curve" smooth="yes"/>
      <point x="154" y="199"/>
      <point x="180" y="225"/>
      <point x="180" y="262" type="curve" smooth="yes"/>
      <point x="180" y="299"/>
      <point x="154" y="325"/>
      <point x="117" y="325" type="curve" smooth="yes"/>
      <point x="80" y="325"/>
      <point x="54" y="299"/>
      <point x="54" y="262" type="curve" smooth="yes"/>
      <point x="54" y="225"/>
      <point x="80" y="199"/>
    </contour>
  </outline>
</glyph>
<glyph name="guillemetright" format="2">
  <advance width="522"/>
  <unicode hex="00BB"/>
  <outline>
    <contour>
      <point x="103" y="50" type="line"/>
      <point x="279" y="200" type="line"/>
      <point x="108" y="354" type="line"/>
      <point x="68" y="325" type="line"/>
      <point x="178" y="200" type="line"/>
      <point x="75" y="71" type="line"/>
    </contour>
    <contour>
      <point x="295" y="50" type="line"/>
      <point x="471" y="200" type="line"/>
      <point x="300" y="354" type="line"/>
      <point x="260" y="325" type="line"/>
      <point x="370" y="200" type="line"/>
      <point x="267" y="71" type="line"/>
    </contour>
  </outline>
</glyph>
<glyph name="questiondown" format="2">
  <advance width="396"/>
  <unicode hex="00BF"/>
  <outline>
    <contour>
      <point x="202" y="284" type="curve" smooth="yes"/>
      <point x="193" y="284"/>
      <point x="160" y="270"/>
      <point x="121" y="251" type="curve"/>
      <point x="123" y="238" type="line"/>
      <point x="155" y="237" type="line" smooth="yes"/>
      <point x="180" y="236"/>
      <point x="198" y="218"/>
      <point x="198" y="194" type="curve" smooth="yes"/>
      <point x="198" y="107"/>
      <point x="56" y="108"/>
      <point x="54" y="-12" type="curve"/>
      <point x="54" y="-73"/>
      <point x="97" y="-117"/>
      <point x="158" y="-117" type="curve" smooth="yes"/>
      <point x="187" y="-117"/>
      <point x="231" y="-100"/>
      <point x="270" y="-76" type="curve" smooth="yes"/>
      <point x="302" y="-54"/>
      <point x="324" y="-17"/>
      <point x="324" y="14" type="curve" smooth="yes"/>
      <point x="324" y="45"/>
      <point x="252" y="31"/>
      <point x="252" y="0" type="curve" smooth="yes"/>
      <point x="252" y="-16"/>
      <point x="259" y="-12"/>
      <point x="259" y="-27" type="curve" smooth="yes"/>
      <point x="259" y="-54"/>
      <point x="236" y="-73"/>
      <point x="208" y="-73" type="curve" smooth="yes"/>
      <point x="158" y="-73"/>
      <point x="129" y="-46"/>
      <point x="130" y="-6" type="curve" smooth="yes"/>
      <point x="135" y="137"/>
      <point x="270" y="137"/>
      <point x="270" y="221" type="curve" smooth="yes"/>
      <point x="270" y="258"/>
      <point x="238" y="284"/>
    </contour>
    <contour>
      <point x="193" y="460" type="curve" smooth="yes"/>
      <point x="171" y="460"/>
      <point x="153" y="442"/>
      <point x="153" y="420" type="curve" smooth="yes"/>
      <point x="153" y="398"/>
      <point x="171" y="380"/>
      <point x="193" y="380" type="curve" smooth="yes"/>
      <point x="215" y="380"/>
      <point x="233" y="398"/>
      <point x="233" y="420" type="curve" smooth="yes"/>
      <point x="233" y="442"/>
      <point x="215" y="460"/>
    </contour>
  </outline>
</glyph>
<glyph name="AE" format="2">
  <advance width="900"/>
  <unicode hex="00C6"/>
  <anchor x="450" y="0" name="bottom"/>
  <anchor x="450" y="616" name="top"/>
  <outline>
    <contour>
      <point x="18" y="0" type="line"/>
      <point x="270" y="0" type="line"/>
      <point x="270" y="23" type="line"/>
      <point x="193" y="23"/>
      <point x="156" y="60"/>
      <point x="195" y="130" type="curve" smooth="yes"/>
      <point x="457" y="596" type="line"/>
      <point x="406" y="617" type="line"/>
      <point x="325" y="451"/>
      <point x="185" y="198"/>
      <point x="123" y="83" type="curve" smooth="yes"/>
      <point x="104" y="49"/>
      <point x="60" y="25"/>
      <point x="18" y="25" type="curve"/>
    </contour>
    <contour>
      <point x="236" y="274" type="line"/>
      <point x="528" y="274" type="line"/>
      <point x="514" y="314" type="line"/>
      <point x="253" y="314" type="line"/>
    </contour>
    <contour>
      <point x="378" y="-3" type="line"/>
      <point x="401" y="-1"/>
      <point x="449" y="0"/>
      <point x="494" y="0" type="curve"/>
      <point x="639" y="0"/>
      <point x="765" y="-1"/>
      <point x="842" y="-3" type="curve"/>
      <point x="856" y="44"/>
      <point x="866" y="110"/>
      <point x="866" y="157" type="curve"/>
      <point x="837" y="157" type="line"/>
      <point x="825" y="90"/>
      <point x="786" y="45"/>
      <point x="743" y="42" type="curve" smooth="yes"/>
      <point x="711" y="40"/>
      <point x="679" y="39"/>
      <point x="624" y="39" type="curve" smooth="yes"/>
      <point x="586" y="39"/>
      <point x="554" y="51"/>
      <point x="546" y="68" type="curve" smooth="yes"/>
      <point x="543" y="74"/>
      <point x="541" y="90"/>
      <point x="541" y="107" type="curve" smooth="yes"/>
      <point x="539" y="309" type="line" smooth="yes"/>
      <point x="539" y="328"/>
      <point x="541" y="407"/>
      <point x="541" y="509" type="curve"/>
      <point x="541" y="577" type="line"/>
      <point x="619" y="577"/>
      <point x="623" y="579"/>
      <point x="692" y="575" type="curve" smooth="yes"/>
      <point x="717" y="573"/>
      <point x="740" y="544"/>
      <point x="748" y="499" type="curve"/>
      <point x="782" y="499" type="line"/>
      <point x="783" y="536"/>
      <point x="788" y="586"/>
      <point x="795" y="619" type="curve"/>
      <point x="730" y="617"/>
      <point x="627" y="616"/>
      <point x="504" y="616" type="curve"/>
      <point x="455" y="616"/>
      <point x="358" y="617"/>
      <point x="333" y="619" type="curve"/>
      <point x="330" y="598" type="line"/>
      <point x="372" y="586"/>
      <point x="380" y="574"/>
      <point x="393" y="567" type="curve"/>
      <point x="464" y="567" type="line"/>
      <point x="465" y="312" type="line"/>
      <point x="463" y="91" type="line" smooth="yes"/>
      <point x="463" y="64"/>
      <point x="451" y="40"/>
      <point x="435" y="32" type="curve" smooth="yes"/>
      <point x="433" y="31"/>
      <point x="413" y="25"/>
      <point x="378" y="21" type="curve"/>
    </contour>
    <contour>
      <point x="703" y="184" type="curve"/>
      <point x="729" y="184" type="line"/>
      <point x="723" y="250"/>
      <point x="723" y="342"/>
      <point x="729" y="408" type="curve"/>
      <point x="701" y="408" type="line"/>
      <point x="700" y="402"/>
      <point x="697" y="388"/>
      <point x="692" y="374" type="curve"/>
      <point x="678" y="338"/>
      <point x="684" y="314"/>
      <point x="626" y="314" type="curve" smooth="yes"/>
      <point x="486" y="314" type="line"/>
      <point x="486" y="274" type="line"/>
      <point x="626" y="274" type="line" smooth="yes"/>
      <point x="691" y="274"/>
      <point x="683" y="253"/>
      <point x="693" y="220" type="curve" smooth="yes"/>
      <point x="697" y="208"/>
      <point x="700" y="196"/>
    </contour>
  </outline>
</glyph>
<glyph name="multiply" format="2">
  <advance width="594"/>
  <unicode hex="00D7"/>
  <outline>
    <contour>
      <point x="114" y="93" type="line"/>
      <point x="295" y="242" type="line"/>
      <point x="482" y="89" type="line"/>
      <point x="522" y="128" type="line"/>
      <point x="335" y="281" type="line"/>
      <point x="519" y="431" type="line"/>
      <point x="479" y="470" type="line"/>
      <point x="296" y="321" type="line"/>
      <point x="111" y="472" type="line"/>
      <point x="72" y="432" type="line"/>
      <point x="256" y="281" type="line"/>
      <point x="74" y="132" type="line"/>
    </contour>
  </outline>
</glyph>
<glyph name="Thorn" format="2">
  <advance width="486"/>
  <unicode hex="00DE"/>
  <anchor x="252" y="0" name="bottom"/>
  <anchor x="252" y="616" name="top"/>
  <outline>
    <contour>
      <point x="18" y="0" type="line"/>
      <point x="270" y="0" type="line"/>
      <point x="270" y="25" type="line"/>
      <point x="237" y="36"/>
      <point x="216" y="39"/>
      <point x="204" y="51" type="curve" smooth="yes"/>
      <point x="195" y="60"/>
      <point x="190" y="81"/>
      <point x="190" y="111" type="curve" smooth="yes"/>
      <point x="190" y="113"/>
      <point x="188" y="302"/>
      <point x="191" y="506" type="curve" smooth="yes"/>
      <point x="191" y="532"/>
      <point x="195" y="556"/>
      <point x="204" y="567" type="curve" smooth="yes"/>
      <point x="215" y="581"/>
      <point x="257" y="586"/>
      <point x="288" y="591" type="curve"/>
      <point x="288" y="616" type="line"/>
      <point x="18" y="616" type="line"/>
      <point x="18" y="591" type="line"/>
      <point x="61" y="580"/>
      <point x="83" y="576"/>
      <point x="94" y="565" type="curve" smooth="yes"/>
      <point x="103" y="556"/>
      <point x="107" y="538"/>
      <point x="108" y="505" type="curve" smooth="yes"/>
      <point x="108" y="474"/>
      <point x="109" y="156"/>
      <point x="107" y="101" type="curve" smooth="yes"/>
      <point x="106" y="75"/>
      <point x="103" y="60"/>
      <point x="94" y="49" type="curve" smooth="yes"/>
      <point x="83" y="35"/>
      <point x="41" y="30"/>
      <point x="18" y="25" type="curve"/>
    </contour>
    <contour>
      <point x="251" y="140" type="curve" smooth="yes"/>
      <point x="380" y="140"/>
      <point x="468" y="206"/>
      <point x="468" y="317" type="curve" smooth="yes"/>
      <point x="468" y="421"/>
      <point x="391" y="489"/>
      <point x="279" y="487" type="curve"/>
      <point x="260" y="453" type="line"/>
      <point x="334" y="453"/>
      <point x="382" y="397"/>
      <point x="382" y="305" type="curve" smooth="yes"/>
      <point x="382" y="215"/>
      <point x="319" y="164"/>
      <point x="220" y="164" type="curve"/>
      <point x="220" y="141" type="line"/>
      <point x="231" y="140"/>
      <point x="241" y="140"/>
    </contour>
    <contour>
      <point x="157" y="452" type="line"/>
      <point x="260" y="453" type="line"/>
      <point x="279" y="487" type="line"/>
      <point x="157" y="486" type="line"/>
    </contour>
  </outline>
</glyph>
<glyph name="germandbls" format="2">
  <advance width="504"/>
  <unicode hex="00DF"/>
  <anchor x="252" y="0" name="bottom"/>
  <anchor x="252" y="694" name="top"/>
  <outline>
    <contour>
      <point x="18" y="0" type="line"/>
      <point x="149" y="0" type="line"/>
      <point x="147" y="69" type="line" smooth="yes"/>
      <point x="143" y="188"/>
      <point x="143" y="367"/>
      <point x="146" y="499" type="curve" smooth="yes"/>
      <point x="148" y="574"/>
      <point x="186" y="627"/>
      <point x="229" y="627" type="curve"/>
      <point x="266" y="665" type="line"/>
      <point x="160" y="665"/>
      <point x="76" y="583"/>
      <point x="73" y="467" type="curve" smooth="yes"/>
      <point x="71" y="392"/>
      <point x="72" y="238"/>
      <point x="72" y="69" type="curve" smooth="yes"/>
      <point x="72" y="46"/>
      <point x="56" y="35"/>
      <point x="18" y="18" type="curve"/>
    </contour>
    <contour>
      <point x="337" y="-6" type="curve" smooth="yes"/>
      <point x="414" y="-6"/>
      <point x="486" y="47"/>
      <point x="486" y="129" type="curve" smooth="yes"/>
      <point x="486" y="247"/>
      <point x="301" y="261"/>
      <point x="301" y="339" type="curve" smooth="yes"/>
      <point x="301" y="430"/>
      <point x="409" y="394"/>
      <point x="402" y="550" type="curve" smooth="yes"/>
      <point x="399" y="613"/>
      <point x="344" y="665"/>
      <point x="266" y="665" type="curve"/>
      <point x="229" y="627" type="line"/>
      <point x="288" y="627"/>
      <point x="328" y="580"/>
      <point x="331" y="524" type="curve" smooth="yes"/>
      <point x="338" y="388"/>
      <point x="232" y="420"/>
      <point x="232" y="309" type="curve" smooth="yes"/>
      <point x="232" y="189"/>
      <point x="415" y="194"/>
      <point x="415" y="103" type="curve" smooth="yes"/>
      <point x="415" y="50"/>
      <point x="373" y="19"/>
      <point x="340" y="22" type="curve" smooth="yes"/>
      <point x="302" y="25"/>
      <point x="262" y="64"/>
      <point x="256" y="122" type="curve"/>
      <point x="229" y="122" type="line"/>
      <point x="233" y="110"/>
      <point x="234" y="62"/>
      <point x="232" y="6" type="curve"/>
      <point x="264" y="-3"/>
      <point x="312" y="-6"/>
    </contour>
    <contour>
      <point x="-1" y="349" type="line"/>
      <point x="127" y="334" type="line"/>
      <point x="127" y="389" type="line"/>
      <point x="68" y="384" type="line"/>
      <point x="-1" y="359" type="line"/>
    </contour>
  </outline>
</glyph>
<glyph name="divide" format="2">
  <advance width="594"/>
  <unicode hex="00F7"/>
  <outline>
    <contour>
      <point x="54" y="256" type="line"/>
      <point x="540" y="256" type="line"/>
      <point x="540" y="306" type="line"/>
      <point x="54" y="306" type="line"/>
    </contour>
    <contour>
      <point x="291" y="56" type="curve" smooth="yes"/>
      <point x="324" y="56"/>
      <point x="341" y="73"/>
      <point x="341" y="107" type="curve" smooth="yes"/>
      <point x="341" y="141"/>
      <point x="324" y="158"/>
      <point x="291" y="158" type="curve" smooth="yes"/>
      <point x="256" y="158"/>
      <point x="239" y="141"/>
      <point x="239" y="107" type="curve" smooth="yes"/>
      <point x="239" y="73"/>
      <point x="256" y="56"/>
    </contour>
    <contour>
      <point x="291" y="398" type="curve" smooth="yes"/>
      <point x="324" y="398"/>
      <point x="341" y="415"/>
      <point x="341" y="449" type="curve" smooth="yes"/>
      <point x="341" y="483"/>
      <point x="324" y="500"/>
      <point x="291" y="500" type="curve" smooth="yes"/>
      <point x="256" y="500"/>
      <point x="239" y="483"/>
      <point x="239" y="449" type="curve" smooth="yes"/>
      <point x="239" y="415"/>
      <point x="256" y="398"/>
    </contour>
  </outline>
</glyph>
<glyph name="dcroat" format="2">
  <advance width="486"/>
  <unicode hex="0111"/>
  <anchor x="227" y="0" name="bottom"/>
  <anchor x="365" y="555" name="center"/>
  <anchor x="153" y="384" name="top"/>
  <anchor x="430" y="694" name="topright"/>
  <outline>
    <contour>
      <point x="276" y="479" type="line"/>
      <point x="290" y="441" type="line"/>
      <point x="477" y="509" type="line"/>
      <point x="464" y="547" type="line"/>
    </contour>
    <component base="d"/>
  </outline>
</glyph>
<glyph name="hbar" format="2">
  <advance width="486"/>
  <unicode hex="0127"/>
  <anchor x="243" y="0" name="bottom"/>
  <anchor x="122" y="555" name="center"/>
  <anchor x="117" y="640" name="top"/>
  <outline>
    <contour>
      <point x="6" y="461" type="line"/>
      <point x="20" y="423" type="line"/>
      <point x="207" y="491" type="line"/>
      <point x="194" y="529" type="line"/>
    </contour>
    <component base="h"/>
  </outline>
</glyph>
<glyph name="idotless" format="2">
  <advance width="234"/>
  <unicode hex="0131"/>
  <anchor x="117" y="0" name="bottom"/>
  <anchor x="216" y="0" name="ogonek"/>
  <anchor x="117" y="384" name="top"/>
  <outline>
    <contour>
      <point x="36" y="18" type="curve"/>
      <point x="36" y="0" type="line"/>
      <point x="216" y="0" type="line"/>
      <point x="216" y="18" type="line"/>
      <point x="177" y="32"/>
      <point x="162" y="39"/>
      <point x="162" y="68" type="curve" smooth="yes"/>
      <point x="162" y="148"/>
      <point x="160" y="234"/>
      <point x="162" y="314" type="curve" smooth="yes"/>
      <point x="164" y="393" type="line"/>
      <point x="148" y="403" type="line"/>
      <point x="18" y="362" type="line"/>
      <point x="18" y="341" type="line"/>
      <point x="46" y="333"/>
      <point x="86" y="320"/>
      <point x="87" y="298" type="curve" smooth="yes"/>
      <point x="91" y="223"/>
      <point x="91" y="143"/>
      <point x="87" y="68" type="curve" smooth="yes"/>
      <point x="85" y="39"/>
      <point x="70" y="32"/>
    </contour>
  </outline>
</glyph>
<glyph name="Lslash" format="2">
  <advance width="612"/>
  <unicode hex="0141"/>
  <anchor x="301" y="0" name="bottom"/>
  <anchor x="306" y="308" name="center"/>
  <anchor x="152" y="616" name="top"/>
  <anchor x="269" y="616" name="topright"/>
  <outline>
    <contour>
      <point x="27" y="314" type="line"/>
      <point x="43" y="268" type="line"/>
      <point x="270" y="351" type="line"/>
      <point x="255" y="397" type="line"/>
    </contour>
    <component base="L"/>
  </outline>
</glyph>
<glyph name="Oopen" format="2">
  <advance width="720"/>
  <unicode hex="0186"/>
  <anchor x="316" y="0" name="bottom"/>
  <anchor x="316" y="616" name="top"/>
  <outline>
    <contour>
      <point x="316" y="627" type="curve" smooth="yes"/>
      <point x="241" y="627"/>
      <point x="148" y="607"/>
      <point x="92" y="578" type="curve"/>
      <point x="74" y="510"/>
      <point x="58" y="442"/>
      <point x="54" y="415" type="curve"/>
      <point x="90" y="416" type="line"/>
      <point x="114" y="514"/>
      <point x="200" y="583"/>
      <point x="298" y="583" type="curve" smooth="yes"/>
      <point x="452" y="583"/>
      <point x="571" y="458"/>
      <point x="571" y="281" type="curve" smooth="yes"/>
      <point x="571" y="134"/>
      <point x="453" y="28"/>
      <point x="304" y="28" type="curve" smooth="yes"/>
      <point x="206" y="28"/>
      <point x="135" y="88"/>
      <point x="131" y="172" type="curve"/>
      <point x="100" y="172" type="line"/>
      <point x="98" y="127"/>
      <point x="91" y="65"/>
      <point x="84" y="21" type="curve"/>
      <point x="134" y="2"/>
      <point x="230" y="-11"/>
      <point x="316" y="-11" type="curve" smooth="yes"/>
      <point x="523" y="-11"/>
      <point x="666" y="120"/>
      <point x="666" y="304" type="curve" smooth="yes"/>
      <point x="666" y="493"/>
      <point x="523" y="627"/>
    </contour>
  </outline>
</glyph>
<glyph name="Eopen" format="2">
  <advance width="540"/>
  <unicode hex="0190"/>
  <anchor x="270" y="0" name="bottom"/>
  <anchor x="305" y="616" name="top"/>
  <outline>
    <contour>
      <point x="263" y="-11" type="curve" smooth="yes"/>
      <point x="347" y="-11"/>
      <point x="445" y="37"/>
      <point x="498" y="104" type="curve"/>
      <point x="476" y="126" type="line"/>
      <point x="438" y="83"/>
      <point x="374" y="53"/>
      <point x="321" y="53" type="curve" smooth="yes"/>
      <point x="215" y="53"/>
      <point x="140" y="110"/>
      <point x="140" y="191" type="curve" smooth="yes"/>
      <point x="140" y="224"/>
      <point x="178" y="264"/>
      <point x="231" y="287" type="curve"/>
      <point x="235" y="286" type="line"/>
      <point x="240" y="290" type="line"/>
      <point x="266" y="301"/>
      <point x="307" y="312"/>
      <point x="339" y="317" type="curve"/>
      <point x="329" y="351" type="line"/>
      <point x="220" y="370"/>
      <point x="143" y="434"/>
      <point x="143" y="505" type="curve" smooth="yes"/>
      <point x="143" y="554"/>
      <point x="206" y="589"/>
      <point x="294" y="589" type="curve" smooth="yes"/>
      <point x="359" y="589"/>
      <point x="407" y="529"/>
      <point x="409" y="444" type="curve"/>
      <point x="440" y="444" type="line"/>
      <point x="443" y="494"/>
      <point x="449" y="557"/>
      <point x="456" y="595" type="curve"/>
      <point x="420" y="614"/>
      <point x="363" y="627"/>
      <point x="318" y="627" type="curve" smooth="yes"/>
      <point x="173" y="627"/>
      <point x="70" y="554"/>
      <point x="70" y="451" type="curve" smooth="yes"/>
      <point x="70" y="398"/>
      <point x="120" y="340"/>
      <point x="191" y="310" type="curve"/>
      <point x="111" y="272"/>
      <point x="54" y="198"/>
      <point x="54" y="131" type="curve" smooth="yes"/>
      <point x="54" y="48"/>
      <point x="141" y="-11"/>
    </contour>
  </outline>
</glyph>
<glyph name="Fhook" format="2">
  <advance width="486"/>
  <unicode hex="0191"/>
  <outline>
    <contour>
      <point x="108" y="81" type="curve"/>
      <point x="189" y="148" type="line"/>
      <point x="187" y="305"/>
      <point x="188" y="421"/>
      <point x="191" y="578" type="curve"/>
      <point x="212" y="579"/>
      <point x="261" y="580"/>
      <point x="283" y="580" type="curve" smooth="yes"/>
      <point x="311" y="580"/>
      <point x="333" y="580"/>
      <point x="365" y="578" type="curve" smooth="yes"/>
      <point x="390" y="576"/>
      <point x="412" y="544"/>
      <point x="420" y="499" type="curve"/>
      <point x="452" y="499" type="line"/>
      <point x="454" y="536"/>
      <point x="461" y="586"/>
      <point x="468" y="619" type="curve"/>
      <point x="403" y="617"/>
      <point x="268" y="616"/>
      <point x="148" y="616" type="curve"/>
      <point x="99" y="616"/>
      <point x="48" y="617"/>
      <point x="19" y="618" type="curve"/>
      <point x="19" y="592" type="line"/>
      <point x="54" y="586"/>
      <point x="77" y="584"/>
      <point x="92" y="572" type="curve" smooth="yes"/>
      <point x="101" y="563"/>
      <point x="107" y="550"/>
      <point x="107" y="525" type="curve" smooth="yes"/>
      <point x="109" y="380"/>
      <point x="110" y="226"/>
    </contour>
    <contour>
      <point x="369" y="206" type="line"/>
      <point x="393" y="206" type="line"/>
      <point x="387" y="272"/>
      <point x="387" y="364"/>
      <point x="393" y="430" type="curve"/>
      <point x="368" y="430" type="line"/>
      <point x="367" y="424"/>
      <point x="362" y="410"/>
      <point x="357" y="396" type="curve"/>
      <point x="340" y="360"/>
      <point x="317" y="336"/>
      <point x="275" y="336" type="curve" smooth="yes"/>
      <point x="141" y="336" type="line"/>
      <point x="141" y="296" type="line"/>
      <point x="275" y="296" type="line" smooth="yes"/>
      <point x="324" y="296"/>
      <point x="346" y="274"/>
      <point x="358" y="242" type="curve" smooth="yes"/>
    </contour>
    <contour>
      <point x="189" y="148" type="curve"/>
      <point x="108" y="81" type="line"/>
      <point x="108" y="33"/>
      <point x="108" y="-90"/>
      <point x="77" y="-138" type="curve" smooth="yes"/>
      <point x="70" y="-150"/>
      <point x="60" y="-157"/>
      <point x="48" y="-157" type="curve" smooth="yes"/>
      <point x="29" y="-158"/>
      <point x="27" y="-135"/>
      <point x="8" y="-134" type="curve" smooth="yes"/>
      <point x="-25" y="-134"/>
      <point x="-48" y="-163"/>
      <point x="-48" y="-205" type="curve" smooth="yes"/>
      <point x="-48" y="-220"/>
      <point x="-30" y="-232"/>
      <point x="-4" y="-232" type="curve" smooth="yes"/>
      <point x="30" y="-232"/>
      <point x="85" y="-190"/>
      <point x="103" y="-164" type="curve" smooth="yes"/>
      <point x="150" y="-96"/>
      <point x="191" y="29"/>
    </contour>
  </outline>
</glyph>
<glyph name="florin" format="2">
  <advance width="432"/>
  <unicode hex="0192"/>
  <outline>
    <contour>
      <point x="139" y="81" type="curve" smooth="yes"/>
      <point x="139" y="33"/>
      <point x="138" y="-90"/>
      <point x="107" y="-138" type="curve" smooth="yes"/>
      <point x="100" y="-150"/>
      <point x="90" y="-157"/>
      <point x="78" y="-157" type="curve" smooth="yes"/>
      <point x="59" y="-158"/>
      <point x="57" y="-135"/>
      <point x="38" y="-134" type="curve" smooth="yes"/>
      <point x="5" y="-134"/>
      <point x="-18" y="-163"/>
      <point x="-18" y="-205" type="curve" smooth="yes"/>
      <point x="-18" y="-220"/>
      <point x="0" y="-232"/>
      <point x="26" y="-232" type="curve" smooth="yes"/>
      <point x="60" y="-232"/>
      <point x="115" y="-190"/>
      <point x="133" y="-164" type="curve" smooth="yes"/>
      <point x="180" y="-96"/>
      <point x="211" y="29"/>
      <point x="211" y="148" type="curve" smooth="yes"/>
      <point x="211" y="234"/>
      <point x="211" y="304"/>
      <point x="211" y="449" type="curve" smooth="yes"/>
      <point x="211" y="510"/>
      <point x="212" y="624"/>
      <point x="281" y="624" type="curve" smooth="yes"/>
      <point x="304" y="624"/>
      <point x="313" y="617"/>
      <point x="322" y="606" type="curve" smooth="yes"/>
      <point x="331" y="593"/>
      <point x="335" y="576"/>
      <point x="346" y="567" type="curve" smooth="yes"/>
      <point x="369" y="546"/>
      <point x="431" y="615"/>
      <point x="409" y="638" type="curve" smooth="yes"/>
      <point x="391" y="656"/>
      <point x="358" y="665"/>
      <point x="317" y="665" type="curve" smooth="yes"/>
      <point x="259" y="665"/>
      <point x="211" y="631"/>
      <point x="183" y="590" type="curve" smooth="yes"/>
      <point x="149" y="540"/>
      <point x="139" y="492"/>
      <point x="139" y="387" type="curve" smooth="yes"/>
      <point x="139" y="304"/>
      <point x="139" y="233"/>
    </contour>
    <contour>
      <point x="354" y="334" type="line"/>
      <point x="354" y="389" type="line"/>
      <point x="145" y="384" type="line"/>
      <point x="66" y="359" type="line"/>
      <point x="66" y="349" type="line"/>
    </contour>
  </outline>
</glyph>
<glyph name="jdotless" format="2">
  <advance width="216"/>
  <unicode hex="0237"/>
  <anchor x="108" y="-232" name="bottom"/>
  <anchor x="102" y="384" name="top"/>
  <outline>
    <contour>
      <point x="19" y="-224" type="curve" smooth="yes"/>
      <point x="30" y="-219"/>
      <point x="35" y="-216"/>
      <point x="57" y="-201" type="curve" smooth="yes"/>
      <point x="109" y="-164"/>
      <point x="144" y="-51"/>
      <point x="144" y="68" type="curve" smooth="yes"/>
      <point x="144" y="314" type="line"/>
      <point x="146" y="393" type="line"/>
      <point x="131" y="403" type="line"/>
      <point x="0" y="362" type="line"/>
      <point x="0" y="341" type="line"/>
      <point x="35" y="326"/>
      <point x="70" y="309"/>
      <point x="70" y="298" type="curve" smooth="yes"/>
      <point x="72" y="254"/>
      <point x="73" y="128"/>
      <point x="73" y="1" type="curve" smooth="yes"/>
      <point x="73" y="-87"/>
      <point x="57" y="-160"/>
      <point x="34" y="-178" type="curve"/>
      <point x="31" y="-179"/>
      <point x="27" y="-179"/>
      <point x="23" y="-179" type="curve" smooth="yes"/>
      <point x="19" y="-179"/>
      <point x="15" y="-179"/>
      <point x="12" y="-178" type="curve" smooth="yes"/>
      <point x="-2" y="-174"/>
      <point x="3" y="-168"/>
      <point x="-12" y="-164" type="curve" smooth="yes"/>
      <point x="-33" y="-158"/>
      <point x="-56" y="-191"/>
      <point x="-56" y="-212" type="curve" smooth="yes"/>
      <point x="-56" y="-221"/>
      <point x="-53" y="-228"/>
      <point x="-44" y="-230" type="curve" smooth="yes"/>
      <point x="-38" y="-231"/>
      <point x="-32" y="-232"/>
      <point x="-25" y="-232" type="curve" smooth="yes"/>
      <point x="-10" y="-232"/>
      <point x="6" y="-230"/>
    </contour>
  </outline>
</glyph>
<glyph name="oopen" format="2">
  <advance width="396"/>
  <unicode hex="0254"/>
  <anchor x="196" y="0" name="bottom"/>
  <anchor x="196" y="384" name="top"/>
  <outline>
    <contour>
      <point x="303" y="174" type="curve" smooth="yes"/>
      <point x="303" y="82"/>
      <point x="261" y="17"/>
      <point x="201" y="17" type="curve"/>
      <point x="187" y="-11" type="line"/>
      <point x="299" y="-11"/>
      <point x="378" y="75"/>
      <point x="378" y="196" type="curve" smooth="yes"/>
      <point x="378" y="313"/>
      <point x="303" y="395"/>
      <point x="198" y="395" type="curve" smooth="yes"/>
      <point x="127" y="395"/>
      <point x="52" y="348"/>
      <point x="18" y="281" type="curve"/>
      <point x="36" y="268" type="line"/>
      <point x="64" y="305"/>
      <point x="123" y="332"/>
      <point x="177" y="332" type="curve" smooth="yes"/>
      <point x="251" y="332"/>
      <point x="303" y="267"/>
    </contour>
    <contour>
      <point x="187" y="-11" type="curve"/>
      <point x="201" y="17" type="line"/>
      <point x="138" y="17"/>
      <point x="93" y="65"/>
      <point x="91" y="133" type="curve"/>
      <point x="52" y="133" type="line"/>
      <point x="54" y="84"/>
      <point x="53" y="35"/>
      <point x="49" y="13" type="curve"/>
      <point x="90" y="-1"/>
      <point x="147" y="-11"/>
    </contour>
  </outline>
</glyph>
<glyph name="gravecomb" format="2">
  <unicode hex="0300"/>
  <anchor x="155" y="384" name="_top"/>
  <anchor x="155" y="628" name="top"/>
  <outline>
    <contour>
      <point x="232" y="473" type="line"/>
      <point x="146" y="624" type="line"/>
      <point x="141" y="632"/>
      <point x="125" y="629"/>
      <point x="106" y="617" type="curve" smooth="yes"/>
      <point x="90" y="604"/>
      <point x="74" y="591"/>
      <point x="80" y="584" type="curve"/>
      <point x="217" y="462" type="line"/>
    </contour>
  </outline>
</glyph>
<glyph name="dieresiscomb" format="2">
  <unicode hex="0308"/>
  <anchor x="150" y="384" name="_top"/>
  <anchor x="150" y="517" name="top"/>
  <outline>
    <contour>
      <point x="64" y="477" type="curve" smooth="yes"/>
      <point x="93" y="477"/>
      <point x="113" y="496"/>
      <point x="113" y="522" type="curve" smooth="yes"/>
      <point x="113" y="548"/>
      <point x="93" y="567"/>
      <point x="64" y="567" type="curve" smooth="yes"/>
      <point x="35" y="567"/>
      <point x="15" y="548"/>
      <point x="15" y="522" type="curve" smooth="yes"/>
      <point x="15" y="496"/>
      <point x="35" y="477"/>
    </contour>
    <contour>
      <point x="236" y="477" type="curve" smooth="yes"/>
      <point x="265" y="477"/>
      <point x="285" y="496"/>
      <point x="285" y="522" type="curve" smooth="yes"/>
      <point x="285" y="548"/>
      <point x="265" y="567"/>
      <point x="236" y="567" type="curve" smooth="yes"/>
      <point x="207" y="567"/>
      <point x="187" y="548"/>
      <point x="187" y="522" type="curve" smooth="yes"/>
      <point x="187" y="496"/>
      <point x="207" y="477"/>
    </contour>
  </outline>
</glyph>
<glyph name="Delta" format="2">
  <advance width="598"/>
  <unicode hex="0394"/>
  <unicode hex="2206"/>
  <outline>
    <contour>
      <point x="468" y="0" type="line"/>
      <point x="562" y="0" type="line"/>
      <point x="492" y="176"/>
      <point x="370" y="484"/>
      <point x="305" y="648" type="curve"/>
      <point x="265" y="576" type="line"/>
      <point x="258" y="550" type="line"/>
    </contour>
    <contour>
      <point x="36" y="0" type="curve"/>
      <point x="91" y="0" type="line"/>
      <point x="298" y="564" type="line"/>
      <point x="265" y="576" type="line"/>
      <point x="203" y="412"/>
      <point x="99" y="127"/>
    </contour>
    <contour>
      <point x="58" y="0" type="line"/>
      <point x="528" y="0" type="line"/>
      <point x="514" y="58" type="line"/>
      <point x="75" y="58" type="line"/>
    </contour>
  </outline>
</glyph>
<glyph name="Zeta" format="2">
  <advance width="648"/>
  <unicode hex="0396"/>
  <outline>
    <contour>
      <point x="44" y="0" type="line"/>
      <point x="171" y="0"/>
      <point x="366" y="1"/>
      <point x="395" y="1" type="curve" smooth="yes"/>
      <point x="425" y="1"/>
      <point x="495" y="1"/>
      <point x="536" y="-2" type="curve"/>
      <point x="562" y="57"/>
      <point x="584" y="143"/>
      <point x="594" y="210" type="curve"/>
      <point x="560" y="210" type="line"/>
      <point x="549" y="154"/>
      <point x="506" y="43"/>
      <point x="359" y="41" type="curve" smooth="yes"/>
      <point x="146" y="38" type="line"/>
      <point x="151" y="24" type="line"/>
      <point x="566" y="594" type="line"/>
      <point x="554" y="621" type="line"/>
      <point x="477" y="616"/>
      <point x="323" y="615"/>
      <point x="275" y="615" type="curve" smooth="yes"/>
      <point x="217" y="615"/>
      <point x="117" y="611"/>
      <point x="76" y="617" type="curve"/>
      <point x="67" y="554"/>
      <point x="61" y="490"/>
      <point x="60" y="427" type="curve"/>
      <point x="88" y="427" type="line"/>
      <point x="98" y="479"/>
      <point x="87" y="576"/>
      <point x="222" y="576" type="curve" smooth="yes"/>
      <point x="297" y="576"/>
      <point x="413" y="574"/>
      <point x="471" y="572" type="curve"/>
      <point x="461" y="596" type="line"/>
      <point x="36" y="12" type="line"/>
    </contour>
  </outline>
</glyph>
<glyph name="Pi" format="2">
  <advance width="684"/>
  <unicode hex="03A0"/>
  <outline>
    <contour>
      <point x="396" y="0" type="line"/>
      <point x="666" y="0" type="line"/>
      <point x="666" y="25" type="line"/>
      <point x="645" y="33"/>
      <point x="603" y="39"/>
      <point x="592" y="51" type="curve" smooth="yes"/>
      <point x="582" y="61"/>
      <point x="577" y="77"/>
      <point x="577" y="104" type="curve" smooth="yes"/>
      <point x="575" y="330" type="line" smooth="yes"/>
      <point x="574" y="391"/>
      <point x="576" y="451"/>
      <point x="577" y="512" type="curve" smooth="yes"/>
      <point x="577" y="539"/>
      <point x="581" y="554"/>
      <point x="592" y="565" type="curve" smooth="yes"/>
      <point x="603" y="577"/>
      <point x="645" y="583"/>
      <point x="666" y="591" type="curve"/>
      <point x="666" y="616" type="line"/>
      <point x="396" y="616" type="line"/>
      <point x="396" y="553" type="line"/>
      <point x="496" y="551" type="line"/>
      <point x="496" y="512" type="line"/>
      <point x="498" y="329" type="line"/>
      <point x="496" y="104" type="line" smooth="yes"/>
      <point x="496" y="78"/>
      <point x="492" y="63"/>
      <point x="483" y="52" type="curve" smooth="yes"/>
      <point x="472" y="40"/>
      <point x="428" y="33"/>
      <point x="396" y="25" type="curve"/>
    </contour>
    <contour>
      <point x="18" y="0" type="line"/>
      <point x="288" y="0" type="line"/>
      <point x="288" y="25" type="line"/>
      <point x="257" y="33"/>
      <point x="214" y="39"/>
      <point x="203" y="51" type="curve" smooth="yes"/>
      <point x="193" y="61"/>
      <point x="188" y="77"/>
      <point x="188" y="104" type="curve" smooth="yes"/>
      <point x="186" y="326" type="line" smooth="yes"/>
      <point x="185" y="388"/>
      <point x="187" y="450"/>
      <point x="188" y="512" type="curve" smooth="yes"/>
      <point x="188" y="553" type="line"/>
      <point x="288" y="553" type="line"/>
      <point x="288" y="616" type="line"/>
      <point x="18" y="616" type="line"/>
      <point x="18" y="591" type="line"/>
      <point x="40" y="583"/>
      <point x="83" y="576"/>
      <point x="94" y="564" type="curve" smooth="yes"/>
      <point x="103" y="553"/>
      <point x="107" y="538"/>
      <point x="107" y="512" type="curve" smooth="yes"/>
      <point x="109" y="327" type="line"/>
      <point x="107" y="104" type="line" smooth="yes"/>
      <point x="107" y="78"/>
      <point x="103" y="63"/>
      <point x="94" y="52" type="curve" smooth="yes"/>
      <point x="83" y="40"/>
      <point x="40" y="33"/>
      <point x="18" y="25" type="curve"/>
    </contour>
    <contour>
      <point x="288" y="553" type="line"/>
      <point x="396" y="553" type="line"/>
      <point x="396" y="616" type="line"/>
      <point x="288" y="616" type="line"/>
    </contour>
  </outline>
</glyph>
<glyph name="Sigma" format="2">
  <advance width="522"/>
  <unicode hex="03A3"/>
  <outline>
    <contour>
      <point x="462" y="-3" type="curve"/>
      <point x="474" y="44"/>
      <point x="484" y="110"/>
      <point x="486" y="157" type="curve"/>
      <point x="457" y="157" type="line"/>
      <point x="445" y="90"/>
      <point x="406" y="46"/>
      <point x="363" y="43" type="curve" smooth="yes"/>
      <point x="331" y="41"/>
      <point x="325" y="41"/>
      <point x="268" y="41" type="curve"/>
      <point x="94" y="42" type="line"/>
      <point x="175" y="142"/>
      <point x="234" y="235"/>
      <point x="323" y="331" type="curve"/>
      <point x="132" y="576" type="line"/>
      <point x="169" y="578"/>
      <point x="257" y="578"/>
      <point x="279" y="578" type="curve" smooth="yes"/>
      <point x="307" y="578"/>
      <point x="324" y="578"/>
      <point x="356" y="576" type="curve" smooth="yes"/>
      <point x="381" y="574"/>
      <point x="404" y="544"/>
      <point x="412" y="499" type="curve"/>
      <point x="446" y="499" type="line"/>
      <point x="447" y="536"/>
      <point x="452" y="586"/>
      <point x="459" y="619" type="curve"/>
      <point x="394" y="617"/>
      <point x="269" y="616"/>
      <point x="148" y="616" type="curve" smooth="yes"/>
      <point x="99" y="616"/>
      <point x="47" y="617"/>
      <point x="18" y="618" type="curve"/>
      <point x="18" y="576" type="line"/>
      <point x="98" y="483"/>
      <point x="175" y="387"/>
      <point x="247" y="286" type="curve"/>
      <point x="261" y="332" type="line"/>
      <point x="18" y="37" type="line"/>
      <point x="18" y="-2" type="line"/>
      <point x="138" y="0" type="line" smooth="yes"/>
      <point x="281" y="0"/>
      <point x="385" y="-1"/>
    </contour>
  </outline>
</glyph>
<glyph name="Omega" format="2">
  <advance width="682"/>
  <unicode hex="03A9"/>
  <unicode hex="2126"/>
  <anchor x="341" y="0" name="bottom"/>
  <anchor x="-17" y="616" name="topleft"/>
  <outline>
    <contour>
      <point x="406" y="37" type="curve"/>
      <point x="406" y="0" type="line"/>
      <point x="461" y="1"/>
      <point x="565" y="0"/>
      <point x="658" y="-3" type="curve"/>
      <point x="656" y="55"/>
      <point x="658" y="114"/>
      <point x="664" y="139" type="curve"/>
      <point x="635" y="139" type="line"/>
      <point x="621" y="83"/>
      <point x="590" y="42"/>
      <point x="559" y="40" type="curve" smooth="yes"/>
      <point x="545" y="38"/>
      <point x="482" y="37"/>
    </contour>
    <contour>
      <point x="276" y="37" type="line"/>
      <point x="200" y="37"/>
      <point x="137" y="38"/>
      <point x="123" y="40" type="curve" smooth="yes"/>
      <point x="92" y="42"/>
      <point x="61" y="83"/>
      <point x="47" y="139" type="curve"/>
      <point x="18" y="139" type="line"/>
      <point x="24" y="114"/>
      <point x="26" y="55"/>
      <point x="24" y="-3" type="curve"/>
      <point x="117" y="0"/>
      <point x="221" y="1"/>
      <point x="276" y="0" type="curve"/>
    </contour>
    <contour>
      <point x="395" y="61" type="line"/>
      <point x="542" y="93"/>
      <point x="646" y="175"/>
      <point x="646" y="344" type="curve" smooth="yes"/>
      <point x="646" y="517"/>
      <point x="526" y="626"/>
      <point x="336" y="626" type="curve" smooth="yes"/>
      <point x="150" y="626"/>
      <point x="34" y="518"/>
      <point x="34" y="345" type="curve" smooth="yes"/>
      <point x="34" y="177"/>
      <point x="136" y="87"/>
      <point x="285" y="55" type="curve"/>
      <point x="287" y="116" type="line"/>
      <point x="196" y="152"/>
      <point x="130" y="221"/>
      <point x="130" y="354" type="curve" smooth="yes"/>
      <point x="130" y="496"/>
      <point x="203" y="585"/>
      <point x="320" y="585" type="curve" smooth="yes"/>
      <point x="461" y="585"/>
      <point x="550" y="488"/>
      <point x="550" y="334" type="curve" smooth="yes"/>
      <point x="550" y="189"/>
      <point x="483" y="133"/>
      <point x="395" y="117" type="curve"/>
    </contour>
    <contour>
      <point x="395" y="117" type="line"/>
      <point x="395" y="1" type="line"/>
      <point x="441" y="1" type="line"/>
      <point x="459" y="117" type="line"/>
    </contour>
    <contour>
      <point x="241" y="116" type="line"/>
      <point x="223" y="0" type="line"/>
      <point x="287" y="0" type="line"/>
      <point x="287" y="116" type="line"/>
    </contour>
  </outline>
</glyph>
<glyph name="delta" format="2">
  <advance width="468"/>
  <unicode hex="03B4"/>
  <outline>
    <contour>
      <point x="230" y="-8" type="curve" smooth="yes"/>
      <point x="354" y="-8"/>
      <point x="423" y="77"/>
      <point x="423" y="196" type="curve" smooth="yes"/>
      <point x="423" y="311"/>
      <point x="354" y="392"/>
      <point x="230" y="392" type="curve" smooth="yes"/>
      <point x="111" y="392"/>
      <point x="45" y="306"/>
      <point x="45" y="185" type="curve" smooth="yes"/>
      <point x="45" y="72"/>
      <point x="111" y="-8"/>
    </contour>
    <contour>
      <point x="127" y="208" type="curve" smooth="yes"/>
      <point x="127" y="295"/>
      <point x="156" y="356"/>
      <point x="222" y="356" type="curve" smooth="yes"/>
      <point x="302" y="356"/>
      <point x="341" y="281"/>
      <point x="341" y="174" type="curve" smooth="yes"/>
      <point x="341" y="88"/>
      <point x="309" y="28"/>
      <point x="238" y="28" type="curve" smooth="yes"/>
      <point x="162" y="28"/>
      <point x="127" y="103"/>
    </contour>
    <contour>
      <point x="230" y="-8" type="curve" smooth="yes"/>
      <point x="354" y="-8"/>
      <point x="423" y="77"/>
      <point x="423" y="196" type="curve" smooth="yes"/>
      <point x="423" y="311"/>
      <point x="354" y="392"/>
      <point x="230" y="392" type="curve" smooth="yes"/>
      <point x="111" y="392"/>
      <point x="45" y="306"/>
      <point x="45" y="185" type="curve" smooth="yes"/>
      <point x="45" y="72"/>
      <point x="111" y="-8"/>
    </contour>
    <contour>
      <point x="127" y="208" type="curve" smooth="yes"/>
      <point x="127" y="295"/>
      <point x="156" y="356"/>
      <point x="222" y="356" type="curve" smooth="yes"/>
      <point x="302" y="356"/>
      <point x="341" y="281"/>
      <point x="341" y="174" type="curve" smooth="yes"/>
      <point x="341" y="88"/>
      <point x="309" y="28"/>
      <point x="238" y="28" type="curve" smooth="yes"/>
      <point x="162" y="28"/>
      <point x="127" y="103"/>
    </contour>
    <contour>
      <point x="341" y="174" type="curve"/>
      <point x="423" y="196" type="line"/>
      <point x="423" y="357"/>
      <point x="308" y="406"/>
      <point x="238" y="466" type="curve" smooth="yes"/>
      <point x="207" y="493"/>
      <point x="186" y="502"/>
      <point x="186" y="544" type="curve"/>
      <point x="186" y="562"/>
      <point x="214" y="590"/>
      <point x="261" y="590" type="curve" smooth="yes"/>
      <point x="317" y="590"/>
      <point x="353" y="548"/>
      <point x="348" y="489" type="curve"/>
      <point x="387" y="489" type="line"/>
      <point x="386" y="514"/>
      <point x="388" y="560"/>
      <point x="391" y="600" type="curve"/>
      <point x="349" y="617"/>
      <point x="295" y="629"/>
      <point x="261" y="629" type="curve" smooth="yes"/>
      <point x="175" y="629"/>
      <point x="114" y="572"/>
      <point x="114" y="527" type="curve" smooth="yes"/>
      <point x="114" y="478"/>
      <point x="134" y="466"/>
      <point x="163" y="441" type="curve" smooth="yes"/>
      <point x="229" y="381"/>
      <point x="341" y="356"/>
    </contour>
  </outline>
</glyph>
<glyph name="epsilon" format="2">
  <advance width="360"/>
  <unicode hex="03B5"/>
  <anchor x="180" y="384" name="top"/>
  <outline>
    <contour>
      <point x="193" y="-5" type="curve" smooth="yes"/>
      <point x="239" y="-5"/>
      <point x="299" y="15"/>
      <point x="340" y="44" type="curve"/>
      <point x="327" y="77" type="line"/>
      <point x="295" y="56"/>
      <point x="252" y="41"/>
      <point x="224" y="41" type="curve" smooth="yes"/>
      <point x="153" y="41"/>
      <point x="112" y="72"/>
      <point x="112" y="124" type="curve" smooth="yes"/>
      <point x="112" y="161"/>
      <point x="148" y="187"/>
      <point x="211" y="187" type="curve" smooth="yes"/>
      <point x="240" y="187"/>
      <point x="271" y="184"/>
      <point x="287" y="179" type="curve"/>
      <point x="295" y="217" type="line"/>
      <point x="278" y="221"/>
      <point x="244" y="223"/>
      <point x="211" y="223" type="curve" smooth="yes"/>
      <point x="105" y="223"/>
      <point x="30" y="175"/>
      <point x="30" y="106" type="curve" smooth="yes"/>
      <point x="30" y="41"/>
      <point x="98" y="-5"/>
    </contour>
    <contour>
      <point x="229" y="249" type="move"/>
    </contour>
    <contour>
      <point x="211" y="187" type="curve" smooth="yes"/>
      <point x="255" y="187"/>
      <point x="287" y="179"/>
      <point x="287" y="179" type="curve"/>
      <point x="299" y="230" type="line"/>
      <point x="271" y="226"/>
      <point x="235" y="223"/>
      <point x="211" y="223" type="curve" smooth="yes"/>
      <point x="157" y="223"/>
      <point x="128" y="257"/>
      <point x="128" y="304" type="curve" smooth="yes"/>
      <point x="128" y="337"/>
      <point x="154" y="355"/>
      <point x="204" y="355" type="curve" smooth="yes"/>
      <point x="240" y="355"/>
      <point x="288" y="342"/>
      <point x="316" y="321" type="curve"/>
      <point x="338" y="358" type="line"/>
      <point x="307" y="380"/>
      <point x="255" y="396"/>
      <point x="214" y="396" type="curve" smooth="yes"/>
      <point x="116" y="396"/>
      <point x="47" y="351"/>
      <point x="47" y="288" type="curve" smooth="yes"/>
      <point x="47" y="229"/>
      <point x="115" y="187"/>
    </contour>
  </outline>
</glyph>
<glyph name="kappa" format="2">
  <advance width="432"/>
  <unicode hex="03BA"/>
  <outline>
    <contour>
      <point x="72" y="0" type="line"/>
      <point x="144" y="0" type="line"/>
      <point x="144" y="287" type="line"/>
      <point x="146" y="388" type="line"/>
      <point x="131" y="395" type="line"/>
      <point x="0" y="367" type="line"/>
      <point x="0" y="346" type="line"/>
      <point x="21" y="338"/>
      <point x="72" y="325"/>
      <point x="72" y="293" type="curve" smooth="yes"/>
    </contour>
    <contour>
      <point x="111" y="178" type="curve"/>
      <point x="123" y="125" type="line"/>
      <point x="325" y="339" type="line"/>
      <point x="341" y="356"/>
      <point x="364" y="351"/>
      <point x="406" y="361" type="curve"/>
      <point x="406" y="384" type="line"/>
      <point x="296" y="384" type="line"/>
      <point x="240" y="311"/>
      <point x="177" y="243"/>
    </contour>
    <contour>
      <point x="216" y="249" type="line"/>
      <point x="156" y="198" type="line"/>
      <point x="259" y="54" type="line" smooth="yes"/>
      <point x="269" y="40"/>
      <point x="293" y="0"/>
      <point x="335" y="0" type="curve"/>
      <point x="432" y="0" type="line"/>
      <point x="432" y="23" type="line"/>
      <point x="402" y="26"/>
      <point x="376" y="38"/>
      <point x="363" y="55" type="curve" smooth="yes"/>
    </contour>
  </outline>
</glyph>
<glyph name="mu" format="2">
  <advance width="500"/>
  <unicode hex="03BC"/>
  <outline>
    <contour>
      <point x="214" y="-11" type="curve" smooth="yes"/>
      <point x="258" y="-11"/>
      <point x="315" y="32"/>
      <point x="367" y="89" type="curve"/>
      <point x="367" y="108" type="line"/>
      <point x="335" y="75"/>
      <point x="286" y="49"/>
      <point x="249" y="49" type="curve" smooth="yes"/>
      <point x="198" y="49"/>
      <point x="160" y="77"/>
      <point x="158" y="145" type="curve" smooth="yes"/>
      <point x="156" y="201"/>
      <point x="160" y="265"/>
      <point x="161" y="321" type="curve" smooth="yes"/>
      <point x="163" y="394" type="line"/>
      <point x="150" y="403" type="line"/>
      <point x="15" y="369" type="line"/>
      <point x="15" y="351" type="line"/>
      <point x="63" y="337"/>
      <point x="89" y="332"/>
      <point x="89" y="301" type="curve" smooth="yes"/>
      <point x="90" y="111" type="line" smooth="yes"/>
      <point x="90" y="40"/>
      <point x="147" y="-11"/>
    </contour>
    <contour>
      <point x="86" y="-232" type="line"/>
      <point x="149" y="-232" type="line"/>
      <point x="156" y="-193"/>
      <point x="159" y="-119"/>
      <point x="159" y="-80" type="curve" smooth="yes"/>
      <point x="158" y="145" type="line"/>
      <point x="90" y="111" type="line"/>
      <point x="90" y="64"/>
      <point x="87" y="-21"/>
      <point x="87" y="-120" type="curve" smooth="yes"/>
    </contour>
    <contour>
      <point x="350" y="-11" type="line"/>
      <point x="483" y="17" type="line"/>
      <point x="483" y="38" type="line"/>
      <point x="450" y="41"/>
      <point x="409" y="55"/>
      <point x="409" y="76" type="curve" smooth="yes"/>
      <point x="412" y="321" type="line"/>
      <point x="414" y="394" type="line"/>
      <point x="401" y="403" type="line"/>
      <point x="267" y="369" type="line"/>
      <point x="267" y="351" type="line"/>
      <point x="313" y="337"/>
      <point x="336" y="331"/>
      <point x="338" y="301" type="curve" smooth="yes"/>
      <point x="343" y="219"/>
      <point x="340" y="146"/>
      <point x="335" y="64" type="curve"/>
      <point x="338" y="64" type="line"/>
      <point x="337" y="-5" type="line"/>
    </contour>
  </outline>
</glyph>
<glyph name="omicron" format="2">
  <advance width="486"/>
  <unicode hex="03BF"/>
  <anchor x="243" y="384" name="top"/>
  <outline>
    <contour>
      <point x="239" y="-8" type="curve" smooth="yes"/>
      <point x="363" y="-8"/>
      <point x="450" y="75"/>
      <point x="450" y="196" type="curve" smooth="yes"/>
      <point x="450" y="313"/>
      <point x="363" y="392"/>
      <point x="239" y="392" type="curve" smooth="yes"/>
      <point x="120" y="392"/>
      <point x="36" y="308"/>
      <point x="36" y="185" type="curve" smooth="yes"/>
      <point x="36" y="70"/>
      <point x="120" y="-8"/>
    </contour>
    <contour>
      <point x="118" y="208" type="curve" smooth="yes"/>
      <point x="118" y="296"/>
      <point x="166" y="356"/>
      <point x="231" y="356" type="curve" smooth="yes"/>
      <point x="310" y="356"/>
      <point x="368" y="282"/>
      <point x="368" y="174" type="curve" smooth="yes"/>
      <point x="368" y="87"/>
      <point x="317" y="28"/>
      <point x="247" y="28" type="curve" smooth="yes"/>
      <point x="173" y="28"/>
      <point x="118" y="101"/>
    </contour>
  </outline>
</glyph>
<glyph name="pi" format="2">
  <advance width="501"/>
  <unicode hex="03C0"/>
  <outline>
    <contour>
      <point x="392" y="-11" type="curve" smooth="yes"/>
      <point x="420" y="-11"/>
      <point x="448" y="5"/>
      <point x="483" y="27" type="curve"/>
      <point x="473" y="48" type="line"/>
      <point x="454" y="40"/>
      <point x="431" y="34"/>
      <point x="419" y="34" type="curve" smooth="yes"/>
      <point x="389" y="34"/>
      <point x="385" y="52"/>
      <point x="383" y="78" type="curve" smooth="yes"/>
      <point x="381" y="104"/>
      <point x="380" y="149"/>
      <point x="380" y="186" type="curve" smooth="yes"/>
      <point x="380" y="251"/>
      <point x="382" y="313"/>
      <point x="385" y="363" type="curve"/>
      <point x="312" y="381" type="line"/>
      <point x="305" y="222"/>
      <point x="304" y="83"/>
      <point x="308" y="46" type="curve" smooth="yes"/>
      <point x="312" y="13"/>
      <point x="347" y="-11"/>
    </contour>
    <contour>
      <point x="90" y="0" type="line"/>
      <point x="162" y="0" type="line"/>
      <point x="162" y="287" type="line"/>
      <point x="164" y="384" type="line"/>
      <point x="18" y="385" type="line"/>
      <point x="18" y="364" type="line"/>
      <point x="39" y="356"/>
      <point x="90" y="343"/>
      <point x="90" y="311" type="curve" smooth="yes"/>
    </contour>
    <contour>
      <point x="150" y="339" type="line"/>
      <point x="444" y="339" type="line"/>
      <point x="444" y="389" type="line"/>
      <point x="351" y="383"/>
      <point x="257" y="382"/>
      <point x="164" y="384" type="curve"/>
    </contour>
  </outline>
</glyph>
<glyph name="rho" format="2">
  <advance width="450"/>
  <unicode hex="03C1"/>
  <outline>
    <contour>
      <point x="335" y="210" type="curve"/>
      <point x="414" y="241" type="line"/>
      <point x="414" y="331"/>
      <point x="357" y="395"/>
      <point x="276" y="395" type="curve" smooth="yes"/>
      <point x="145" y="395"/>
      <point x="53" y="317"/>
      <point x="53" y="206" type="curve"/>
      <point x="134" y="240" type="line"/>
      <point x="134" y="303"/>
      <point x="174" y="348"/>
      <point x="231" y="348" type="curve" smooth="yes"/>
      <point x="292" y="348"/>
      <point x="335" y="291"/>
    </contour>
    <contour>
      <point x="414" y="241" type="curve"/>
      <point x="335" y="210" type="line"/>
      <point x="335" y="102"/>
      <point x="287" y="26"/>
      <point x="219" y="26" type="curve" smooth="yes"/>
      <point x="185" y="26"/>
      <point x="143" y="64"/>
      <point x="118" y="117" type="curve"/>
      <point x="92" y="28" type="line"/>
      <point x="124" y="5"/>
      <point x="168" y="-11"/>
      <point x="198" y="-11" type="curve" smooth="yes"/>
      <point x="325" y="-11"/>
      <point x="414" y="93"/>
    </contour>
    <contour>
      <point x="53" y="-232" type="line"/>
      <point x="124" y="-232" type="line"/>
      <point x="130" y="-186"/>
      <point x="132" y="-123"/>
      <point x="130" y="-80" type="curve" smooth="yes"/>
      <point x="129" y="-14"/>
      <point x="130" y="118"/>
      <point x="134" y="240" type="curve"/>
      <point x="53" y="206" type="line"/>
      <point x="54" y="205"/>
      <point x="56" y="70"/>
      <point x="54" y="-120" type="curve" smooth="yes"/>
    </contour>
  </outline>
</glyph>
<glyph name="sigma1" format="2">
  <advance width="378"/>
  <unicode hex="03C2"/>
  <outline>
    <contour>
      <point x="199" y="-158" type="line"/>
      <point x="285" y="-158"/>
      <point x="345" y="-110"/>
      <point x="345" y="-41" type="curve" smooth="yes"/>
      <point x="345" y="129"/>
      <point x="111" y="-33"/>
      <point x="111" y="219" type="curve" smooth="yes"/>
      <point x="111" y="302"/>
      <point x="153" y="361"/>
      <point x="213" y="361" type="curve" smooth="yes"/>
      <point x="260" y="361"/>
      <point x="308" y="315"/>
      <point x="310" y="247" type="curve"/>
      <point x="344" y="247" type="line"/>
      <point x="343" y="288"/>
      <point x="343" y="349"/>
      <point x="347" y="371" type="curve"/>
      <point x="315" y="374"/>
      <point x="270" y="396"/>
      <point x="213" y="396" type="curve" smooth="yes"/>
      <point x="115" y="396"/>
      <point x="45" y="309"/>
      <point x="45" y="187" type="curve" smooth="yes"/>
      <point x="45" y="-86"/>
      <point x="277" y="63"/>
      <point x="277" y="-69" type="curve" smooth="yes"/>
      <point x="277" y="-108"/>
      <point x="245" y="-133"/>
      <point x="199" y="-130" type="curve"/>
    </contour>
  </outline>
</glyph>
<glyph name="phi" format="2">
  <advance width="558"/>
  <unicode hex="03C6"/>
  <outline>
    <contour>
      <point x="258" y="-11" type="curve" smooth="yes"/>
      <point x="420" y="-11"/>
      <point x="521" y="78"/>
      <point x="521" y="219" type="curve" smooth="yes"/>
      <point x="521" y="327"/>
      <point x="474" y="395"/>
      <point x="398" y="395" type="curve" smooth="yes"/>
      <point x="298" y="395"/>
      <point x="236" y="315"/>
      <point x="236" y="188" type="curve"/>
      <point x="306" y="215" type="line"/>
      <point x="306" y="303"/>
      <point x="333" y="359"/>
      <point x="376" y="359" type="curve" smooth="yes"/>
      <point x="421" y="359"/>
      <point x="450" y="298"/>
      <point x="450" y="202" type="curve" smooth="yes"/>
      <point x="450" y="99"/>
      <point x="381" y="34"/>
      <point x="271" y="34" type="curve" smooth="yes"/>
      <point x="170" y="34"/>
      <point x="107" y="98"/>
      <point x="107" y="201" type="curve" smooth="yes"/>
      <point x="107" y="269"/>
      <point x="138" y="333"/>
      <point x="193" y="371" type="curve"/>
      <point x="174" y="398" type="line"/>
      <point x="89" y="363"/>
      <point x="36" y="282"/>
      <point x="36" y="186" type="curve" smooth="yes"/>
      <point x="36" y="65"/>
      <point x="122" y="-11"/>
    </contour>
    <contour>
      <point x="306" y="215" type="line"/>
      <point x="236" y="188" type="line"/>
      <point x="238" y="130"/>
      <point x="237" y="3"/>
      <point x="234" y="-120" type="curve" smooth="yes"/>
      <point x="233" y="-173"/>
      <point x="234" y="-219"/>
      <point x="233" y="-232" type="curve"/>
      <point x="296" y="-232" type="line"/>
      <point x="303" y="-196"/>
      <point x="307" y="-148"/>
      <point x="306" y="-116" type="curve"/>
    </contour>
  </outline>
</glyph>
<glyph name="uni2010" format="2">
  <advance width="288"/>
  <unicode hex="2010"/>
  <outline>
    <contour>
      <point x="39" y="186" type="line"/>
      <point x="249" y="190" type="line"/>
      <point x="252" y="253" type="line"/>
      <point x="203" y="253" type="line"/>
      <point x="77" y="239" type="line"/>
      <point x="36" y="231" type="line"/>
    </contour>
  </outline>
</glyph>
<glyph name="quoteleft" format="2">
  <advance width="252"/>
  <unicode hex="2018"/>
  <outline>
    <contour>
      <point x="191" y="624" type="curve"/>
      <point x="181" y="651" type="line"/>
      <point x="106" y="621"/>
      <point x="54" y="549"/>
      <point x="54" y="478" type="curve" smooth="yes"/>
      <point x="54" y="432"/>
      <point x="86" y="395"/>
      <point x="136" y="395" type="curve" smooth="yes"/>
      <point x="172" y="395"/>
      <point x="198" y="419"/>
      <point x="198" y="448" type="curve" smooth="yes"/>
      <point x="198" y="470"/>
      <point x="186" y="491"/>
      <point x="166" y="491" type="curve" smooth="yes"/>
      <point x="148" y="491"/>
      <point x="145" y="484"/>
      <point x="130" y="484" type="curve" smooth="yes"/>
      <point x="116" y="484"/>
      <point x="108" y="500"/>
      <point x="108" y="523" type="curve" smooth="yes"/>
      <point x="108" y="572"/>
      <point x="143" y="611"/>
    </contour>
  </outline>
</glyph>
<glyph name="quoteright" format="2">
  <advance width="252"/>
  <unicode hex="2019"/>
  <outline>
    <contour>
      <point x="63" y="396" type="curve"/>
      <point x="73" y="369" type="line"/>
      <point x="148" y="399"/>
      <point x="198" y="471"/>
      <point x="198" y="542" type="curve" smooth="yes"/>
      <point x="198" y="588"/>
      <point x="164" y="625"/>
      <point x="114" y="625" type="curve" smooth="yes"/>
      <point x="78" y="625"/>
      <point x="54" y="601"/>
      <point x="54" y="572" type="curve" smooth="yes"/>
      <point x="54" y="550"/>
      <point x="68" y="529"/>
      <point x="88" y="529" type="curve" smooth="yes"/>
      <point x="106" y="529"/>
      <point x="109" y="536"/>
      <point x="124" y="536" type="curve" smooth="yes"/>
      <point x="138" y="536"/>
      <point x="146" y="520"/>
      <point x="146" y="497" type="curve" smooth="yes"/>
      <point x="146" y="448"/>
      <point x="111" y="409"/>
    </contour>
  </outline>
</glyph>
<glyph name="quotedblleft" format="2">
  <advance width="432"/>
  <unicode hex="201C"/>
  <outline>
    <contour>
      <point x="369" y="624" type="curve"/>
      <point x="359" y="651" type="line"/>
      <point x="284" y="621"/>
      <point x="232" y="549"/>
      <point x="232" y="478" type="curve" smooth="yes"/>
      <point x="232" y="432"/>
      <point x="266" y="395"/>
      <point x="316" y="395" type="curve" smooth="yes"/>
      <point x="352" y="395"/>
      <point x="378" y="419"/>
      <point x="378" y="448" type="curve" smooth="yes"/>
      <point x="378" y="470"/>
      <point x="364" y="491"/>
      <point x="344" y="491" type="curve" smooth="yes"/>
      <point x="326" y="491"/>
      <point x="323" y="484"/>
      <point x="308" y="484" type="curve" smooth="yes"/>
      <point x="294" y="484"/>
      <point x="286" y="500"/>
      <point x="286" y="523" type="curve" smooth="yes"/>
      <point x="286" y="572"/>
      <point x="321" y="611"/>
    </contour>
    <contour>
      <point x="191" y="624" type="curve"/>
      <point x="181" y="651" type="line"/>
      <point x="106" y="621"/>
      <point x="54" y="549"/>
      <point x="54" y="478" type="curve" smooth="yes"/>
      <point x="54" y="432"/>
      <point x="88" y="395"/>
      <point x="138" y="395" type="curve" smooth="yes"/>
      <point x="174" y="395"/>
      <point x="200" y="419"/>
      <point x="200" y="448" type="curve" smooth="yes"/>
      <point x="200" y="470"/>
      <point x="186" y="491"/>
      <point x="166" y="491" type="curve" smooth="yes"/>
      <point x="148" y="491"/>
      <point x="145" y="484"/>
      <point x="130" y="484" type="curve" smooth="yes"/>
      <point x="116" y="484"/>
      <point x="108" y="500"/>
      <point x="108" y="523" type="curve" smooth="yes"/>
      <point x="108" y="572"/>
      <point x="143" y="611"/>
    </contour>
  </outline>
</glyph>
<glyph name="quotedblright" format="2">
  <advance width="432"/>
  <unicode hex="201D"/>
  <outline>
    <contour>
      <point x="63" y="396" type="curve"/>
      <point x="73" y="369" type="line"/>
      <point x="148" y="399"/>
      <point x="200" y="471"/>
      <point x="200" y="542" type="curve" smooth="yes"/>
      <point x="200" y="588"/>
      <point x="166" y="625"/>
      <point x="116" y="625" type="curve" smooth="yes"/>
      <point x="80" y="625"/>
      <point x="54" y="601"/>
      <point x="54" y="572" type="curve" smooth="yes"/>
      <point x="54" y="550"/>
      <point x="68" y="529"/>
      <point x="88" y="529" type="curve" smooth="yes"/>
      <point x="106" y="529"/>
      <point x="109" y="536"/>
      <point x="124" y="536" type="curve" smooth="yes"/>
      <point x="138" y="536"/>
      <point x="146" y="520"/>
      <point x="146" y="497" type="curve" smooth="yes"/>
      <point x="146" y="448"/>
      <point x="111" y="409"/>
    </contour>
    <contour>
      <point x="241" y="396" type="curve"/>
      <point x="251" y="369" type="line"/>
      <point x="326" y="399"/>
      <point x="378" y="471"/>
      <point x="378" y="542" type="curve" smooth="yes"/>
      <point x="378" y="588"/>
      <point x="344" y="625"/>
      <point x="294" y="625" type="curve" smooth="yes"/>
      <point x="258" y="625"/>
      <point x="232" y="601"/>
      <point x="232" y="572" type="curve" smooth="yes"/>
      <point x="232" y="550"/>
      <point x="246" y="529"/>
      <point x="266" y="529" type="curve" smooth="yes"/>
      <point x="284" y="529"/>
      <point x="287" y="536"/>
      <point x="302" y="536" type="curve" smooth="yes"/>
      <point x="316" y="536"/>
      <point x="324" y="520"/>
      <point x="324" y="497" type="curve" smooth="yes"/>
      <point x="324" y="448"/>
      <point x="289" y="409"/>
    </contour>
  </outline>
</glyph>
<glyph name="quotedblbase" format="2">
  <advance width="432"/>
  <unicode hex="201E"/>
  <outline>
    <contour>
      <point x="63" y="-138" type="curve"/>
      <point x="73" y="-165" type="line"/>
      <point x="148" y="-135"/>
      <point x="200" y="-63"/>
      <point x="200" y="8" type="curve" smooth="yes"/>
      <point x="200" y="54"/>
      <point x="166" y="91"/>
      <point x="116" y="91" type="curve" smooth="yes"/>
      <point x="80" y="91"/>
      <point x="54" y="67"/>
      <point x="54" y="38" type="curve" smooth="yes"/>
      <point x="54" y="16"/>
      <point x="68" y="-5"/>
      <point x="88" y="-5" type="curve" smooth="yes"/>
      <point x="106" y="-5"/>
      <point x="109" y="2"/>
      <point x="124" y="2" type="curve" smooth="yes"/>
      <point x="138" y="2"/>
      <point x="146" y="-14"/>
      <point x="146" y="-37" type="curve" smooth="yes"/>
      <point x="146" y="-86"/>
      <point x="111" y="-125"/>
    </contour>
    <contour>
      <point x="241" y="-138" type="curve"/>
      <point x="251" y="-165" type="line"/>
      <point x="326" y="-135"/>
      <point x="378" y="-63"/>
      <point x="378" y="8" type="curve" smooth="yes"/>
      <point x="378" y="54"/>
      <point x="344" y="91"/>
      <point x="294" y="91" type="curve" smooth="yes"/>
      <point x="258" y="91"/>
      <point x="232" y="67"/>
      <point x="232" y="38" type="curve" smooth="yes"/>
      <point x="232" y="16"/>
      <point x="246" y="-5"/>
      <point x="266" y="-5" type="curve" smooth="yes"/>
      <point x="284" y="-5"/>
      <point x="287" y="2"/>
      <point x="302" y="2" type="curve" smooth="yes"/>
      <point x="316" y="2"/>
      <point x="324" y="-14"/>
      <point x="324" y="-37" type="curve" smooth="yes"/>
      <point x="324" y="-86"/>
      <point x="289" y="-125"/>
    </contour>
  </outline>
</glyph>
<glyph name="dagger" format="2">
  <advance width="594"/>
  <unicode hex="2020"/>
  <outline>
    <contour>
      <point x="279" y="-232" type="curve"/>
      <point x="315" y="-232" type="line"/>
      <point x="333" y="76"/>
      <point x="333" y="385"/>
      <point x="315" y="693" type="curve"/>
      <point x="279" y="694" type="line"/>
      <point x="261" y="385"/>
      <point x="261" y="77"/>
    </contour>
    <contour>
      <point x="36" y="435" type="curve"/>
      <point x="36" y="399" type="line"/>
      <point x="210" y="381"/>
      <point x="384" y="381"/>
      <point x="558" y="399" type="curve"/>
      <point x="558" y="435" type="line"/>
      <point x="384" y="453"/>
      <point x="210" y="453"/>
    </contour>
  </outline>
</glyph>
<glyph name="bullet" format="2">
  <advance width="426"/>
  <unicode hex="2022"/>
  <outline>
    <contour>
      <point x="211" y="102" type="curve" smooth="yes"/>
      <point x="306" y="102"/>
      <point x="372" y="167"/>
      <point x="372" y="259" type="curve" smooth="yes"/>
      <point x="372" y="354"/>
      <point x="306" y="420"/>
      <point x="211" y="420" type="curve" smooth="yes"/>
      <point x="119" y="420"/>
      <point x="54" y="354"/>
      <point x="54" y="259" type="curve" smooth="yes"/>
      <point x="54" y="167"/>
      <point x="119" y="102"/>
    </contour>
  </outline>
</glyph>
